<?xml version="1.0" standalone="no"?>
<!DOCTYPE svg PUBLIC "-//W3C//DTD SVG 20010904//EN"
 "http://www.w3.org/TR/2001/REC-SVG-20010904/DTD/svg10.dtd">
<svg version="1.0" xmlns="http://www.w3.org/2000/svg"
 width="1024.000000pt" height="1024.000000pt" viewBox="0 0 1024.000000 1024.000000"
 preserveAspectRatio="xMidYMid meet">

<g transform="translate(0.000000,1024.000000) scale(0.100000,-0.100000)"
fill="#000000" stroke="none">
<path d="M160 10164 c0 -67 -2 -76 -20 -81 -16 -4 -20 -14 -20 -44 0 -32 3
-39 20 -39 19 0 20 -7 20 -100 0 -93 -1 -100 -20 -100 -13 0 -20 -7 -20 -20 0
-18 -7 -20 -60 -20 l-60 0 1 -4407 c1 -3690 6 -5094 17 -4835 2 35 5 42 22 42
19 0 20 7 20 114 0 66 4 117 10 121 6 4 10 -37 10 -114 0 -74 -4 -121 -10
-121 -5 0 -10 -16 -10 -35 0 -19 5 -35 10 -35 6 0 10 -48 10 -125 l0 -125 -40
0 -40 0 0 -120 0 -120 5120 0 5120 0 0 5040 0 5040 -40 0 -40 0 0 40 0 40 40
0 40 0 0 40 0 40 -320 0 -320 0 0 -40 0 -40 -80 0 -80 0 0 40 0 40 -2160 0
-2160 0 0 -40 0 -40 -80 0 -80 0 0 40 0 40 -400 0 c-393 0 -400 0 -400 -20 0
-19 -7 -20 -240 -20 -233 0 -240 -1 -240 -20 0 -18 -7 -20 -80 -20 l-80 0 0
40 0 40 -1680 0 -1680 0 0 -76z m10000 -124 l0 -40 -40 0 -40 0 0 40 0 40 40
0 40 0 0 -40z m-9920 -480 l0 -120 -40 0 -40 0 0 40 0 40 -40 0 -40 0 0 40 0
40 40 0 40 0 0 40 0 40 40 0 40 0 0 -120z m4830 -575 c0 -1 -30 -2 -67 -2
l-68 0 55 6 c48 6 80 4 80 -4z m46 -21 c18 -14 18 -14 -6 -3 -31 14 -36 19
-24 19 6 0 19 -7 30 -16z m70 -36 c23 -27 24 -29 3 -10 -14 12 -31 22 -38 22
-7 0 -9 5 -6 10 8 14 8 14 41 -22z m-374 -10 c-7 -7 -18 -13 -25 -13 -7 -1
-11 -7 -9 -14 1 -7 -2 -10 -8 -6 -8 5 -8 11 1 21 6 7 15 12 19 9 5 -3 11 -1
15 5 3 5 9 10 13 10 3 0 0 -6 -6 -12z m449 -18 c10 0 19 -5 19 -11 0 -5 -4 -8
-9 -4 -5 3 -12 1 -16 -4 -3 -6 14 -9 44 -7 36 3 51 0 55 -10 3 -8 15 -14 27
-14 12 0 20 -3 16 -6 -5 -5 -57 3 -145 22 -13 2 -20 9 -17 14 3 5 1 11 -5 15
-6 4 -7 11 -3 18 5 8 8 8 11 -1 2 -7 12 -12 23 -12z m-558 -47 c-7 -2 -21 -2
-30 0 -10 3 -4 5 12 5 17 0 24 -2 18 -5z m790 -27 c19 -4 26 -3 22 3 -3 6 7 3
24 -7 16 -9 29 -18 27 -19 -1 -2 -36 5 -78 13 -46 11 -75 22 -75 30 0 10 5 10
26 0 14 -7 39 -16 54 -20z m-846 18 c-3 -3 -12 -4 -19 -1 -8 3 -5 6 6 6 11 1
17 -2 13 -5z m-87 -14 c-34 -11 -60 -11 -35 0 11 5 29 8 40 8 16 0 15 -2 -5
-8z m-180 -45 c-19 -7 -42 -13 -50 -13 -8 0 1 6 20 13 19 7 42 13 50 13 8 0
-1 -6 -20 -13z m1285 -5 c25 -11 -1 -11 -35 0 -20 6 -21 8 -5 8 11 0 29 -3 40
-8z m-1435 -40 c-24 -15 -36 -11 -14 4 10 8 21 12 24 10 2 -3 -2 -9 -10 -14z
m1525 10 c7 -12 -2 -12 -30 0 -19 8 -19 9 2 9 12 1 25 -3 28 -9z m81 -38 c-2
-1 -17 3 -35 9 -23 8 -29 14 -20 19 10 7 62 -19 55 -28z m50 -19 c-6 -6 -36 9
-36 18 0 5 9 4 20 -3 10 -7 18 -14 16 -15z m-1759 11 c-3 -3 -12 -4 -19 -1 -8
3 -5 6 6 6 11 1 17 -2 13 -5z m1805 -24 c6 0 9 -2 6 -5 -12 -12 -37 7 -30 23
6 16 7 15 10 0 2 -10 8 -18 14 -18z m-852 -2 c72 -50 95 -116 65 -194 -32 -85
-133 -126 -213 -85 -90 46 -117 138 -63 222 49 77 143 103 211 57z m-1021 -2
c-2 -2 -15 -9 -29 -16 -23 -12 -24 -12 -11 3 7 10 20 17 29 17 8 0 13 -2 11
-4z m1941 -30 c0 -2 -9 -2 -20 1 -11 3 -20 9 -20 15 0 5 9 4 20 -2 11 -6 20
-12 20 -14z m-2050 -21 c0 -2 -6 -5 -13 -8 -8 -3 -14 1 -14 8 0 7 6 11 14 8 7
-3 13 -6 13 -8z m2085 5 c3 -6 -1 -7 -9 -4 -18 7 -21 14 -7 14 6 0 13 -4 16
-10z m52 -15 c-9 -8 -18 -11 -22 -6 -3 6 3 14 12 20 24 13 29 6 10 -14z m93 4
c0 -16 -4 -19 -21 -14 -32 10 -19 -15 21 -42 43 -30 34 -29 -29 3 -28 14 -49
30 -46 35 4 5 11 7 16 3 6 -3 13 3 16 15 7 28 43 28 43 0z m-733 -80 c21 -41
-10 -99 -54 -99 -52 0 -84 78 -45 112 37 33 78 28 99 -13z m-788 -1 c33 -59
-28 -121 -83 -85 -34 23 -43 60 -21 93 23 35 83 31 104 -8z m-860 5 c-6 -7
-15 -10 -20 -7 -13 8 -3 21 15 21 12 0 13 -4 5 -14z m2521 9 c0 -15 -25 -62
-32 -62 -5 0 -8 7 -8 15 0 8 5 15 11 15 6 0 8 9 4 20 -5 14 -2 20 9 20 9 0 16
-4 16 -8z m-77 -23 c4 -16 3 -18 -9 -8 -7 6 -11 15 -8 20 8 13 11 11 17 -12z
m-2494 -12 c-2 -1 -11 -8 -20 -15 -13 -10 -19 -9 -29 3 -11 13 -8 15 20 15 19
0 31 -1 29 -3z m-84 -47 c3 -6 -1 -7 -9 -4 -18 7 -21 14 -7 14 6 0 13 -4 16
-10z m751 -1 c3 -6 1 -16 -5 -22 -9 -9 -11 -8 -6 5 4 11 0 18 -12 21 -15 4
-16 5 -1 6 9 0 20 -4 24 -10z m1914 1 c0 -5 -2 -10 -4 -10 -3 0 -8 5 -11 10
-3 6 -1 10 4 10 6 0 11 -4 11 -10z m30 -18 c0 -15 -2 -15 -10 -2 -13 20 -13
33 0 25 6 -3 10 -14 10 -23z m-2000 8 c-20 -13 -33 -13 -25 0 3 6 14 10 23 10
15 0 15 -2 2 -10z m3 -26 c22 4 15 -1 -21 -16 -38 -15 -56 -18 -61 -10 -4 6
-17 9 -29 5 -29 -7 -29 -23 1 -16 20 4 20 3 4 -7 -23 -15 -62 -9 -62 10 0 8
24 23 60 36 51 18 61 19 68 7 6 -10 19 -12 40 -9z m1376 0 c62 -27 73 -40 46
-50 -23 -9 -67 5 -59 18 4 7 3 8 -4 4 -18 -11 -65 5 -53 17 15 15 14 30 -1 21
-7 -4 -8 -3 -4 4 9 15 5 16 75 -14z m-89 -3 c0 -4 -11 -6 -25 -3 -14 2 -25 6
-25 8 0 2 11 4 25 4 14 0 25 -4 25 -9z m766 -13 c19 -23 19 -23 -2 -5 -11 9
-24 14 -29 10 -4 -5 -5 -2 -1 5 9 16 10 16 32 -10z m65 -50 c19 -17 25 -26 14
-20 -21 10 -62 52 -53 52 3 0 21 -14 39 -32z m-2971 -12 c0 -2 -8 -10 -17 -17
-16 -13 -17 -12 -4 4 13 16 21 21 21 13z m527 -18 c42 -40 19 -108 -36 -108
-48 0 -78 41 -62 84 19 47 62 58 98 24z m1960 -14 c-3 -3 -12 -4 -19 -1 -8 3
-5 6 6 6 11 1 17 -2 13 -5z m52 -8 c9 -11 8 -15 -5 -20 -11 -4 -15 -2 -11 8 3
8 1 17 -6 20 -8 3 -8 5 -1 5 6 1 17 -5 23 -13z m531 -6 c9 -6 20 -5 30 3 8 6
6 2 -4 -11 -11 -12 -16 -23 -13 -23 4 -1 11 -2 17 -3 5 0 14 -6 21 -13 9 -9 8
-11 -4 -9 -21 3 -48 26 -42 36 3 5 -7 13 -22 18 -16 6 -21 11 -13 11 8 0 22
-3 30 -9z m-616 -45 c5 -22 4 -26 -4 -15 -5 8 -10 24 -10 34 0 26 6 18 14 -19z
m96 9 c0 -8 -5 -12 -10 -9 -6 4 -8 11 -5 16 9 14 15 11 15 -7z m-2660 -8 c0
-2 -7 -9 -15 -16 -13 -11 -14 -10 -9 4 5 14 24 23 24 12z m-52 -40 c-7 -8 -17
-12 -22 -9 -4 3 -2 9 5 14 22 13 31 11 17 -5z m1447 -26 c59 -60 116 -84 205
-84 88 0 140 22 207 86 l42 41 123 -27 c167 -37 310 -87 453 -158 147 -74 232
-128 350 -223 295 -236 504 -502 624 -792 l30 -73 -178 0 -178 0 -12 28 c-25
56 -107 188 -161 261 -121 163 -346 362 -517 458 -151 84 -296 137 -519 189
-215 51 -327 52 -530 5 -174 -39 -277 -73 -417 -139 -315 -148 -561 -383 -750
-714 l-50 -88 -173 0 c-133 0 -174 3 -174 13 0 23 110 238 164 321 81 124 215
292 298 372 281 272 626 463 977 539 59 13 115 24 126 24 12 1 38 -16 60 -39z
m1232 34 c-3 -3 -12 -4 -19 -1 -8 3 -5 6 6 6 11 1 17 -2 13 -5z m643 -19 c14
-19 14 -19 -2 -6 -10 7 -18 18 -18 24 0 6 1 8 3 6 1 -2 9 -13 17 -24z m-2843
-7 c20 -16 25 -59 8 -84 -31 -48 -115 -22 -115 36 0 58 60 86 107 48z m2431
-14 c45 -31 15 -114 -42 -114 -34 0 -56 25 -56 65 0 35 28 65 60 65 9 0 26 -7
38 -16z m-2998 -48 c0 -3 -4 -8 -10 -11 -5 -3 -10 -1 -10 4 0 6 5 11 10 11 6
0 10 -2 10 -4z m-40 -41 c-7 -9 -15 -13 -17 -11 -7 7 7 26 19 26 6 0 6 -6 -2
-15z m3660 -22 c0 -34 -1 -35 -18 -20 -22 20 -42 22 -42 5 0 -8 -5 -7 -15 3
-26 26 -8 49 36 49 38 0 39 -1 39 -37z m-3260 -33 c40 -40 15 -110 -41 -110
-36 0 -59 24 -59 62 0 61 59 89 100 48z m3236 -17 c-4 -4 -11 -1 -16 7 -16 25
-11 35 7 17 9 -9 13 -20 9 -24z m-386 7 c27 -27 25 -56 -5 -85 -13 -14 -33
-25 -45 -25 -28 0 -60 35 -60 65 0 14 9 34 20 45 11 11 31 20 45 20 14 0 34
-9 45 -20z m440 -56 c0 -8 9 -19 20 -26 11 -7 20 -19 20 -27 0 -9 -7 -5 -20
10 -11 13 -29 34 -40 46 l-20 21 20 -5 c11 -3 20 -12 20 -19z m50 22 c0 -2 -7
-7 -16 -10 -8 -3 -12 -2 -9 4 6 10 25 14 25 6z m-3865 -36 c-25 -26 -55 -36
-55 -17 0 5 6 7 14 4 14 -6 50 25 41 35 -3 2 2 5 10 5 11 0 9 -8 -10 -27z
m3925 -39 c0 -5 -7 -12 -16 -15 -8 -3 -12 -10 -9 -16 3 -5 1 -10 -4 -10 -6 0
-2 -9 9 -20 18 -18 27 -40 16 -40 -2 0 -16 17 -32 37 -15 20 -22 33 -14 28 10
-6 12 -4 7 9 -4 10 -3 15 3 11 6 -3 13 1 16 9 7 17 24 22 24 7z m-3986 -19 c2
-4 -3 -18 -13 -30 -16 -21 -17 -22 -17 -3 0 11 3 19 6 19 18 -2 23 4 10 12 -9
6 -10 10 -3 10 6 0 14 -4 17 -8z m3644 -74 c21 -18 15 -75 -10 -92 -30 -21
-47 -20 -75 6 -30 29 -29 62 4 87 26 21 53 21 81 -1z m-3268 -7 c32 -61 -37
-123 -84 -75 -36 36 -9 94 44 94 19 0 33 -7 40 -19z m3644 -33 c8 -6 8 -8 0
-8 -20 0 -35 26 -27 46 7 17 8 16 11 -6 2 -14 9 -28 16 -32z m-4111 -23 c-22
-30 -33 -32 -26 -5 3 11 9 18 13 15 5 -3 11 -1 15 5 3 5 8 10 11 10 3 0 -3
-11 -13 -25z m2097 5 c10 -6 11 -10 3 -10 -26 0 -10 -26 37 -62 50 -39 97
-104 65 -92 -8 4 -15 1 -15 -5 0 -6 9 -11 20 -11 21 0 27 -15 10 -25 -6 -4 -8
-11 -4 -16 4 -6 11 -6 20 2 16 13 15 14 30 -21 33 -76 47 -201 25 -215 -12 -7
-12 -85 0 -85 5 0 9 -4 9 -10 0 -6 -122 -10 -345 -10 l-345 0 0 100 c0 229
115 389 325 456 48 15 144 18 165 4z m-2140 -64 c0 -3 -4 -8 -10 -11 -5 -3
-10 -1 -10 4 0 6 5 11 10 11 6 0 10 -2 10 -4z m4224 -32 c3 -8 2 -12 -4 -9 -6
3 -10 10 -10 16 0 14 7 11 14 -7z m-4276 -43 c-8 -12 -17 -18 -21 -15 -3 3 2
14 11 25 21 24 28 16 10 -10z m-30 -51 c-7 -10 -14 -17 -17 -15 -4 4 18 35 25
35 2 0 -1 -9 -8 -20z m4422 -82 c-1 -7 -10 -2 -20 11 -26 30 -26 47 0 21 11
-11 20 -26 20 -32z m-1565 -3 l20 -16 -20 10 c-11 5 -29 17 -40 26 l-20 16 20
-10 c11 -5 29 -17 40 -26z m1213 -34 c19 -29 28 -50 21 -46 -9 6 -11 3 -6 -9
4 -10 7 -23 7 -29 0 -7 4 -6 10 3 8 13 10 12 10 -3 0 -12 -6 -17 -17 -15 -10
2 -18 11 -18 21 0 9 -4 16 -9 16 -9 -1 -27 25 -26 36 0 3 -12 16 -26 29 -19
15 -25 28 -21 40 11 29 39 14 75 -43z m-1291 -13 c-3 -7 -5 -2 -5 12 0 14 2
19 5 13 2 -7 2 -19 0 -25z m1677 -11 c-6 -17 -24 -14 -24 4 0 6 5 7 12 3 8 -5
9 -1 4 12 -5 14 -4 16 4 8 6 -6 8 -18 4 -27z m-1493 -4 c13 -17 13 -17 -6 -3
-11 8 -22 16 -24 17 -2 2 0 3 6 3 6 0 17 -8 24 -17z m-3069 -35 c-8 -8 -9 -4
-5 13 4 13 8 18 11 10 2 -7 -1 -18 -6 -23z m2895 -795 c-1 -153 -2 -28 -2 277
0 305 1 430 2 278 2 -153 2 -403 0 -555z m1710 821 c-3 -3 -12 -4 -19 -1 -8 3
-5 6 6 6 11 1 17 -2 13 -5z m-1483 -33 c-2 -3 -12 3 -22 13 -16 17 -16 18 5 5
12 -7 20 -15 17 -18z m47 -28 c13 -16 12 -17 -3 -4 -10 7 -18 15 -18 17 0 8 8
3 21 -13z m1472 -46 c3 -8 2 -20 -3 -27 -4 -7 2 -35 16 -67 13 -29 24 -59 24
-66 -1 -7 -12 15 -26 48 -44 104 -45 107 -32 99 8 -5 9 -2 5 9 -3 10 -2 17 2
17 5 0 11 -6 14 -13z m-4690 -24 c-3 -7 -8 -13 -12 -13 -4 0 -8 6 -8 13 0 8 6
14 13 14 7 0 10 -6 7 -14z m3017 -63 c0 -33 3 -40 20 -40 19 0 20 -7 20 -140
l0 -140 -45 0 -44 0 -4 -62 c-2 -43 -4 -29 -5 43 -1 58 1 167 5 242 6 135 6
137 30 137 20 0 23 -5 23 -40z m1317 3 c-3 -10 -5 -4 -5 12 0 17 2 24 5 18 2
-7 2 -21 0 -30z m-2997 23 c0 -2 -8 -10 -17 -17 -16 -13 -17 -12 -4 4 13 16
21 21 21 13z m-1384 -73 c-10 -10 -19 5 -10 18 6 11 8 11 12 0 2 -7 1 -15 -2
-18z m1295 -30 c-5 -10 -26 -36 -47 -58 -44 -48 -33 -25 16 33 38 45 46 52 31
25z m2203 -19 c3 -8 2 -12 -4 -9 -6 3 -10 10 -10 16 0 14 7 11 14 -7z m1296
-22 c0 -15 -2 -15 -10 -2 -13 20 -13 33 0 25 6 -3 10 -14 10 -23z m-3497 -22
c3 -11 0 -23 -5 -27 -7 -3 -8 -1 -4 5 4 7 2 12 -3 12 -6 0 -11 7 -11 15 0 22
17 18 23 -5z m22 10 c3 -5 1 -10 -4 -10 -6 0 -11 5 -11 10 0 6 2 10 4 10 3 0
8 -4 11 -10z m40 -1 c-3 -4 2 -10 11 -13 12 -4 14 -14 9 -36 -6 -30 -6 -30 34
-30 34 0 41 -3 41 -19 0 -11 3 -28 6 -38 4 -11 3 -14 -3 -7 -4 6 -22 9 -40 7
-33 -5 -36 -10 -36 -74 0 -9 -6 -16 -13 -16 -11 0 -11 3 -1 16 10 12 9 14 -5
8 -31 -11 -48 3 -48 38 0 32 -2 34 -36 37 -27 2 -39 9 -45 25 -5 13 -5 22 -1
22 4 -1 24 -1 45 0 34 1 37 3 37 31 0 18 6 33 15 36 8 4 13 9 10 13 -2 4 2 8
10 8 8 0 12 -4 10 -8z m2141 -10 c1 -5 2 -14 3 -20 1 -8 6 -7 17 1 13 11 19
10 37 -10 12 -12 16 -20 10 -16 -7 4 -13 2 -13 -3 0 -6 -8 -11 -17 -11 -14 0
-18 -8 -17 -33 1 -19 5 -40 9 -48 6 -11 5 -12 -6 -1 -7 6 -25 12 -40 12 -24 0
-28 -5 -31 -32 -2 -26 -8 -34 -27 -36 -26 -4 -41 12 -41 45 0 18 -7 22 -37 25
-28 2 -39 8 -42 22 -4 23 24 46 56 46 21 0 29 18 25 60 0 3 15 4 34 2 30 -4
34 -8 34 -33 0 -25 4 -29 28 -28 26 0 27 0 4 10 -13 5 -20 13 -17 19 4 6 11 8
16 5 5 -4 9 -1 9 4 0 6 -4 11 -10 11 -5 0 -7 7 -3 15 5 16 17 12 19 -6z m-993
-16 l317 -6 0 -24 0 -23 -205 0 -205 0 2 -87 c1 -49 3 -69 5 -45 3 34 8 42 24
42 10 0 19 -4 19 -10 0 -5 19 -10 41 -10 40 0 41 -1 37 -30 -4 -29 -4 -30 41
-32 25 0 -17 -5 -94 -9 -77 -5 -233 -6 -347 -3 l-208 6 0 119 0 119 128 0 c71
0 271 -3 445 -7z m2314 -20 c-4 -3 -2 -12 4 -20 9 -9 8 -13 0 -13 -6 0 -11 2
-11 4 0 2 -3 11 -6 20 -4 10 -1 16 7 16 7 0 9 -3 6 -7z m-4506 -80 c16 -23 29
-44 29 -47 0 -2 -26 -10 -57 -16 -32 -6 -73 -16 -91 -22 -18 -5 -36 -8 -39 -5
-4 5 16 43 70 135 19 32 20 33 39 15 11 -10 33 -37 49 -60z m989 67 c0 -5 -4
-10 -9 -10 -6 0 -13 5 -16 10 -3 6 1 10 9 10 9 0 16 -4 16 -10z m-1393 -22
c-3 -8 -6 -5 -6 6 -1 11 2 17 5 13 3 -3 4 -12 1 -19z m4625 -16 c36 -53 70
-122 61 -122 -5 1 -47 11 -94 23 l-86 23 39 57 c21 31 43 57 47 57 5 0 20 -17
33 -38z m-2079 -9 c-7 -2 -19 -2 -25 0 -7 3 -2 5 12 5 14 0 19 -2 13 -5z
m-2530 -23 c-3 -12 -8 -19 -11 -16 -5 6 5 36 12 36 2 0 2 -9 -1 -20z m3614 -2
c-3 -8 -6 -5 -6 6 -1 11 2 17 5 13 3 -3 4 -12 1 -19z m87 -9 c14 -17 26 -36
25 -42 0 -7 -3 -7 -6 2 -5 11 -7 11 -14 0 -6 -10 -8 -7 -7 11 2 16 -2 24 -10
22 -8 -1 -11 2 -8 7 4 5 -2 14 -11 20 -10 6 -13 11 -6 11 6 0 23 -14 37 -31z
m-2493 -12 c-10 -9 -11 -8 -5 6 3 10 9 15 12 12 3 -3 0 -11 -7 -18z m-1223
-22 c-3 -3 -9 2 -12 12 -6 14 -5 15 5 6 7 -7 10 -15 7 -18z m4947 1 c0 -15 -4
-21 -9 -16 -5 5 -6 16 -3 24 9 22 12 20 12 -8z m-4963 -25 c8 11 9 10 4 -4 -3
-10 -6 -26 -7 -35 -1 -20 -17 25 -17 48 0 8 3 6 5 -4 4 -15 7 -16 15 -5z
m3796 -43 c13 -23 16 -35 8 -32 -14 5 -36 46 -36 66 0 14 1 13 28 -34z m-53
11 c-4 -6 1 -17 11 -25 18 -15 18 -15 1 -10 -10 3 -21 6 -23 6 -2 0 -4 9 -4
20 0 11 5 20 11 20 5 0 7 -5 4 -11z m-2547 -30 c-3 -8 -7 -3 -11 10 -4 17 -3
21 5 13 5 -5 8 -16 6 -23z m2552 -39 c0 -5 -4 -10 -10 -10 -5 0 -10 5 -10 10
0 6 5 10 10 10 6 0 10 -4 10 -10z m89 -20 c6 -18 6 -28 1 -25 -6 4 -10 14 -10
23 0 15 -2 15 -10 2 -11 -17 -13 -10 -4 14 8 22 10 20 23 -14z m1171 23 c0 -5
-5 -15 -10 -23 -8 -12 -10 -11 -10 8 0 12 5 22 10 22 6 0 10 -3 10 -7z m-5033
-25 c-3 -8 -6 -5 -6 6 -1 11 2 17 5 13 3 -3 4 -12 1 -19z m-2334 5 c-7 -2 -13
-17 -13 -33 0 -16 6 -31 13 -33 7 -3 5 -6 -5 -6 -14 -1 -18 7 -18 39 0 32 4
40 18 39 10 0 12 -3 5 -6z m5920 -10 c-7 -3 -13 -18 -13 -34 0 -26 3 -29 30
-29 18 0 33 -6 36 -15 8 -21 25 -19 18 3 -5 13 -4 14 4 3 10 -14 5 -47 -6 -37
-3 3 -13 -4 -23 -15 -10 -12 -20 -16 -23 -10 -14 22 -38 -2 -34 -33 3 -30 2
-31 -29 -28 -29 4 -33 8 -33 33 0 26 -3 29 -32 29 -42 0 -54 9 -60 40 -4 22
-1 25 26 24 53 -2 66 6 66 37 0 25 4 29 29 29 17 0 33 5 36 11 4 6 10 7 14 3
3 -4 0 -9 -6 -11z m-2433 -27 c-5 -15 -7 -33 -3 -39 3 -7 2 -8 -3 -4 -5 5 -16
-14 -26 -45 -9 -29 -17 -45 -17 -36 -1 20 50 161 56 155 2 -2 -1 -16 -7 -31z
m350 0 c0 -31 3 -34 40 -44 28 -7 40 -6 43 2 2 6 4 -3 3 -20 -1 -17 -5 -31
-11 -32 -69 -11 -77 -15 -72 -38 2 -13 0 -24 -5 -24 -5 0 -7 -4 -3 -9 3 -5 0
-13 -6 -17 -7 -4 -9 -3 -5 4 4 6 -3 12 -16 14 -18 2 -24 11 -26 35 -2 20 -8
30 -15 28 -7 -3 -25 -1 -42 3 -23 6 -30 14 -31 34 -1 20 3 24 17 21 10 -3 30
-2 44 1 21 5 25 12 25 41 0 32 2 35 30 35 27 0 30 -3 30 -34z m-887 8 c116
-30 205 -90 283 -189 86 -112 119 -251 91 -387 -19 -92 -62 -187 -112 -245
-49 -58 -145 -119 -224 -143 -75 -24 -204 -28 -273 -10 -54 15 -158 69 -158
83 0 6 14 25 31 43 l31 32 64 -30 c109 -51 219 -47 336 13 131 67 216 222 205
373 -10 151 -92 268 -235 338 -60 30 -76 33 -152 33 -75 0 -93 -4 -154 -33
l-70 -33 -35 36 c-35 35 -36 36 -16 52 29 22 94 51 156 67 72 19 158 20 232 0z
m4028 -4 c62 -19 172 -80 170 -94 0 -3 -16 -20 -35 -37 l-35 -30 -66 31 c-93
44 -161 57 -231 42 -219 -46 -360 -240 -323 -446 29 -162 135 -287 278 -330
102 -30 208 -13 297 48 l39 26 39 -40 c39 -39 40 -39 21 -60 -10 -11 -46 -34
-79 -50 -198 -97 -435 -45 -585 129 -58 67 -84 116 -105 198 -59 225 50 476
248 573 127 63 251 76 367 40z m386 -12 c-3 -8 -6 -5 -6 6 -1 11 2 17 5 13 3
-3 4 -12 1 -19z m-1173 -30 c-2 -3 6 -4 17 -1 21 6 21 6 3 -16 -10 -11 -21
-21 -25 -21 -11 0 -20 47 -12 66 6 16 7 16 13 -2 4 -10 6 -22 4 -26z m-1211
-5 l307 -6 0 -24 c0 -23 -2 -23 -102 -23 -57 0 -110 -5 -118 -10 -13 -8 -12
-10 3 -10 15 0 17 -10 17 -79 l0 -78 -217 -5 c-120 -2 -275 -2 -345 0 l-128 4
0 119 0 119 138 0 c75 0 275 -3 445 -7z m2401 -9 c3 -8 2 -12 -4 -9 -6 3 -10
10 -10 16 0 14 7 11 14 -7z m46 -4 c0 -4 -6 -10 -13 -13 -7 -3 -13 3 -13 13 0
10 6 16 13 13 7 -3 13 -9 13 -13z m-1193 -22 c-3 -8 -6 -5 -6 6 -1 11 2 17 5
13 3 -3 4 -12 1 -19z m-3932 -38 c-4 -23 -9 -39 -11 -37 -3 2 -2 23 2 46 4 23
9 40 11 37 3 -3 2 -23 -2 -46z m5082 8 c-3 -7 -5 -2 -5 12 0 14 2 19 5 13 2
-7 2 -19 0 -25z m-1387 1 c0 -5 -4 -7 -10 -4 -5 3 -10 1 -10 -6 0 -7 -3 -10
-6 -6 -8 7 4 27 17 27 5 0 9 -5 9 -11z m210 1 c0 -5 -5 -10 -11 -10 -5 0 -7 5
-4 10 3 6 8 10 11 10 2 0 4 -4 4 -10z m20 -52 c0 -19 -16 -5 -17 14 -2 18 0
20 7 8 5 -8 10 -18 10 -22z m1180 -22 c0 -12 5 -16 15 -12 9 3 15 0 15 -9 0
-8 7 -15 15 -15 8 0 15 -9 15 -20 0 -14 7 -20 23 -20 17 0 19 -2 7 -10 -19
-12 -68 17 -85 50 -16 33 -29 91 -15 70 5 -8 10 -23 10 -34z m-3942 -1 c-3 -3
-9 2 -12 12 -6 14 -5 15 5 6 7 -7 10 -15 7 -18z m759 -37 c-2 -13 -4 -3 -4 22
0 25 2 35 4 23 2 -13 2 -33 0 -45z m3303 12 c0 -5 -4 -10 -10 -10 -5 0 -10 5
-10 10 0 6 5 10 10 10 6 0 10 -4 10 -10z m-5300 -54 c0 -3 -4 -8 -10 -11 -5
-3 -10 -1 -10 4 0 6 5 11 10 11 6 0 10 -2 10 -4z m2007 -43 c-3 -10 -5 -2 -5
17 0 19 2 27 5 18 2 -10 2 -26 0 -35z m-1376 20 c8 -9 16 -46 19 -82 4 -56 8
-66 23 -63 9 2 17 -2 17 -8 0 -5 -11 -10 -25 -10 -24 0 -25 2 -25 65 0 36 -4
65 -9 65 -5 0 -8 8 -7 17 0 11 -7 19 -21 21 -18 3 -21 -1 -17 -20 5 -20 4 -21
-6 -5 -22 34 24 53 51 20z m657 -38 c0 -16 -2 -15 -8 5 -11 34 -11 60 0 35 5
-11 8 -29 8 -40z m485 38 c-7 -2 -19 -2 -25 0 -7 3 -2 5 12 5 14 0 19 -2 13
-5z m55 -20 c-21 -2 -57 -2 -80 0 -24 2 -7 4 37 4 44 0 63 -2 43 -4z m2857
-64 c108 -61 129 -69 159 -64 43 9 76 -8 76 -39 0 -33 -24 -49 -62 -43 -39 5
-73 -10 -206 -95 -52 -33 -99 -57 -106 -55 -28 11 -28 367 0 367 8 0 70 -32
139 -71z m708 65 c3 -3 3 -12 0 -20 -4 -10 -8 -11 -18 -1 -7 7 -11 15 -8 20 5
9 17 9 26 1z m-4821 -71 c2 -34 2 -60 -1 -58 -2 3 -9 1 -15 -3 -6 -4 -45 -4
-86 -1 l-75 5 83 2 82 2 0 62 c0 78 7 73 12 -9z m-642 52 c0 -2 -6 -8 -13 -14
-10 -8 -14 -7 -14 2 0 8 6 14 14 14 7 0 13 -1 13 -2z m1937 -72 c-2 -16 -4 -3
-4 27 0 30 2 43 4 28 2 -16 2 -40 0 -55z m1503 27 c0 -27 -3 -50 -7 -50 -5 0
-6 22 -5 50 5 65 12 65 12 0z m-3482 -15 c-6 -14 -13 -23 -16 -21 -7 7 9 46
18 46 5 0 4 -11 -2 -25z m1409 3 c-3 -8 -6 -5 -6 6 -1 11 2 17 5 13 3 -3 4
-12 1 -19z m603 -8 c0 -16 -4 -30 -8 -30 -5 0 -7 14 -4 30 2 17 6 30 8 30 2 0
4 -13 4 -30z m107 -17 c-3 -10 -5 -2 -5 17 0 19 2 27 5 18 2 -10 2 -26 0 -35z
m-1380 -15 c-3 -8 -6 -5 -6 6 -1 11 2 17 5 13 3 -3 4 -12 1 -19z m2950 16 c-3
-3 -12 -4 -19 -1 -8 3 -5 6 6 6 11 1 17 -2 13 -5z m353 -4 c0 -5 -8 -10 -17
-10 -15 0 -16 2 -3 10 19 12 20 12 20 0z m-1172 -7 c284 -6 302 -7 302 -25 0
-16 -10 -18 -100 -18 l-100 0 0 -70 c0 -60 -3 -70 -17 -71 -15 0 -15 -2 2 -9
17 -7 16 -9 -10 -11 -30 -2 -30 -2 5 -8 44 -8 -253 -21 -492 -21 l-178 0 0
120 0 120 143 0 c79 0 279 -3 445 -7z m1170 -18 c1 -1 3 -74 4 -161 1 -174
-10 -243 -64 -389 -93 -254 -307 -503 -564 -658 -123 -74 -325 -145 -461 -162
l-53 -7 0 160 0 159 62 13 c148 29 291 105 407 215 95 91 126 133 181 243 70
140 82 195 87 397 2 99 6 185 7 190 3 9 385 9 394 0z m-3130 -11 c26 -18 28
-37 6 -58 -11 -12 -35 -16 -85 -16 l-69 0 0 -69 c0 -71 -14 -101 -45 -101 -33
0 -46 31 -44 99 l3 66 -95 5 c-80 4 -94 8 -95 23 -1 9 0 11 2 4 3 -9 21 -14
47 -14 31 -1 36 1 18 6 -14 3 -26 13 -29 21 -3 12 -2 12 6 1 12 -17 142 -29
142 -12 0 7 -23 12 -62 12 -40 1 -17 5 62 10 123 8 188 -1 125 -17 l-30 -8 25
-7 c39 -11 105 -10 117 2 6 6 8 19 6 30 -5 19 -20 25 -78 32 -24 3 -22 4 10 6
23 0 50 -6 63 -15z m914 -181 c4 -180 7 -205 31 -278 51 -154 185 -332 323
-431 78 -56 213 -119 292 -138 33 -7 65 -17 71 -21 7 -4 11 -61 11 -162 l0
-156 -63 6 c-133 12 -356 101 -507 201 -197 132 -358 313 -465 526 -85 168
-105 254 -112 473 l-6 177 211 0 210 0 4 -197z m308 50 c0 -232 33 -333 149
-456 122 -130 235 -183 412 -194 288 -18 539 154 616 422 9 30 16 114 19 210
l5 160 79 3 80 3 0 -118 c-1 -217 -32 -343 -120 -476 -121 -185 -314 -301
-552 -332 l-48 -6 0 -343 c0 -188 2 -345 4 -347 9 -8 201 9 276 25 214 45 478
163 618 276 l33 27 122 -124 c67 -68 123 -127 124 -131 2 -4 -50 -47 -115 -95
-443 -332 -1077 -443 -1622 -284 -175 51 -330 118 -475 206 -340 207 -593 479
-755 813 -86 177 -85 170 -3 191 68 18 141 55 200 103 l31 25 46 -94 c144
-300 416 -585 716 -749 171 -94 437 -174 610 -185 l99 -6 3 346 3 346 -65 6
c-92 10 -234 59 -310 108 -85 55 -196 166 -243 244 -21 34 -50 95 -64 135 -23
66 -26 91 -31 256 l-4 182 81 0 81 0 0 -147z m2411 138 c-21 -14 -6 -39 31
-50 23 -6 27 -10 13 -11 -14 -2 -11 -4 10 -10 25 -6 21 -7 -22 -8 -29 0 -53 4
-53 10 0 5 10 7 23 3 20 -5 20 -5 -3 9 -22 13 -26 13 -31 -2 -5 -14 -6 -14
-12 2 -8 20 6 52 25 59 22 9 34 7 19 -2z m67 2 c-10 -2 -26 -2 -35 0 -10 3 -2
5 17 5 19 0 27 -2 18 -5z m-3730 -60 c-10 -2 -26 -2 -35 0 -10 3 -2 5 17 5 19
0 27 -2 18 -5z m-777 -210 c13 -16 12 -17 -3 -4 -10 7 -18 15 -18 17 0 8 8 3
21 -13z m5299 -3 c0 -5 -4 -10 -10 -10 -5 0 -10 5 -10 10 0 6 5 10 10 10 6 0
10 -4 10 -10z m-73 -35 c0 -8 -4 -12 -9 -9 -5 3 -6 10 -3 15 9 13 12 11 12 -6z
m-2168 -41 c2 -2 1 -10 -2 -19 -5 -12 -24 -15 -94 -15 l-88 0 -25 -40 c-31
-50 -87 -96 -140 -115 l-39 -14 -4 77 c-2 57 -4 45 -5 -45 l-2 -123 -42 0
c-60 0 -159 25 -216 54 -92 47 -189 154 -208 230 l-7 29 434 -8 c239 -4 436
-9 438 -11z m2131 -37 c0 -5 -4 -5 -10 -2 -5 3 -10 -2 -10 -11 0 -10 -2 -15
-5 -12 -4 3 -3 18 1 33 5 20 9 23 15 13 5 -7 9 -17 9 -21z m-5100 3 c0 -5 -2
-10 -4 -10 -3 0 -8 5 -11 10 -3 6 -1 10 4 10 6 0 11 -4 11 -10z m27 -112 c-3
-8 -6 -5 -6 6 -1 11 2 17 5 13 3 -3 4 -12 1 -19z m5020 -40 c-3 -8 -6 -5 -6 6
-1 11 2 17 5 13 3 -3 4 -12 1 -19z m-5015 -20 c-8 -8 -9 -4 -5 13 4 13 8 18
11 10 2 -7 -1 -18 -6 -23z m5018 -29 c0 -6 -4 -7 -10 -4 -5 3 -10 1 -10 -6 0
-7 -2 -10 -5 -7 -9 8 6 38 16 32 5 -3 9 -10 9 -15z m-953 -34 c49 -38 176 -96
223 -102 50 -7 51 -3 -35 -178 -86 -177 -156 -277 -318 -459 l-43 -48 -122
128 c-67 70 -122 132 -122 137 0 5 31 43 70 84 107 115 164 196 236 336 35 70
68 127 71 127 3 0 21 -11 40 -25z m919 -31 c-5 -18 -3 -24 5 -18 7 4 2 -12
-11 -34 -13 -23 -25 -40 -27 -39 -4 5 29 117 34 117 3 0 2 -12 -1 -26z m-4937
-39 c0 -5 -4 -3 -9 5 -5 8 -9 22 -9 30 0 16 17 -16 18 -35z m349 -3 l82 -17
-46 -58 c-28 -36 -52 -57 -61 -55 -15 3 -92 130 -93 151 0 5 8 6 19 2 10 -3
55 -13 99 -23z m4315 -9 c-24 -53 -66 -116 -80 -120 -6 -2 -32 22 -57 54 l-46
58 63 12 c34 7 76 16 92 22 45 14 46 14 28 -26z m-4656 -25 c-3 -8 -6 -5 -6 6
-1 11 2 17 5 13 3 -3 4 -12 1 -19z m-2387 -38 l0 -40 -40 0 -40 0 0 40 0 40
40 0 40 0 0 -40z m7320 15 c0 -8 -7 -15 -16 -15 -14 0 -14 3 -4 15 7 8 14 15
16 15 2 0 4 -7 4 -15z m-47 -72 c-6 -15 -23 -18 -23 -3 0 6 4 10 10 10 5 0 7
8 4 18 -5 13 -4 14 4 3 6 -8 8 -20 5 -28z m-4852 1 c5 -15 8 -29 5 -31 -2 -2
-8 10 -14 26 -13 38 -5 41 9 5z m19 -54 c0 -5 -5 -10 -11 -10 -5 0 -7 5 -4 10
3 6 8 10 11 10 2 0 4 -4 4 -10z m4791 -27 c-12 -20 -14 -14 -5 12 4 9 9 14 11
11 3 -2 0 -13 -6 -23z m-4761 -58 c0 -5 -5 -3 -10 5 -5 8 -10 20 -10 25 0 6 5
3 10 -5 5 -8 10 -19 10 -25z m4741 8 c-12 -20 -14 -14 -5 12 4 9 9 14 11 11 3
-2 0 -13 -6 -23z m29 -3 c0 -5 -5 -10 -11 -10 -5 0 -7 5 -4 10 3 6 8 10 11 10
2 0 4 -4 4 -10z m-49 -47 c-12 -20 -14 -14 -5 12 4 9 9 14 11 11 3 -2 0 -13
-6 -23z m-26 -62 c-21 -43 -29 -39 -8 4 9 19 18 33 21 31 2 -2 -4 -18 -13 -35z
m-4678 -3 c-3 -8 -6 -5 -6 6 -1 11 2 17 5 13 3 -3 4 -12 1 -19z m27 6 c3 -8 2
-12 -4 -9 -6 3 -10 10 -10 16 0 14 7 11 14 -7z m29 -57 c3 -8 -1 -14 -8 -14
-7 0 -11 6 -8 14 3 7 6 13 8 13 2 0 5 -6 8 -13z m21 -43 c3 -8 2 -12 -4 -9 -6
3 -10 10 -10 16 0 14 7 11 14 -7z m56 -104 c6 -11 8 -20 6 -20 -3 0 -10 9 -16
20 -6 11 -8 20 -6 20 3 0 10 -9 16 -20z m575 -180 c41 -45 -18 -110 -70 -76
-29 19 -32 42 -9 74 19 27 55 28 79 2z m-458 -25 c0 -8 -4 -12 -9 -9 -5 3 -6
10 -3 15 9 13 12 11 12 -6z m4198 5 c-3 -5 -1 -10 6 -10 7 0 10 -3 6 -6 -9 -9
-28 6 -22 17 4 5 8 9 11 9 3 0 2 -4 -1 -10z m-378 -22 c-3 -8 -6 -5 -6 6 -1
11 2 17 5 13 3 -3 4 -12 1 -19z m363 -2 c0 -2 -8 -10 -17 -17 -16 -13 -17 -12
-4 4 13 16 21 21 21 13z m-40 -50 c0 -2 -8 -10 -17 -17 -16 -13 -17 -12 -4 4
13 16 21 21 21 13z m-3502 -95 c7 -48 -58 -80 -92 -45 -19 18 -19 24 -7 58 18
45 92 35 99 -13z m3447 26 c-8 -13 -13 -26 -10 -29 3 -2 -2 -5 -9 -5 -12 0
-11 7 5 29 24 34 36 38 14 5z m-441 -3 c10 -26 7 -51 -6 -51 -8 0 -13 14 -13
34 -1 35 9 44 19 17z m-3403 -141 c13 -16 12 -17 -3 -4 -17 13 -22 21 -14 21
2 0 10 -8 17 -17z m3703 -18 c-4 -8 -11 -15 -16 -15 -6 0 -5 6 2 15 7 8 14 15
16 15 2 0 1 -7 -2 -15z m-3663 -22 c13 -16 12 -17 -3 -4 -17 13 -22 21 -14 21
2 0 10 -8 17 -17z m479 -15 c0 -4 -5 -8 -11 -8 -5 0 -7 -6 -3 -12 4 -7 3 -9
-1 -5 -15 13 -14 34 1 34 8 0 14 -4 14 -9z m2537 -104 c8 -21 -19 -46 -40 -38
-9 3 -17 11 -17 16 0 6 6 5 15 -2 8 -6 19 -9 25 -5 18 11 11 33 -12 38 l-23 4
23 2 c12 0 25 -6 29 -15z m-2814 -72 c15 -17 15 -18 -6 -19 -12 0 -16 1 -9 4
10 4 10 8 1 19 -17 20 -5 17 14 -4z m2652 -32 c0 -20 -5 -25 -25 -25 -28 0
-41 32 -18 46 23 15 43 5 43 -21z m545 -4 c0 -2 -8 -10 -17 -17 -16 -13 -17
-12 -4 4 13 16 21 21 21 13z m-2407 -73 c-18 -7 -16 -23 1 -23 8 0 18 -4 21
-10 9 -14 -8 -12 -30 3 -18 14 -13 38 8 36 9 0 9 -2 0 -6z m1655 -5 c16 -16
15 -25 -2 -31 -11 -4 -13 -1 -9 10 4 10 2 14 -4 10 -5 -3 -10 0 -10 8 0 18 9
19 25 3z m-1570 -23 c-6 -6 -58 8 -58 16 0 4 14 3 31 -3 16 -6 29 -12 27 -13z
m1518 6 c-11 -12 -15 -25 -10 -33 4 -7 4 -10 -1 -6 -4 4 -14 3 -22 -3 -8 -8
-13 -8 -13 -1 0 6 4 12 9 14 5 2 11 10 13 18 2 8 10 18 18 22 24 10 24 9 6
-11z m-2186 -27 c0 -2 -9 0 -20 6 -11 6 -20 13 -20 16 0 2 9 0 20 -6 11 -6 20
-13 20 -16z m2137 -4 c-9 -23 -16 -29 -30 -24 -12 4 -17 2 -13 -4 7 -12 -77
-37 -98 -29 -30 12 -3 35 67 60 40 13 75 25 79 26 3 0 1 -12 -5 -29z m733 26
c0 -2 -7 -7 -16 -10 -8 -3 -12 -2 -9 4 6 10 25 14 25 6z m-2230 -17 c0 -5 4
-8 9 -4 5 3 12 1 16 -5 8 -12 42 -13 47 -1 2 5 28 1 58 -8 37 -11 56 -23 58
-35 4 -16 0 -18 -27 -13 -53 11 -181 59 -181 68 0 5 5 9 10 9 6 0 10 -5 10
-11z m851 -12 c49 -32 83 -105 74 -158 -9 -55 -64 -115 -118 -130 -52 -14
-114 8 -156 57 -49 56 -53 113 -11 182 44 71 143 95 211 49z m362 -55 c22 -19
22 -60 0 -84 -34 -38 -113 -8 -113 42 0 12 11 32 25 46 27 27 54 26 88 -4z
m-797 10 c23 -15 34 -50 24 -76 -17 -45 -97 -48 -117 -4 -11 25 -1 67 20 80
15 10 59 10 73 0z m-941 -22 c3 -6 -1 -7 -9 -4 -18 7 -21 14 -7 14 6 0 13 -4
16 -10z m110 -68 c-3 -3 -11 0 -18 7 -9 10 -8 11 6 5 10 -3 15 -9 12 -12z m85
-37 c14 -8 21 -14 15 -14 -5 0 -21 6 -35 14 -14 8 -20 14 -15 14 6 0 21 -6 35
-14z m170 -75 c8 -5 11 -10 5 -10 -5 0 -17 5 -25 10 -8 5 -10 10 -5 10 6 0 17
-5 25 -10z m85 -40 c-3 -5 -11 -10 -16 -10 -6 0 -7 5 -4 10 3 6 11 10 16 10 6
0 7 -4 4 -10z m190 -60 c8 -13 -5 -13 -25 0 -13 8 -13 10 2 10 9 0 20 -4 23
-10z m1322 -6 c-3 -3 -12 -4 -19 -1 -8 3 -5 6 6 6 11 1 17 -2 13 -5z m-1107
-38 c0 -2 -11 -6 -25 -8 -13 -3 -22 -1 -19 3 5 9 44 13 44 5z m897 -12 c-3 -3
-12 -4 -19 -1 -8 3 -5 6 6 6 11 1 17 -2 13 -5z m-167 -28 c0 -2 -7 -7 -16 -10
-8 -3 -12 -2 -9 4 6 10 25 14 25 6z m-465 -86 c-3 -5 -1 -10 6 -10 7 0 10 -3
6 -6 -9 -9 -28 6 -22 17 4 5 8 9 11 9 3 0 2 -4 -1 -10z m193 -57 c-10 -2 -26
-2 -35 0 -10 3 -2 5 17 5 19 0 27 -2 18 -5z m-4778 -203 l0 -40 -40 0 -40 0 0
-40 0 -40 -40 0 -40 0 0 40 0 40 40 0 40 0 0 40 0 40 40 0 40 0 0 -40z m2160
-52 c0 -10 -61 -10 -77 0 -7 4 8 7 33 7 24 0 44 -3 44 -7z m647 0 c-7 -4 -142
-7 -302 -6 -159 1 -265 4 -235 7 80 9 550 7 537 -1z m1031 -5 c16 -16 16 -16
-1 -10 -10 4 -118 8 -240 9 l-222 2 215 6 c118 3 219 7 223 8 5 1 16 -6 25
-15z m1242 9 c0 -4 -9 -8 -19 -8 -11 0 -17 4 -15 8 3 4 12 8 20 8 8 0 14 -4
14 -8z m1875 -2 c4 -6 -17 -9 -57 -8 l-63 1 55 7 c30 4 56 7 57 8 1 1 5 -2 8
-8z m505 0 c0 -5 -4 -10 -9 -10 -6 0 -13 5 -16 10 -3 6 1 10 9 10 9 0 16 -4
16 -10z m53 3 c-7 -2 -21 -2 -30 0 -10 3 -4 5 12 5 17 0 24 -2 18 -5z m-2945
-10 c-15 -2 -42 -2 -60 0 -18 2 -6 4 27 4 33 0 48 -2 33 -4z m840 0 c-16 -2
-40 -2 -55 0 -16 2 -3 4 27 4 30 0 43 -2 28 -4z m76 -39 c4 -14 11 -22 16 -19
6 4 7 -1 3 -11 -5 -13 -3 -15 7 -9 8 5 11 4 7 -2 -4 -6 -2 -25 4 -42 10 -30
12 -31 26 -14 13 17 13 16 4 -4 -8 -16 -6 -33 10 -72 12 -28 25 -49 29 -46 4
3 8 -1 7 -8 -1 -34 4 -48 15 -41 7 4 8 3 4 -4 -4 -6 14 -62 40 -124 80 -196
96 -230 105 -216 12 18 11 31 0 23 -5 -3 -13 -1 -16 5 -4 6 -3 10 2 9 23 -4
32 4 47 42 9 23 15 44 12 46 -3 3 2 12 10 20 8 9 12 23 9 31 -3 9 -3 13 1 9
10 -10 36 52 27 66 -3 5 -2 7 4 4 12 -7 36 40 28 54 -4 5 -2 9 2 9 5 0 33 57
63 128 29 70 64 141 77 159 23 31 24 32 116 35 98 3 98 3 97 -44 -1 -63 -2
-71 -10 -59 -6 10 -8 10 -13 -1 -3 -7 -38 -85 -77 -173 -39 -88 -117 -263
-172 -390 -55 -126 -109 -238 -121 -248 -17 -15 -36 -18 -113 -16 -51 2 -91 6
-88 10 7 11 -7 39 -17 33 -5 -3 -6 3 -2 13 6 16 5 17 -12 3 -17 -14 -17 -14
-6 5 11 17 8 30 -16 83 -16 34 -33 59 -38 55 -4 -5 -5 -3 -1 4 8 15 -136 333
-148 326 -5 -4 -6 -1 -2 6 4 6 -25 85 -63 175 -69 159 -82 206 -60 206 5 0 8
3 6 8 -3 4 39 6 93 4 95 -3 98 -4 104 -28z m2110 -3 c26 -27 31 -39 32 -86 1
-30 -2 -52 -7 -50 -4 3 -11 -1 -16 -9 -11 -19 -63 -46 -90 -46 -12 0 -34 5
-50 12 -15 6 -32 10 -36 9 -5 -1 -6 3 -2 9 4 6 1 17 -5 25 -19 23 -16 140 3
128 7 -4 8 1 3 13 -4 10 -4 16 -1 12 4 -3 18 0 33 8 41 22 99 11 136 -25z
m-4746 -3 c16 -34 6 -153 -15 -174 -11 -11 -46 -14 -154 -14 l-139 0 0 -332
c0 -183 -3 -342 -6 -354 -5 -19 -14 -21 -82 -23 -89 -3 -112 -11 -29 -11 31 0
58 -3 60 -7 9 -13 -116 -2 -129 12 -7 7 -10 15 -7 19 4 3 1 6 -5 6 -5 0 -13
-6 -15 -12 -4 -10 -6 -10 -6 -1 -1 6 2 14 7 16 4 3 6 159 4 346 l-3 341 -136
0 c-172 0 -173 1 -173 111 0 117 -30 110 430 107 l385 -3 13 -27z m1042 20
c14 -1 31 -9 39 -16 7 -7 20 -11 28 -8 8 3 11 1 8 -4 -3 -6 -3 -10 2 -11 43
-4 54 -7 60 -14 5 -4 -1 -5 -12 -1 -13 4 -9 -4 15 -26 19 -18 44 -50 54 -70
11 -20 23 -35 27 -32 4 2 7 -6 8 -19 0 -12 3 -52 7 -88 9 -93 -13 -162 -71
-227 -24 -27 -58 -55 -75 -62 -16 -7 -30 -18 -30 -25 0 -22 106 -215 115 -208
4 5 5 3 2 -4 -4 -6 -3 -23 3 -38 7 -18 7 -33 -1 -46 -9 -18 -19 -19 -92 -17
-93 3 -77 -11 -169 153 -76 136 -74 135 -185 135 l-93 0 0 -129 c0 -77 -4
-132 -10 -136 -6 -4 -8 -10 -6 -14 3 -4 -34 -7 -82 -7 -82 1 -87 2 -99 26 -10
19 -13 125 -13 458 1 238 4 431 8 428 5 -3 14 0 22 5 14 9 475 7 540 -3z
m1204 -1 c14 -10 16 -26 14 -97 -4 -113 5 -110 -270 -110 l-218 0 0 -75 0 -75
198 -1 c108 -1 200 -1 203 -1 4 1 7 -37 8 -83 3 -118 5 -117 -228 -113 l-181
3 0 -69 c0 -58 2 -67 16 -62 9 3 31 6 50 6 33 0 34 1 34 40 l0 40 40 0 c33 0
40 -3 40 -20 0 -17 7 -20 40 -20 33 0 40 -3 40 -20 0 -18 7 -20 59 -20 33 0
62 -4 66 -9 3 -6 -8 -8 -27 -5 -18 3 -67 1 -108 -4 -73 -9 -72 -9 62 -11 167
-1 168 -2 168 -106 0 -40 4 -75 10 -77 6 -2 6 -8 0 -18 -8 -13 -10 -12 -10 4
0 15 -3 16 -15 6 -8 -7 -12 -17 -8 -23 3 -5 2 -7 -4 -4 -6 4 -156 7 -335 7
-297 1 -325 2 -328 18 -6 29 -6 672 -1 785 5 80 10 110 21 117 24 16 642 13
664 -3z m1893 2 c6 -1 9 -7 7 -14 -4 -10 161 -410 267 -648 21 -48 39 -89 39
-92 0 -2 11 -29 25 -59 30 -66 31 -82 5 -96 -24 -13 -165 -11 -195 2 -18 8
-18 8 3 4 22 -4 22 -4 4 22 -10 15 -24 42 -31 59 -8 18 -17 31 -21 28 -5 -3
-6 4 -3 15 7 28 -16 31 -241 28 l-198 -3 -27 -66 c-40 -101 -39 -100 -148 -98
l-93 2 0 31 c0 18 8 50 19 72 55 114 151 357 145 366 -4 6 -3 8 3 5 13 -8 26
20 16 35 -3 7 -1 8 5 4 16 -10 15 16 0 34 -11 12 -10 12 3 2 14 -11 18 -8 28
19 6 17 8 36 4 42 -3 5 -1 7 5 3 10 -6 77 153 72 170 -1 4 3 10 8 13 14 9 53
89 50 103 -2 7 2 12 9 13 6 0 15 4 19 8 7 7 186 4 221 -4z m-3030 -5 c-3 -3
-12 -4 -19 -1 -8 3 -5 6 6 6 11 1 17 -2 13 -5z m113 -84 c0 -5 -5 -10 -11 -10
-5 0 -7 5 -4 10 3 6 8 10 11 10 2 0 4 -4 4 -10z m2121 -103 c-10 -9 -11 -8 -5
6 3 10 9 15 12 12 3 -3 0 -11 -7 -18z m424 -56 c3 -5 2 -12 -3 -15 -5 -3 -9 1
-9 9 0 17 3 19 12 6z m-474 -64 c-10 -9 -11 -8 -5 6 3 10 9 15 12 12 3 -3 0
-11 -7 -18z m-1994 -49 c-3 -7 -5 -2 -5 12 0 14 2 19 5 13 2 -7 2 -19 0 -25z
m771 15 c-21 -2 -57 -2 -80 0 -24 2 -7 4 37 4 44 0 63 -2 43 -4z m462 -69 c0
-8 -4 -14 -10 -14 -5 0 -10 9 -10 21 0 11 5 17 10 14 6 -3 10 -13 10 -21z m50
-19 c0 -2 -7 -5 -15 -9 -9 -3 -15 0 -15 9 0 9 6 12 15 9 8 -4 15 -7 15 -9z
m23 -72 c-5 -12 -3 -14 7 -8 9 6 11 4 5 -4 -5 -9 -11 -9 -17 -3 -6 6 -7 15 -4
21 11 17 16 13 9 -6z m1783 -40 c-10 -10 -19 5 -10 18 6 11 8 11 12 0 2 -7 1
-15 -2 -18z m-1774 -1 c-7 -5 -10 -16 -6 -25 3 -10 1 -17 -5 -17 -6 0 -11 11
-11 25 0 17 5 25 18 25 12 0 14 -2 4 -8z m-2165 -74 c-2 -13 -4 -3 -4 22 0 25
2 35 4 23 2 -13 2 -33 0 -45z m2197 46 c3 -8 2 -12 -4 -9 -6 3 -10 10 -10 16
0 14 7 11 14 -7z m-857 -81 c-2 -16 -4 -5 -4 22 0 28 2 40 4 28 2 -13 2 -35 0
-50z m2636 27 c3 -11 1 -20 -4 -20 -5 0 -9 9 -9 20 0 11 2 20 4 20 2 0 6 -9 9
-20z m-4120 -57 c-7 -2 -19 -2 -25 0 -7 3 -2 5 12 5 14 0 19 -2 13 -5z m144
-115 c-2 -24 -4 -5 -4 42 0 47 2 66 4 43 2 -24 2 -62 0 -85z m1763 118 c0 -3
-4 -8 -10 -11 -5 -3 -10 -1 -10 4 0 6 5 11 10 11 6 0 10 -2 10 -4z m2440 -1
c0 -2 -13 -8 -29 -13 -24 -8 -29 -8 -25 2 4 11 54 20 54 11z m-4663 -11 c-3
-3 -12 -4 -19 -1 -8 3 -5 6 6 6 11 1 17 -2 13 -5z m61 -21 c20 -9 40 -16 43
-15 6 1 7 -3 15 -72 5 -39 2 -53 -15 -76 -14 -20 -17 -30 -8 -33 6 -2 -28 -4
-76 -4 -49 0 -83 3 -76 8 9 5 4 13 -19 26 -18 10 -32 22 -32 27 0 5 6 4 13 -2
9 -8 11 -1 9 31 -4 55 25 103 70 116 18 5 34 10 36 10 1 1 19 -6 40 -16z m271
6 c17 -6 36 -20 42 -30 5 -11 13 -17 18 -15 16 11 5 -100 -14 -129 -17 -26
-17 -28 -2 -16 10 8 20 11 24 7 3 -3 1 -6 -6 -6 -7 0 -9 -5 -5 -12 4 -7 4 -10
-1 -6 -4 4 -15 2 -23 -5 -13 -10 -14 -9 -8 1 6 10 1 11 -21 5 -15 -4 -37 -6
-48 -5 -11 1 -35 2 -52 3 -24 1 -33 6 -33 17 0 15 2 15 10 2 5 -8 11 -12 14
-10 2 3 -7 18 -20 33 -13 15 -24 23 -24 17 0 -6 -4 -8 -10 -5 -5 3 -10 13 -10
21 0 8 5 12 10 9 6 -4 10 5 10 19 0 14 -5 26 -11 26 -5 0 -7 -6 -3 -12 5 -9 2
-9 -9 1 -19 15 -23 41 -7 41 6 0 10 -6 10 -12 0 -9 4 -8 10 2 9 13 10 13 10 0
1 -9 6 -5 14 10 13 23 69 60 92 60 6 0 25 -5 43 -11z m1108 1 c-1 -3 11 -18
26 -34 21 -23 27 -39 27 -74 0 -39 -5 -49 -37 -79 -32 -31 -41 -35 -76 -30
-53 7 -97 51 -104 103 -4 33 -1 45 23 73 15 18 37 37 48 41 22 9 95 9 93 0z
m1038 -4 c18 -8 38 -24 45 -35 6 -12 14 -20 18 -17 4 2 7 -20 7 -49 0 -29 -3
-52 -6 -50 -3 2 -17 -9 -32 -25 -37 -39 -78 -47 -125 -22 -20 10 -44 17 -52
15 -11 -4 -12 -2 -2 5 10 6 10 15 2 36 -17 45 -12 73 20 110 27 30 40 37 83
45 4 0 23 -5 42 -13z m974 -13 c13 -8 26 -24 28 -34 3 -10 9 -17 12 -14 14 8
-6 -83 -23 -110 -10 -15 -13 -25 -8 -21 6 3 13 2 16 -3 3 -5 -11 -10 -32 -11
-20 0 -52 -2 -70 -2 -52 -2 -97 48 -97 108 0 39 5 50 32 74 19 17 27 30 20 33
-7 2 13 2 43 -1 30 -2 66 -11 79 -19z m1262 19 c-5 -2 4 -16 21 -31 27 -24 31
-35 31 -76 0 -43 -4 -52 -36 -82 -42 -38 -77 -42 -124 -14 -17 11 -34 17 -36
13 -2 -4 -2 -1 0 7 2 7 -2 20 -8 27 -10 12 -9 30 3 112 1 6 6 12 12 12 6 0 4
5 -4 11 -13 9 -12 10 2 5 10 -3 29 1 43 8 14 7 44 13 66 12 22 0 35 -2 30 -4z
m49 -22 c0 -5 -2 -10 -4 -10 -3 0 -8 5 -11 10 -3 6 -1 10 4 10 6 0 11 -4 11
-10z m-4868 -79 c2 -17 1 -28 -4 -25 -8 5 -12 54 -4 54 2 0 6 -13 8 -29z
m4372 -17 c3 -8 2 -12 -4 -9 -6 3 -10 10 -10 16 0 14 7 11 14 -7z m-464 -33
c0 -5 -7 -12 -16 -15 -14 -5 -15 -4 -4 9 14 17 20 19 20 6z m-273 -16 c0 -8
-4 -12 -9 -9 -5 3 -6 10 -3 15 9 13 12 11 12 -6z m1010 -37 c-3 -7 -5 -2 -5
12 0 14 2 19 5 13 2 -7 2 -19 0 -25z m-4817 12 c0 -5 -5 -10 -11 -10 -5 0 -7
5 -4 10 3 6 8 10 11 10 2 0 4 -4 4 -10z m1575 1 c-3 -5 3 -12 12 -14 14 -4 13
-5 -4 -6 -23 -1 -30 9 -16 22 9 10 15 8 8 -2z m3335 -42 c0 -14 -17 -10 -23 5
-4 10 -1 13 9 9 7 -3 14 -9 14 -14z m-4360 1 c0 -5 -4 -10 -10 -10 -5 0 -10 5
-10 10 0 6 5 10 10 10 6 0 10 -4 10 -10z m913 3 c-13 -2 -33 -2 -45 0 -13 2
-3 4 22 4 25 0 35 -2 23 -4z m171 -1 c2 -4 -4 -8 -14 -8 -10 0 -16 4 -14 8 3
4 9 8 14 8 5 0 11 -4 14 -8z m603 1 c-20 -2 -52 -2 -70 0 -17 2 0 4 38 4 39 0
53 -2 32 -4z m996 0 c-7 -2 -19 -2 -25 0 -7 3 -2 5 12 5 14 0 19 -2 13 -5z
m675 0 c-10 -2 -26 -2 -35 0 -10 3 -2 5 17 5 19 0 27 -2 18 -5z m92 -3 c0 -5
-2 -10 -4 -10 -3 0 -8 5 -11 10 -3 6 -1 10 4 10 6 0 11 -4 11 -10z m719 6 c-2
-2 -26 -6 -53 -9 -30 -3 -43 -1 -35 4 13 8 97 13 88 5z m-4374 -16 c-3 -5 -10
-10 -16 -10 -5 0 -9 5 -9 10 0 6 7 10 16 10 8 0 12 -4 9 -10z m278 3 c-7 -2
-19 -2 -25 0 -7 3 -2 5 12 5 14 0 19 -2 13 -5z m1884 1 c-3 -3 -12 -4 -19 -1
-8 3 -5 6 6 6 11 1 17 -2 13 -5z m200 -10 c-3 -3 -12 -4 -19 -1 -8 3 -5 6 6 6
11 1 17 -2 13 -5z m486 -1 c-7 -2 -19 -2 -25 0 -7 3 -2 5 12 5 14 0 19 -2 13
-5z m-3046 -329 c-3 -3 -12 -4 -19 -1 -8 3 -5 6 6 6 11 1 17 -2 13 -5z m249
-14 l85 0 -3 -32 c-3 -33 -4 -33 -60 -36 -42 -2 -58 -7 -58 -17 0 -10 15 -15
48 -17 45 -3 47 -4 47 -33 0 -29 -1 -29 -47 -26 -43 2 -48 0 -48 -18 0 -18 7
-20 62 -23 57 -3 62 -5 69 -30 l7 -26 -102 1 -101 2 -5 118 c-3 74 -1 117 5
118 6 0 5 3 -2 6 -10 3 -10 7 0 18 7 7 14 9 15 4 2 -5 42 -9 88 -9z m1531
-110 c-2 -132 -10 -159 -42 -147 -13 6 -15 24 -13 129 3 119 4 123 26 126 12
2 22 8 22 13 0 5 2 9 5 9 2 0 3 -58 2 -130z m608 120 c-3 -5 -1 -10 4 -10 14
0 15 -246 1 -255 -20 -12 -46 7 -95 69 l-50 63 -5 -66 c-4 -54 -8 -66 -24 -69
-30 -6 -36 17 -35 141 1 116 1 117 25 117 17 0 34 -14 60 -49 45 -60 74 -60
74 -1 0 28 6 42 23 53 26 19 30 20 22 7z m709 1 c-2 -2 1 -10 7 -18 9 -10 8
-18 -6 -33 -9 -10 -14 -24 -9 -31 4 -8 3 -10 -4 -5 -7 4 -12 3 -12 -3 0 -5 3
-11 8 -14 4 -2 2 -2 -5 -1 -18 4 -53 -59 -53 -95 0 -18 -5 -41 -10 -52 -23
-42 -60 -10 -60 52 0 41 -39 107 -52 87 -6 -9 -7 -6 -3 9 3 12 1 24 -5 28 -20
12 -41 63 -28 71 7 4 8 3 4 -4 -5 -8 2 -10 22 -6 27 5 33 1 61 -40 18 -25 34
-46 36 -46 6 0 70 94 68 100 -1 3 9 5 22 5 13 0 21 -2 19 -4z m856 -1 c0 -5
-5 -10 -11 -10 -5 0 -7 5 -4 10 3 6 8 10 11 10 2 0 4 -4 4 -10z m157 4 c-3 -3
-12 -4 -19 -1 -8 3 -5 6 6 6 11 1 17 -2 13 -5z m170 -8 c-7 -17 16 -39 28 -28
5 4 5 2 1 -5 -4 -7 5 -35 19 -64 26 -50 27 -51 41 -30 8 12 12 26 8 33 -5 7
-3 8 6 3 10 -6 12 -4 7 9 -4 9 -3 15 2 12 5 -3 19 10 30 30 17 29 26 35 49 32
l27 -3 3 -123 c2 -107 0 -123 -14 -129 -29 -11 -49 11 -54 63 -5 48 -5 48 -18
21 -7 -16 -9 -33 -6 -39 4 -6 2 -8 -4 -4 -6 3 -13 2 -17 -4 -14 -22 -53 -10
-74 23 l-21 32 -1 -35 c-1 -19 -2 -40 -2 -45 0 -9 -27 -12 -60 -6 -4 0 -6 56
-5 124 3 118 4 122 26 125 12 2 22 8 22 13 0 5 3 9 6 9 3 0 4 -6 1 -14z
m-3659 -9 c12 -14 21 -248 10 -240 -5 2 -8 -1 -8 -6 0 -20 -36 -11 -60 14 -12
13 -27 22 -31 19 -5 -3 -7 1 -4 8 2 7 -9 29 -26 48 l-30 35 3 -68 3 -67 -33 0
-33 0 3 127 c4 160 11 165 95 62 l58 -73 3 65 c1 35 4 70 7 77 6 16 30 16 43
-1z m898 1 c119 5 135 0 132 -41 -2 -31 -3 -32 -40 -29 l-38 4 -1 -108 c0 -60
-3 -102 -7 -94 -4 8 -16 15 -27 15 -18 0 -20 8 -25 95 -5 94 -5 95 -30 92 -34
-3 -46 7 -53 48 -3 19 -4 31 -1 25 2 -6 39 -9 90 -7z m500 3 c-3 -5 5 -12 18
-15 14 -3 34 -19 46 -36 22 -31 45 -134 27 -123 -6 4 -8 -3 -4 -16 3 -13 3
-20 0 -17 -3 3 -22 -8 -41 -25 -32 -28 -39 -30 -91 -25 -75 7 -81 8 -76 17 3
3 -2 13 -11 20 -48 39 -53 112 -13 163 26 33 54 48 104 57 22 3 41 7 43 8 2 0
1 -3 -2 -8z m-2238 -7 c18 -5 22 -13 20 -33 -3 -22 -9 -26 -39 -29 -44 -4 -49
-15 -49 -114 0 -44 4 -68 13 -71 6 -2 -6 -4 -28 -3 l-40 1 -3 93 -3 92 -32 0
c-31 0 -57 14 -57 31 0 4 7 15 16 23 11 12 36 16 97 16 45 0 92 -3 105 -6z
m243 -10 c39 -19 59 -65 49 -110 -4 -18 -5 -37 -1 -41 3 -4 2 -5 -3 -1 -5 4
-15 3 -22 -3 -10 -8 -9 -17 7 -42 26 -43 24 -47 -16 -47 -19 0 -35 5 -35 11 0
5 -4 8 -9 4 -5 -3 -13 0 -17 6 -4 8 -3 9 4 5 16 -10 15 5 -2 27 -7 9 -23 17
-34 17 -16 0 -21 -7 -24 -32 -2 -27 -8 -34 -29 -36 -25 -3 -27 0 -33 45 -7 54
-2 186 9 202 10 17 122 13 156 -5z m835 4 l32 -11 -15 -33 c-11 -23 -22 -31
-38 -30 -13 0 -21 4 -18 9 2 4 -10 7 -26 7 -17 0 -31 -4 -31 -9 0 -13 67 -34
80 -26 6 4 9 1 8 -7 -2 -7 3 -12 10 -10 6 1 11 -1 10 -5 -1 -5 3 -18 10 -30
15 -27 2 -65 -30 -87 -36 -25 -111 -21 -145 8 -28 24 -28 25 -8 40 23 17 65
21 65 6 0 -5 14 -10 30 -10 46 0 38 27 -9 35 -44 7 -91 45 -91 72 1 77 76 114
166 81z m361 -9 c34 -16 44 -27 49 -54 3 -18 3 -43 -1 -55 -6 -17 -4 -21 6
-15 8 5 11 4 6 -1 -5 -5 -12 -9 -15 -10 -4 0 -24 -8 -44 -17 -21 -10 -53 -17
-73 -17 -32 0 -35 -2 -26 -19 15 -28 -10 -44 -69 -45 -55 -1 -84 19 -106 71
-20 47 -17 86 10 126 13 19 21 39 18 43 -4 4 -1 4 5 0 7 -4 21 -2 30 3 33 19
162 13 210 -10z m148 -109 c0 -122 -1 -125 -22 -128 -14 -2 -23 2 -23 10 0 7
-2 58 -3 113 -3 107 4 138 31 133 15 -3 17 -19 17 -128z m1413 119 c26 -9 31
-15 29 -39 -1 -16 -4 -26 -6 -24 -2 2 -10 -1 -18 -8 -10 -8 -17 -8 -25 0 -14
14 -68 16 -68 4 0 -13 81 -43 94 -35 6 3 8 2 3 -2 -4 -5 0 -16 9 -26 23 -26
15 -101 -11 -107 -61 -13 -96 -13 -126 2 -17 9 -35 13 -40 11 -4 -3 -4 8 1 24
4 16 7 31 5 33 -2 2 7 5 19 6 13 1 29 -5 36 -13 14 -17 56 -20 65 -5 3 6 -2
13 -12 16 -10 3 -34 13 -53 22 -19 8 -38 15 -41 14 -3 0 -6 4 -7 11 -1 7 -4
24 -8 39 -5 22 0 33 24 58 33 33 74 39 130 19z m546 0 c-2 -4 3 -9 11 -13 19
-7 19 -16 -4 -45 -17 -23 -19 -23 -50 -6 -32 16 -61 15 -61 -3 0 -5 18 -15 40
-22 85 -28 113 -85 64 -131 -21 -20 -36 -24 -89 -25 -35 0 -62 3 -59 7 2 4 -4
10 -15 14 -17 5 -18 10 -9 35 8 24 16 30 39 30 23 0 29 -5 29 -21 0 -15 5 -20
22 -17 13 2 24 11 26 20 2 12 -8 20 -40 30 -24 7 -50 12 -58 11 -20 -2 -25 70
-7 101 6 12 10 25 9 29 -1 5 1 6 5 4 5 -2 17 -1 28 4 23 9 125 7 119 -2z m245
-4 c16 -8 32 -11 37 -7 4 4 -2 -9 -14 -28 -14 -23 -28 -34 -39 -32 -65 13 -83
13 -83 3 0 -5 19 -15 41 -21 45 -12 89 -50 89 -75 0 -27 -29 -73 -50 -80 -21
-7 -131 -3 -124 4 2 2 -4 9 -13 16 -14 11 -15 16 -4 44 16 37 16 37 48 11 29
-23 73 -27 73 -6 0 8 -16 16 -39 20 -48 7 -94 44 -96 77 -2 16 9 35 33 57 39
36 92 43 141 17z m305 9 c19 -7 21 -37 4 -52 -7 -6 -26 -12 -43 -14 l-30 -3
-5 -90 c-5 -89 -5 -90 -32 -93 -22 -3 -29 2 -34 23 -4 18 -12 25 -23 22 -16
-4 -41 14 -41 31 0 4 -10 19 -22 32 -15 16 -18 25 -10 28 7 2 12 15 12 28 0
13 5 24 11 24 5 0 7 -4 4 -10 -3 -5 -1 -10 4 -10 14 0 14 17 1 25 -14 9 -12
52 3 58 18 8 182 8 201 1z m264 -31 l3 -33 -65 0 c-51 0 -66 -3 -66 -14 0 -11
15 -16 53 -18 51 -3 52 -4 55 -35 l3 -33 -55 0 c-43 0 -56 -3 -56 -15 0 -12
14 -15 64 -15 68 0 81 -9 64 -43 -8 -16 -22 -18 -101 -16 l-92 1 3 117 c4 141
5 143 112 139 l75 -3 3 -32z m183 -6 c-10 -9 -11 -8 -5 6 3 10 9 15 12 12 3
-3 0 -11 -7 -18z m-1278 -117 c-3 -12 -8 -19 -11 -16 -5 6 5 36 12 36 2 0 2
-9 -1 -20z m-3406 -72 c-2 -13 -4 -5 -4 17 -1 22 1 32 4 23 2 -10 2 -28 0 -40z
m1667 -3 c3 -8 1 -15 -4 -15 -6 0 -10 7 -10 15 0 8 2 15 4 15 2 0 6 -7 10 -15z
m2306 5 c0 -5 -5 -10 -11 -10 -5 0 -7 5 -4 10 3 6 8 10 11 10 2 0 4 -4 4 -10z
m790 -20 c0 -5 -5 -10 -11 -10 -5 0 -7 5 -4 10 3 6 8 10 11 10 2 0 4 -4 4 -10z
m-4723 -26 c-3 -3 -12 -4 -19 -1 -8 3 -5 6 6 6 11 1 17 -2 13 -5z m366 -1 c-7
-2 -19 -2 -25 0 -7 3 -2 5 12 5 14 0 19 -2 13 -5z m160 0 c-7 -2 -19 -2 -25 0
-7 3 -2 5 12 5 14 0 19 -2 13 -5z m3554 1 c-3 -3 -12 -4 -19 -1 -8 3 -5 6 6 6
11 1 17 -2 13 -5z m366 -1 c-7 -2 -19 -2 -25 0 -7 3 -2 5 12 5 14 0 19 -2 13
-5z m-3513 -13 c0 -5 -2 -10 -4 -10 -3 0 -8 5 -11 10 -3 6 -1 10 4 10 6 0 11
-4 11 -10z m2908 3 c-10 -2 -26 -2 -35 0 -10 3 -2 5 17 5 19 0 27 -2 18 -5z
m-6348 -1373 c0 -29 -4 -40 -15 -40 -11 0 -15 11 -15 40 0 29 4 40 15 40 11 0
15 -11 15 -40z"/>
<path d="M4296 8424 c-5 -12 -2 -15 10 -10 8 3 18 6 20 6 3 0 2 5 -1 10 -9 15
-22 12 -29 -6z"/>
<path d="M5690 8430 c0 -5 5 -10 10 -10 6 0 10 5 10 10 0 6 -4 10 -10 10 -5 0
-10 -4 -10 -10z"/>
<path d="M5032 7448 c-1 -120 1 -218 6 -218 4 0 6 73 4 162 -4 266 -8 287 -10
56z"/>
<path d="M5090 7610 c0 -5 4 -10 9 -10 6 0 13 5 16 10 3 6 -1 10 -9 10 -9 0
-16 -4 -16 -10z"/>
<path d="M6145 7070 c-3 -5 1 -10 10 -10 9 0 13 5 10 10 -3 6 -8 10 -10 10 -2
0 -7 -4 -10 -10z"/>
<path d="M5033 6610 c0 -30 2 -43 4 -27 2 15 2 39 0 55 -2 15 -4 2 -4 -28z"/>
<path d="M5160 6650 c0 -5 4 -10 9 -10 6 0 13 5 16 10 3 6 -1 10 -9 10 -9 0
-16 -4 -16 -10z"/>
<path d="M5034 6215 c0 -49 1 -71 3 -48 2 23 2 64 0 90 -2 26 -3 8 -3 -42z"/>
<path d="M3003 6215 c0 -8 4 -12 9 -9 5 3 6 10 3 15 -9 13 -12 11 -12 -6z"/>
<path d="M3275 4830 c-3 -5 -2 -10 4 -10 5 0 13 5 16 10 3 6 2 10 -4 10 -5 0
-13 -4 -16 -10z"/>
<path d="M3310 4814 c-10 -11 -10 -14 1 -14 8 0 20 4 27 9 11 7 11 9 -1 14 -9
3 -21 -1 -27 -9z"/>
<path d="M5996 4314 c-5 -14 -4 -15 9 -4 17 14 19 20 6 20 -5 0 -12 -7 -15
-16z"/>
<path d="M4314 4163 c10 -10 46 -11 40 -1 -3 4 -15 8 -26 8 -12 0 -18 -3 -14
-7z"/>
<path d="M7821 3244 c0 -11 3 -14 6 -6 3 7 2 16 -1 19 -3 4 -6 -2 -5 -13z"/>
<path d="M7796 3165 c-11 -8 -15 -15 -9 -15 6 0 16 7 23 15 16 19 11 19 -14 0z"/>
<path d="M7748 3143 c7 -3 16 -2 19 1 4 3 -2 6 -13 5 -11 0 -14 -3 -6 -6z"/>
<path d="M3770 2995 l0 -116 143 6 c174 8 178 8 210 41 21 21 27 36 27 71 0
38 -5 50 -34 79 l-34 34 -156 0 -156 0 0 -115z m17 -97 c-3 -8 -6 -5 -6 6 -1
11 2 17 5 13 3 -3 4 -12 1 -19z"/>
<path d="M4898 2613 c18 -2 45 -2 60 0 15 2 0 4 -33 4 -33 0 -45 -2 -27 -4z"/>
<path d="M7080 3035 c-13 -31 -23 -71 -23 -87 0 -16 -3 -24 -7 -18 -4 6 -21
-25 -37 -69 l-31 -81 119 0 c65 0 119 3 119 7 0 6 -67 182 -109 287 -6 16 -12
9 -31 -39z"/>
<path d="M4915 1962 c-35 -7 -55 -33 -55 -72 0 -41 19 -65 62 -75 50 -13 93
54 72 110 -8 21 -54 43 -79 37z m65 -32 c0 -5 -2 -10 -4 -10 -3 0 -8 5 -11 10
-3 6 -1 10 4 10 6 0 11 -4 11 -10z"/>
<path d="M2900 1951 c-18 -4 -26 -14 -28 -33 -2 -25 1 -28 27 -28 42 0 61 9
61 31 0 23 -28 37 -60 30z"/>
<path d="M3967 1948 c-10 -7 -20 -30 -23 -50 -5 -31 -2 -41 20 -63 26 -26 52
-26 42 0 -10 27 18 44 78 47 66 3 90 23 70 56 -14 22 -159 30 -187 10z"/>
<path d="M6655 1943 c11 -3 23 -10 27 -17 5 -7 8 -5 8 7 0 12 -7 17 -27 16
-22 -1 -23 -2 -8 -6z"/>
<path d="M6620 1870 c0 -5 5 -10 10 -10 6 0 10 5 10 10 0 6 -4 10 -10 10 -5 0
-10 -4 -10 -10z"/>
<path d="M40 9940 c0 -53 2 -60 20 -60 18 0 20 7 20 60 0 53 -2 60 -20 60 -18
0 -20 -7 -20 -60z"/>
</g>
</svg>
