<svg id="svg" version="1.1" xmlns="http://www.w3.org/2000/svg" xmlns:xlink="http://www.w3.org/1999/xlink" width="400" height="225.4364089775561" viewBox="0, 0, 400,225.4364089775561"><g id="svgg"><path id="path0" d="M146.846 71.037 C 146.928 98.596,146.843 96.923,148.397 101.691 C 150.807 109.085,156.622 116.618,162.940 120.531 C 169.488 124.586,172.180 125.746,177.571 126.838 C 180.518 127.434,185.841 127.628,186.697 127.170 C 186.929 127.046,187.912 126.837,188.881 126.706 C 190.549 126.481,194.225 125.350,197.188 124.150 C 199.181 123.344,202.379 121.523,203.946 120.303 C 204.442 119.916,205.152 119.408,205.524 119.174 C 210.765 115.869,216.924 106.193,219.093 97.858 L 219.709 95.490 219.719 77.005 C 219.725 66.838,219.672 58.948,219.602 59.470 C 219.414 60.873,218.719 61.126,218.711 59.795 C 218.705 58.765,218.392 58.477,217.600 58.776 C 216.217 59.298,215.835 58.908,215.752 56.891 C 215.705 55.735,215.696 55.722,215.068 55.848 C 214.264 56.008,213.754 55.598,213.754 54.791 C 213.754 54.450,213.602 54.044,213.416 53.890 C 213.124 53.647,213.078 53.749,213.078 54.638 C 213.078 57.198,212.635 55.717,212.570 52.940 C 212.531 51.292,212.478 59.547,212.451 71.285 C 212.404 91.473,212.377 92.770,211.950 95.266 C 209.165 111.558,195.002 121.765,178.467 119.398 C 168.778 118.011,161.914 112.986,157.398 103.974 C 154.097 97.387,154.006 96.731,153.986 79.513 C 153.977 71.485,153.888 65.694,153.777 65.953 C 153.670 66.201,153.576 67.044,153.567 67.826 C 153.557 68.713,153.466 69.196,153.326 69.109 C 153.202 69.033,153.100 68.525,153.100 67.982 C 153.100 67.439,152.993 66.928,152.862 66.846 C 152.725 66.762,152.684 66.420,152.767 66.044 C 152.852 65.658,152.817 65.389,152.683 65.389 C 152.558 65.389,152.423 65.163,152.383 64.886 C 152.318 64.432,152.123 64.361,150.362 64.152 C 147.150 63.770,147.223 64.010,147.164 53.738 C 147.141 49.748,147.044 46.405,146.947 46.308 C 146.851 46.212,146.805 57.340,146.846 71.037 M231.647 51.514 C 230.341 52.429,230.385 51.626,230.408 73.934 C 230.437 102.417,230.483 103.028,232.610 103.730 C 233.594 104.054,234.907 103.466,235.400 102.480 C 235.858 101.564,235.898 54.606,235.442 53.056 C 234.954 51.396,232.968 50.589,231.647 51.514 M131.565 52.185 C 131.061 52.720,130.792 53.264,130.701 53.933 C 130.117 58.248,130.459 101.097,131.088 102.313 C 131.841 103.769,133.800 104.202,134.993 103.176 L 135.626 102.632 135.738 83.391 C 135.800 72.808,135.800 61.593,135.738 58.470 L 135.626 52.791 134.963 52.100 C 133.980 51.074,132.580 51.109,131.565 52.185 M163.701 84.166 C 163.706 93.382,164.484 96.183,168.337 100.868 C 176.547 110.850,193.642 109.264,199.088 98.014 C 201.290 93.466,201.708 91.317,201.909 83.531 C 202.071 77.279,202.185 77.678,200.472 78.527 C 199.740 78.890,198.344 79.355,197.372 79.560 L 195.603 79.933 195.472 85.119 C 195.341 90.308,195.160 91.554,194.301 93.158 C 189.768 101.622,179.844 103.347,173.324 96.805 C 170.524 93.995,169.792 91.486,169.784 84.667 C 169.778 79.620,169.951 80.024,167.412 79.131 C 166.299 78.740,165.284 78.335,165.156 78.231 C 165.028 78.127,164.648 77.937,164.311 77.809 L 163.698 77.576 163.701 84.166 M240.563 131.515 C 238.896 132.629,238.593 134.811,239.758 137.317 C 240.075 137.999,240.963 139.977,241.731 141.714 C 242.499 143.450,244.086 146.849,245.258 149.267 C 246.430 151.685,247.728 154.425,248.142 155.355 C 251.265 162.369,253.179 166.551,254.602 169.469 C 256.555 173.472,256.556 173.474,257.861 176.663 C 260.480 183.062,261.458 184.092,263.037 182.114 C 263.702 181.280,268.734 171.560,270.245 168.189 C 271.182 166.100,272.485 163.412,279.203 149.718 C 286.847 134.137,287.212 132.816,284.280 131.383 C 281.927 130.233,279.782 131.879,277.414 136.654 C 275.862 139.784,274.408 142.864,274.408 143.023 C 274.408 143.081,273.964 144.078,273.422 145.239 C 271.588 149.165,270.983 150.504,270.552 151.589 C 269.997 152.986,268.384 156.541,266.716 160.044 C 265.990 161.569,264.988 164.004,264.490 165.455 C 262.913 170.053,262.108 170.293,260.675 166.593 C 260.275 165.559,259.349 163.393,258.619 161.781 C 257.888 160.169,256.995 158.140,256.633 157.272 C 255.949 155.629,254.486 152.306,253.507 150.169 C 253.195 149.487,252.749 148.448,252.517 147.861 C 252.285 147.274,251.750 146.056,251.328 145.155 C 250.218 142.782,249.004 139.980,248.860 139.459 C 247.020 132.791,243.582 129.499,240.563 131.515 M324.996 131.453 C 324.093 131.817,321.275 136.945,318.985 142.390 C 318.246 144.148,317.121 146.576,315.172 150.620 C 314.305 152.418,312.953 155.325,312.166 157.079 C 311.380 158.834,309.826 162.086,308.715 164.307 C 306.711 168.310,305.489 170.982,302.839 177.158 C 300.655 182.247,300.873 183.104,304.393 183.273 C 307.322 183.413,307.379 183.356,309.863 177.903 C 314.205 168.371,314.469 167.833,314.896 167.670 C 315.879 167.292,336.288 167.516,336.579 167.907 C 336.731 168.113,337.460 169.811,338.199 171.682 C 340.485 177.475,342.756 182.249,343.462 182.743 C 344.239 183.287,347.236 183.220,347.972 182.641 C 349.232 181.650,348.612 178.904,345.550 171.928 C 345.333 171.432,344.913 170.443,344.618 169.729 C 344.323 169.016,343.832 167.849,343.527 167.136 C 343.222 166.423,342.679 165.130,342.320 164.262 C 341.961 163.393,341.151 161.466,340.521 159.977 C 335.878 149.016,332.901 141.739,331.294 137.430 C 329.129 131.621,327.771 130.333,324.996 131.453 M197.069 131.696 C 189.566 131.781,179.520 131.796,174.744 131.730 C 165.213 131.597,164.842 131.635,163.531 132.876 C 162.168 134.166,162.510 136.582,164.177 137.444 C 165.281 138.015,218.493 137.910,219.761 137.334 C 222.063 136.288,221.506 132.389,218.953 131.680 C 218.512 131.557,216.477 131.476,214.431 131.499 C 212.384 131.522,204.572 131.610,197.069 131.696 M326.211 144.589 C 326.333 144.744,327.272 146.900,328.295 149.380 C 329.319 151.860,330.822 155.349,331.636 157.132 C 333.046 160.225,333.095 160.389,332.692 160.683 C 332.253 161.004,319.530 161.161,318.733 160.855 C 318.144 160.629,318.275 160.245,320.939 154.361 C 322.348 151.250,323.939 147.714,324.474 146.505 C 325.421 144.368,325.749 144.005,326.211 144.589 M166.178 155.062 C 163.846 155.927,163.485 160.092,165.689 160.711 C 167.370 161.182,208.513 160.896,209.172 160.408 C 210.639 159.322,210.636 156.654,209.166 155.550 L 208.455 155.017 187.486 154.977 C 175.953 154.954,166.364 154.993,166.178 155.062 M285.947 171.048 C 281.365 173.332,281.709 181.159,286.452 182.531 C 290.653 183.747,294.101 181.206,294.110 176.888 C 294.120 172.045,289.944 169.057,285.947 171.048 M223.298 171.609 C 216.452 172.897,217.083 182.900,224.014 182.964 C 227.412 182.995,230.223 180.475,230.270 177.355 C 230.302 175.213,227.962 171.985,226.171 171.700 C 224.618 171.453,224.198 171.439,223.298 171.609 M357.646 173.167 C 354.912 173.813,353.857 178.444,355.943 180.640 C 359.614 184.504,365.155 181.203,363.607 176.074 C 362.814 173.448,360.738 172.436,357.646 173.167 M237.254 176.126 C 234.883 177.300,234.533 180.257,236.581 181.819 C 238.752 183.475,241.488 181.786,241.488 178.790 C 241.488 176.280,239.488 175.021,237.254 176.126 M249.025 176.091 C 246.881 177.181,246.748 180.287,248.781 181.837 C 250.255 182.962,252.110 182.345,253.157 180.383 C 254.673 177.542,251.880 174.640,249.025 176.091 M271.309 176.232 C 269.735 177.035,269.056 179.444,270.032 180.761 C 271.431 182.650,273.557 182.990,275.055 181.565 C 277.802 178.951,274.683 174.510,271.309 176.232 M182.515 178.354 C 175.422 178.452,174.314 178.515,173.812 178.844 C 172.470 179.724,172.400 181.859,173.688 182.653 C 174.620 183.228,212.201 183.078,213.351 182.494 C 214.878 181.720,214.537 179.033,212.833 178.412 C 212.037 178.121,200.816 178.100,182.515 178.354 " stroke="none" fill="#cebe50" fill-rule="evenodd"></path><path id="path1" d="M179.256 15.426 C 176.560 16.063,173.619 17.622,173.619 18.414 C 173.619 18.842,192.584 18.754,192.726 18.326 C 193.315 16.560,183.443 14.435,179.256 15.426 M169.690 21.925 C 167.915 23.954,167.215 23.859,183.689 23.820 C 199.266 23.784,198.339 23.923,196.447 21.907 L 195.355 20.744 183.039 20.744 L 170.723 20.744 169.690 21.925 M167.507 26.377 C 166.963 26.847,166.565 28.400,166.889 28.790 C 167.147 29.101,198.171 29.255,198.967 28.950 C 199.462 28.760,199.437 27.240,198.929 26.646 C 198.393 26.018,168.221 25.760,167.507 26.377 M166.798 31.584 C 166.306 31.872,166.240 33.856,166.710 34.247 C 166.933 34.432,171.438 34.486,183.221 34.443 L 199.425 34.386 199.641 33.772 C 199.777 33.387,199.779 32.840,199.647 32.306 L 199.436 31.454 183.315 31.404 C 172.642 31.371,167.059 31.432,166.798 31.584 M166.674 37.024 C 166.098 37.600,166.338 39.445,167.024 39.707 C 168.107 40.122,199.285 39.884,199.554 39.459 C 199.839 39.008,199.832 37.732,199.541 37.189 C 199.252 36.650,167.210 36.488,166.674 37.024 M166.555 42.539 C 166.328 42.766,166.379 44.483,166.625 44.870 C 166.894 45.295,198.761 45.239,199.278 44.813 C 199.461 44.662,199.546 44.185,199.504 43.537 L 199.436 42.503 183.072 42.445 C 174.071 42.413,166.639 42.455,166.555 42.539 M147.678 43.642 L 147.125 44.231 147.169 52.711 C 147.228 64.185,147.111 63.766,150.362 64.152 C 152.123 64.361,152.318 64.432,152.383 64.886 C 152.423 65.163,152.558 65.389,152.683 65.389 C 152.817 65.389,152.852 65.658,152.767 66.044 C 152.684 66.420,152.725 66.762,152.862 66.846 C 152.993 66.928,153.100 67.439,153.100 67.982 C 153.100 69.623,153.504 69.340,153.662 67.589 C 153.892 65.037,154.037 45.466,153.835 44.258 L 153.654 43.179 150.943 43.116 C 148.274 43.054,148.222 43.063,147.678 43.642 M212.512 43.976 C 212.287 44.683,212.638 55.939,212.880 55.789 C 212.989 55.722,213.078 55.204,213.078 54.638 C 213.078 53.749,213.124 53.647,213.416 53.890 C 213.602 54.044,213.754 54.450,213.754 54.791 C 213.754 55.598,214.264 56.008,215.068 55.848 C 215.696 55.722,215.705 55.735,215.752 56.891 C 215.835 58.901,216.218 59.298,217.581 58.783 C 218.379 58.482,218.519 58.593,218.694 59.675 C 218.845 60.599,219.241 60.886,219.514 60.269 C 219.827 59.562,219.919 47.565,219.622 46.136 C 219.151 43.867,218.794 43.644,215.487 43.551 C 212.740 43.474,212.668 43.485,212.512 43.976 M166.758 48.156 C 166.236 48.677,166.290 50.205,166.840 50.499 C 167.318 50.756,190.738 50.785,196.280 50.536 L 199.436 50.395 199.508 49.388 C 199.562 48.630,199.482 48.310,199.183 48.092 C 198.525 47.610,167.241 47.672,166.758 48.156 M166.685 53.470 C 166.299 53.859,166.326 55.574,166.723 55.903 C 167.201 56.300,199.004 55.966,199.340 55.561 C 199.471 55.403,199.546 54.886,199.507 54.413 L 199.436 53.551 196.956 53.435 C 190.991 53.154,166.971 53.182,166.685 53.470 M166.637 59.286 C 166.374 59.777,166.336 60.442,166.540 60.974 C 166.721 61.443,198.586 61.527,199.053 61.060 C 199.202 60.911,199.324 60.419,199.324 59.966 L 199.324 59.142 197.463 58.998 C 192.307 58.596,166.879 58.834,166.637 59.286 M166.911 64.411 C 166.582 64.544,166.540 65.801,166.848 66.288 C 167.064 66.630,196.228 66.703,198.152 66.366 C 198.851 66.244,198.892 66.186,198.828 65.418 L 198.760 64.600 191.995 64.463 C 183.563 64.292,167.289 64.258,166.911 64.411 M167.136 70.035 C 166.595 70.278,166.795 71.691,167.403 71.922 C 168.063 72.173,192.122 71.798,195.926 71.478 C 200.080 71.128,200.053 70.286,195.884 70.214 C 186.185 70.048,167.368 69.931,167.136 70.035 M170.028 76.756 C 169.622 77.245,169.989 77.331,172.406 77.316 C 177.710 77.281,179.146 77.215,179.204 77.001 C 179.347 76.466,170.465 76.228,170.028 76.756 M94.363 113.191 C 42.631 113.290,34.262 113.351,33.484 113.634 C 26.184 116.290,22.899 121.606,24.771 127.734 C 26.132 132.188,29.099 141.244,29.462 142.052 C 30.250 143.804,30.412 144.258,30.792 145.772 C 31.009 146.640,31.273 147.447,31.377 147.565 C 31.482 147.683,31.567 148.101,31.567 148.496 C 31.567 148.890,31.719 149.338,31.905 149.493 C 32.091 149.647,32.246 149.888,32.249 150.028 C 32.251 150.167,32.452 150.536,32.694 150.846 C 32.937 151.156,33.138 151.638,33.140 151.917 C 33.143 152.196,33.247 152.424,33.371 152.424 C 33.495 152.424,33.596 152.884,33.596 153.446 C 33.596 154.009,33.757 154.715,33.954 155.015 C 34.157 155.325,34.236 155.687,34.136 155.853 C 34.021 156.044,34.112 156.028,34.399 155.806 C 35.060 155.295,35.168 155.069,35.025 154.499 C 34.939 154.155,35.046 153.809,35.339 153.482 C 35.584 153.210,35.847 152.810,35.923 152.593 C 36.042 152.257,36.362 152.198,38.086 152.198 C 39.280 152.198,40.170 152.100,40.258 151.957 C 40.475 151.606,42.230 151.948,42.499 152.394 C 42.678 152.692,42.743 152.611,42.837 151.973 C 42.952 151.198,42.976 151.182,44.194 151.071 C 45.347 150.966,45.439 150.915,45.505 150.338 L 45.577 149.718 47.914 149.718 L 50.252 149.718 50.323 150.338 L 50.395 150.958 57.554 151.018 L 64.713 151.077 64.713 150.532 C 64.713 149.940,65.416 149.940,66.009 150.532 C 66.439 150.961,66.354 151.071,65.596 151.071 C 64.830 151.071,64.769 151.584,65.520 151.703 C 65.906 151.764,67.299 152.348,68.373 152.900 C 69.035 153.239,70.714 153.138,71.045 152.739 C 71.211 152.540,71.578 152.289,71.862 152.181 C 72.221 152.044,72.384 151.793,72.397 151.358 L 72.415 150.733 72.725 151.409 C 73.009 152.029,73.039 151.839,73.085 149.154 C 73.112 147.542,73.147 145.665,73.162 144.983 C 73.301 138.902,73.303 137.038,73.171 136.906 C 73.087 136.822,68.931 136.789,63.935 136.833 L 54.853 136.913 54.348 136.382 C 53.722 135.723,53.788 132.587,54.442 131.933 C 54.954 131.421,96.645 131.366,97.260 131.877 C 97.711 132.251,97.785 134.933,97.368 135.846 C 97.002 136.649,97.184 136.633,87.373 136.733 C 82.537 136.782,78.538 136.832,78.487 136.844 C 78.062 136.944,78.718 150.517,79.180 151.191 C 79.924 152.277,84.329 152.645,84.329 151.621 C 84.329 151.345,85.424 151.297,91.630 151.297 C 97.844 151.297,98.972 151.246,99.211 150.958 C 99.449 150.671,100.553 150.620,106.567 150.620 L 113.641 150.620 113.641 149.731 C 113.641 148.528,113.450 148.569,119.065 148.572 L 124.046 148.575 123.984 147.399 C 123.892 145.675,124.531 145.733,124.693 147.463 C 124.774 148.333,124.860 147.626,124.981 145.096 C 125.551 133.168,125.624 132.260,126.049 131.816 C 126.702 131.135,144.897 131.255,147.238 131.955 C 152.005 133.382,157.835 138.997,157.835 142.161 C 157.835 142.359,158.032 142.907,158.273 143.378 C 158.514 143.850,158.835 145.140,158.987 146.244 C 159.263 148.242,159.696 149.247,160.287 149.260 C 160.536 149.266,160.542 149.333,160.316 149.605 C 160.087 149.881,160.099 149.944,160.377 149.944 C 160.822 149.944,161.028 149.393,160.704 149.069 C 160.517 148.882,160.522 148.816,160.722 148.816 C 160.870 148.816,160.992 148.709,160.992 148.577 C 160.992 148.446,160.891 148.401,160.767 148.478 C 160.643 148.555,160.541 148.523,160.541 148.407 C 160.541 148.119,161.712 148.134,162.073 148.426 C 162.278 148.592,162.442 148.584,162.625 148.401 C 162.955 148.071,167.531 148.038,167.531 148.365 C 167.531 148.666,171.488 148.661,172.051 148.360 C 172.306 148.223,174.418 148.129,177.222 148.130 L 181.962 148.130 181.962 147.344 L 181.962 146.557 192.954 146.616 L 203.946 146.674 204.016 147.401 L 204.086 148.127 206.104 148.108 C 207.340 148.096,208.245 148.191,208.440 148.352 C 208.636 148.515,210.136 148.667,212.366 148.750 C 215.637 148.872,215.985 148.924,216.084 149.306 C 216.262 149.984,225.817 149.836,225.817 149.154 C 225.817 148.768,225.629 148.687,224.509 148.591 C 222.422 148.411,223.179 147.781,225.724 147.581 C 227.629 147.431,227.666 147.438,228.040 148.010 L 228.421 148.591 231.819 148.591 C 235.027 148.591,235.224 148.616,235.335 149.042 C 235.452 149.488,235.993 149.544,239.628 149.490 C 239.721 149.489,239.804 149.362,239.813 149.208 C 239.871 148.152,240.205 147.053,240.440 147.143 C 240.700 147.243,241.488 148.829,241.488 149.254 C 241.488 149.368,241.691 149.520,241.939 149.590 C 242.187 149.661,242.593 149.776,242.841 149.846 C 243.470 150.025,243.469 148.350,242.839 147.176 C 242.590 146.711,242.340 145.963,242.282 145.513 C 242.224 145.063,242.125 144.642,242.060 144.578 C 241.996 144.514,242.041 144.343,242.160 144.199 C 242.304 144.025,242.228 143.660,241.933 143.108 C 241.688 142.652,241.488 142.070,241.488 141.814 C 241.488 141.507,241.392 141.403,241.206 141.508 C 240.989 141.631,240.985 141.601,241.189 141.381 C 241.489 141.056,241.117 139.946,240.779 140.156 C 240.673 140.221,240.586 139.975,240.586 139.609 C 240.586 139.212,240.443 138.889,240.232 138.808 C 240.005 138.721,239.927 138.519,240.015 138.244 C 240.094 137.994,240.001 137.666,239.793 137.457 C 238.468 136.133,238.925 132.609,240.563 131.515 C 243.120 129.807,245.694 131.453,247.459 135.927 C 247.981 137.249,248.576 138.656,248.781 139.053 C 248.986 139.450,249.154 139.975,249.154 140.220 C 249.154 140.464,249.400 140.956,249.700 141.313 C 250.289 142.012,251.528 144.574,251.772 145.595 C 252.059 146.798,253.286 148.577,253.833 148.584 C 254.272 148.590,254.340 148.710,254.340 149.476 C 254.340 150.174,254.472 150.465,254.961 150.847 C 255.302 151.114,255.701 151.654,255.848 152.047 C 256.096 152.711,256.126 152.727,256.264 152.272 C 256.397 151.837,256.598 151.773,258.055 151.708 C 259.397 151.648,259.673 151.693,259.573 151.954 C 259.493 152.162,259.545 152.214,259.723 152.104 C 259.873 152.011,259.938 151.754,259.868 151.532 C 259.753 151.171,259.974 151.113,262.057 150.967 C 263.332 150.877,264.501 150.699,264.656 150.571 C 264.861 150.403,264.938 150.439,264.938 150.705 C 264.938 151.001,265.190 151.071,266.248 151.071 C 267.982 151.071,268.402 150.754,268.285 149.532 C 268.216 148.806,268.274 148.586,268.540 148.568 C 268.729 148.556,268.630 148.465,268.320 148.365 C 267.863 148.219,267.961 148.181,268.841 148.162 C 269.501 148.149,269.871 148.052,269.786 147.914 C 269.709 147.790,269.842 147.689,270.080 147.689 C 270.610 147.689,271.702 146.864,271.702 146.463 C 271.702 146.302,271.906 145.912,272.155 145.595 C 272.404 145.279,272.671 144.707,272.747 144.325 C 272.842 143.851,273.018 143.630,273.301 143.630 C 273.757 143.630,274.284 142.849,274.066 142.496 C 273.833 142.120,274.164 141.456,274.708 141.209 C 275.038 141.058,275.329 140.620,275.514 139.991 C 275.674 139.450,276.030 138.703,276.305 138.331 C 276.579 137.959,277.167 136.894,277.611 135.964 C 278.796 133.477,280.906 131.330,282.364 131.125 C 285.431 130.694,286.879 133.843,285.167 137.221 C 284.851 137.845,284.520 138.739,284.432 139.207 C 284.344 139.675,284.083 140.235,283.851 140.451 C 283.568 140.714,283.380 141.310,283.282 142.252 C 283.201 143.027,283.059 143.539,282.967 143.390 C 282.667 142.905,282.001 144.221,282.156 144.994 C 282.260 145.517,282.201 145.710,281.901 145.821 C 281.208 146.077,280.814 147.892,281.377 148.239 C 281.662 148.415,281.420 149.210,281.038 149.357 C 280.864 149.424,280.722 149.634,280.722 149.824 C 280.722 150.226,282.064 150.315,282.441 149.938 C 282.598 149.781,282.803 149.853,283.084 150.164 C 283.364 150.473,283.780 150.620,284.377 150.620 C 284.907 150.620,285.202 150.710,285.118 150.846 C 285.034 150.981,285.336 151.071,285.879 151.071 C 286.819 151.071,287.200 151.507,286.913 152.253 C 286.816 152.507,286.977 152.628,287.528 152.717 C 287.939 152.784,288.478 152.872,288.726 152.913 C 289.073 152.970,289.193 152.845,289.248 152.368 C 289.321 151.739,290.002 151.484,290.304 151.973 C 290.389 152.110,292.037 152.198,294.495 152.198 L 298.546 152.198 298.760 151.635 C 298.970 151.083,299.023 151.071,301.347 151.071 L 303.720 151.071 303.720 150.169 L 303.720 149.267 306.201 149.267 L 308.681 149.267 308.681 149.952 L 308.681 150.636 310.879 150.572 C 313.033 150.509,313.079 150.496,313.157 149.944 C 313.200 149.634,313.353 149.305,313.495 149.214 C 313.877 148.970,314.366 149.006,314.205 149.267 C 314.129 149.391,314.184 149.493,314.329 149.493 C 314.473 149.493,314.538 149.352,314.472 149.180 C 314.406 149.009,314.649 148.584,315.011 148.236 C 315.374 147.889,315.671 147.502,315.671 147.377 C 315.671 147.252,315.926 146.884,316.238 146.558 C 316.683 146.094,316.810 145.717,316.831 144.803 C 316.845 144.163,316.950 143.697,317.063 143.767 C 317.176 143.837,317.417 143.772,317.597 143.622 C 317.778 143.472,317.926 143.420,317.926 143.507 C 317.926 144.039,319.128 142.099,319.413 141.108 C 319.602 140.449,320.004 139.374,320.307 138.720 C 320.609 138.065,320.857 137.494,320.857 137.451 C 320.857 137.325,322.388 134.816,322.711 134.412 C 322.871 134.212,323.193 133.672,323.424 133.214 C 324.666 130.760,328.034 130.528,329.329 132.807 C 329.957 133.912,331.229 136.820,331.229 137.150 C 331.229 137.336,331.381 137.613,331.566 137.767 C 331.752 137.921,332.050 138.540,332.229 139.143 C 332.408 139.745,332.814 140.519,333.132 140.861 C 333.473 141.229,333.709 141.749,333.709 142.132 C 333.709 142.535,334.115 143.375,334.780 144.350 C 335.369 145.214,335.994 146.187,336.168 146.513 C 336.342 146.839,336.672 147.307,336.900 147.552 C 337.129 147.798,337.317 148.120,337.317 148.267 C 337.317 148.415,337.469 148.662,337.655 148.816 C 337.889 149.010,337.993 149.019,337.993 148.844 C 337.993 148.676,338.668 148.591,340.004 148.591 C 341.407 148.591,342.046 148.506,342.118 148.309 C 342.200 148.083,342.281 148.083,342.520 148.309 C 342.717 148.495,343.586 148.592,345.085 148.595 C 347.202 148.598,347.385 148.635,347.882 149.158 L 348.413 149.718 354.665 149.718 C 358.103 149.718,360.987 149.788,361.073 149.874 C 361.316 150.117,362.120 150.189,362.120 149.968 C 362.120 149.859,362.621 149.606,363.233 149.406 C 364.583 148.964,364.600 148.964,364.600 149.352 C 364.600 149.814,365.217 150.240,365.645 150.076 C 365.980 149.947,365.969 149.877,365.535 149.416 C 365.269 149.132,365.051 148.774,365.051 148.619 C 365.051 148.465,364.934 148.411,364.790 148.500 C 364.628 148.600,364.591 148.561,364.693 148.396 C 364.783 148.251,364.962 148.198,365.090 148.277 C 365.246 148.373,365.270 148.167,365.161 147.661 C 364.950 146.677,364.871 146.558,364.521 146.692 C 364.299 146.778,364.255 146.485,364.331 145.426 C 364.393 144.575,364.334 143.951,364.177 143.794 C 364.038 143.654,363.923 143.262,363.923 142.922 C 363.923 142.582,363.836 142.250,363.729 142.184 C 363.545 142.070,362.124 137.788,361.627 135.851 C 361.500 135.355,361.305 134.716,361.194 134.431 C 361.083 134.146,360.992 133.741,360.993 133.529 C 360.993 133.318,360.748 132.537,360.447 131.793 C 360.146 131.048,359.587 129.434,359.203 128.204 C 357.016 121.196,352.950 116.451,347.576 114.637 C 343.350 113.210,349.423 113.330,277.323 113.254 L 211.579 113.185 210.130 114.796 C 206.498 118.835,201.168 122.633,196.748 124.331 C 193.370 125.629,190.507 126.495,188.881 126.711 C 187.912 126.839,186.929 127.046,186.697 127.170 C 185.841 127.628,180.518 127.434,177.571 126.838 C 172.180 125.746,169.488 124.586,162.940 120.531 C 160.336 118.918,156.945 115.902,155.131 113.585 C 154.864 113.244,154.577 112.990,154.493 113.020 C 154.409 113.050,127.351 113.127,94.363 113.191 M218.953 131.680 C 221.506 132.389,222.063 136.288,219.761 137.334 C 218.493 137.910,165.281 138.015,164.177 137.444 C 162.510 136.582,162.168 134.166,163.531 132.876 C 164.788 131.686,164.316 131.708,188.142 131.695 C 200.409 131.688,210.496 131.631,210.559 131.568 C 210.770 131.357,218.143 131.455,218.953 131.680 M130.795 137.060 C 130.291 138.002,130.909 148.817,131.487 149.175 C 131.593 149.240,131.680 149.482,131.680 149.712 C 131.680 150.426,133.122 150.221,133.225 149.493 C 133.350 148.598,135.014 148.182,135.705 148.873 C 135.922 149.090,137.845 149.140,144.119 149.091 C 151.525 149.034,152.276 149.062,152.529 149.408 C 153.042 150.109,153.305 149.523,153.330 147.625 C 153.344 146.606,153.372 145.366,153.392 144.870 C 153.414 144.338,153.223 143.531,152.927 142.900 C 152.650 142.312,152.424 141.749,152.424 141.647 C 152.424 141.546,152.094 141.101,151.691 140.658 C 151.288 140.215,150.625 139.484,150.218 139.033 C 148.385 137.006,146.512 136.640,137.954 136.640 C 131.424 136.640,131.006 136.665,130.795 137.060 M188.910 145.378 C 188.794 146.385,187.148 146.450,187.148 145.448 C 187.148 144.791,187.192 144.758,188.065 144.758 C 188.932 144.758,188.978 144.791,188.910 145.378 M161.077 146.967 C 161.255 147.255,160.841 147.762,160.566 147.592 C 160.204 147.368,160.258 146.787,160.641 146.787 C 160.819 146.787,161.016 146.868,161.077 146.967 M239.684 148.478 C 239.684 148.758,239.323 148.808,237.599 148.770 L 235.513 148.724 237.486 148.648 C 238.571 148.607,239.459 148.476,239.459 148.356 C 239.459 148.237,239.510 148.140,239.572 148.140 C 239.634 148.140,239.684 148.292,239.684 148.478 M266.223 148.979 C 265.800 149.043,265.509 149.273,265.342 149.678 C 265.138 150.173,265.075 150.209,264.997 149.876 C 264.852 149.264,265.360 148.812,266.149 148.850 C 266.847 148.883,266.848 148.885,266.223 148.979 M100.370 170.036 C 97.026 171.353,95.064 176.400,96.667 179.564 C 99.698 185.545,108.765 183.916,109.314 177.291 C 109.742 172.138,104.934 168.238,100.370 170.036 M356.821 172.464 C 353.826 173.839,353.037 178.241,355.293 180.990 C 359.080 185.605,366.487 181.317,364.493 175.664 C 363.374 172.492,359.909 171.047,356.821 172.464 M360.835 173.147 C 363.771 173.630,364.945 178.560,362.711 181.025 C 359.969 184.051,354.246 181.210,354.836 177.114 C 355.323 173.732,357.129 172.538,360.835 173.147 M86.607 176.224 C 83.210 177.698,84.041 182.187,87.711 182.187 C 91.040 182.187,92.092 178.027,89.177 176.388 C 88.127 175.798,87.658 175.768,86.607 176.224 M115.164 176.562 C 113.306 178.094,113.623 181.229,115.720 182.068 C 117.794 182.898,120.180 181.211,120.180 178.914 C 120.180 176.350,117.147 174.928,115.164 176.562 " stroke="none" fill="#45a0aa" fill-rule="evenodd"></path><path id="path2" d="M170.519 26.086 C 170.736 26.142,171.091 26.142,171.308 26.086 C 171.525 26.029,171.347 25.982,170.913 25.982 C 170.479 25.982,170.302 26.029,170.519 26.086 M175.599 26.097 C 176.255 26.142,177.269 26.142,177.854 26.096 C 178.439 26.049,177.903 26.012,176.663 26.012 C 175.423 26.013,174.944 26.051,175.599 26.097 M179.876 26.093 C 180.279 26.143,180.939 26.143,181.342 26.093 C 181.745 26.043,181.415 26.002,180.609 26.002 C 179.803 26.002,179.473 26.043,179.876 26.093 M199.341 28.335 C 199.332 28.604,199.197 28.875,199.042 28.937 C 198.821 29.027,198.822 29.055,199.049 29.069 C 199.391 29.090,199.640 28.546,199.475 28.136 C 199.411 27.977,199.351 28.067,199.341 28.335 M192.897 36.695 C 198.509 36.750,199.242 36.799,199.493 37.136 C 199.648 37.345,199.775 37.415,199.775 37.292 C 199.775 36.586,199.212 36.528,192.909 36.580 L 186.584 36.633 192.897 36.695 M194.758 39.843 C 195.037 39.897,195.493 39.897,195.772 39.843 C 196.051 39.790,195.823 39.746,195.265 39.746 C 194.707 39.746,194.479 39.790,194.758 39.843 M175.045 42.334 C 179.487 42.368,186.691 42.368,191.054 42.334 C 195.416 42.299,191.781 42.271,182.976 42.271 C 174.171 42.271,170.602 42.299,175.045 42.334 M167.590 45.258 C 167.933 45.309,168.441 45.308,168.718 45.255 C 168.995 45.201,168.715 45.159,168.095 45.160 C 167.475 45.162,167.248 45.206,167.590 45.258 M183.273 45.265 C 185.544 45.301,189.197 45.301,191.390 45.265 C 193.583 45.228,191.725 45.198,187.260 45.198 C 182.796 45.198,181.002 45.228,183.273 45.265 M199.601 49.154 C 199.601 49.589,199.648 49.766,199.704 49.549 C 199.761 49.332,199.761 48.977,199.704 48.760 C 199.648 48.543,199.601 48.720,199.601 49.154 M195.217 50.675 C 195.997 50.719,197.215 50.718,197.923 50.674 C 198.631 50.629,197.993 50.593,196.505 50.593 C 195.017 50.594,194.437 50.630,195.217 50.675 M193.070 53.375 C 193.412 53.427,193.920 53.425,194.197 53.372 C 194.474 53.318,194.194 53.276,193.574 53.278 C 192.954 53.279,192.727 53.323,193.070 53.375 M195.490 53.358 C 197.378 53.525,199.499 53.538,199.402 53.382 C 199.344 53.289,198.263 53.230,196.999 53.251 C 195.735 53.272,195.056 53.320,195.490 53.358 M183.920 56.088 C 186.299 56.124,190.256 56.124,192.713 56.088 C 195.171 56.051,193.224 56.021,188.388 56.021 C 183.551 56.021,181.541 56.051,183.920 56.088 M169.629 56.313 C 170.969 56.353,173.100 56.352,174.364 56.312 C 175.628 56.272,174.532 56.240,171.928 56.240 C 169.324 56.240,168.289 56.273,169.629 56.313 M174.239 58.794 C 178.114 58.828,184.456 58.828,188.331 58.794 C 192.207 58.759,189.036 58.731,181.285 58.731 C 173.534 58.731,170.364 58.759,174.239 58.794 M198.082 59.012 L 199.324 59.098 199.324 59.944 C 199.324 60.409,199.197 60.924,199.042 61.088 C 198.814 61.329,198.825 61.367,199.098 61.283 C 199.339 61.210,199.436 60.861,199.436 60.071 L 199.436 58.963 198.139 58.944 L 196.841 58.926 198.082 59.012 M174.577 61.499 C 178.887 61.534,185.939 61.534,190.248 61.499 C 194.557 61.465,191.032 61.437,182.413 61.437 C 173.794 61.437,170.268 61.465,174.577 61.499 M166.932 64.189 C 166.789 64.291,170.086 64.349,174.260 64.319 C 178.434 64.288,185.654 64.339,190.304 64.431 L 198.760 64.600 198.830 65.445 C 198.918 66.505,200.174 66.361,189.515 66.512 L 180.271 66.644 189.526 66.693 C 196.481 66.730,198.850 66.675,199.053 66.471 C 199.483 66.042,199.395 64.564,198.929 64.378 C 198.361 64.151,167.244 63.968,166.932 64.189 M166.430 65.418 C 166.402 66.273,166.846 66.872,167.354 66.668 C 167.538 66.594,167.501 66.545,167.253 66.534 C 167.039 66.524,166.814 66.288,166.755 66.009 C 166.695 65.730,166.604 65.299,166.551 65.051 C 166.499 64.803,166.444 64.968,166.430 65.418 M170.410 66.680 C 170.815 66.730,171.424 66.729,171.763 66.677 C 172.102 66.626,171.770 66.585,171.026 66.586 C 170.282 66.587,170.005 66.630,170.410 66.680 M175.705 66.684 C 176.542 66.727,177.911 66.727,178.749 66.684 C 179.586 66.640,178.901 66.605,177.227 66.605 C 175.552 66.605,174.868 66.640,175.705 66.684 M166.748 70.038 C 166.393 70.393,166.415 71.787,166.782 72.153 C 167.033 72.404,198.487 72.155,198.793 71.900 C 199.396 71.400,199.178 69.971,198.478 69.832 C 196.637 69.468,167.126 69.659,166.748 70.038 M195.884 70.214 C 200.053 70.286,200.080 71.128,195.926 71.478 C 192.122 71.798,168.063 72.173,167.403 71.922 C 166.795 71.691,166.595 70.278,167.136 70.035 C 167.368 69.931,186.185 70.048,195.884 70.214 M167.395 75.748 C 167.009 76.155,167.302 77.101,167.944 77.522 C 169.161 78.320,197.529 78.047,198.388 77.229 C 198.763 76.872,198.550 76.088,198.018 75.870 C 197.299 75.575,167.671 75.457,167.395 75.748 M177.625 76.636 C 179.999 76.838,179.551 77.220,176.888 77.264 C 169.908 77.380,169.533 77.352,170.028 76.756 C 170.311 76.414,174.289 76.352,177.625 76.636 M172.548 81.656 C 172.190 82.016,172.183 83.029,172.537 83.382 C 172.926 83.771,191.449 83.771,191.838 83.382 C 192.277 82.943,192.153 82.116,191.601 81.800 C 190.866 81.381,172.957 81.245,172.548 81.656 M359.429 128.655 C 359.405 129.034,360.323 131.726,360.691 132.356 C 360.896 132.706,360.961 132.749,360.864 132.469 C 359.757 129.285,359.443 128.448,359.429 128.655 M126.719 131.389 C 125.998 131.654,125.593 132.214,125.626 132.899 C 125.657 133.546,125.666 133.554,125.751 133.000 C 125.873 132.209,126.530 131.646,127.566 131.445 C 128.325 131.297,128.342 131.280,127.734 131.273 C 127.362 131.268,126.905 131.320,126.719 131.389 M65.316 131.623 C 70.918 131.657,80.151 131.657,85.834 131.623 C 91.517 131.590,86.933 131.562,75.648 131.562 C 64.363 131.562,59.713 131.590,65.316 131.623 M139.751 131.622 C 140.780 131.664,142.404 131.664,143.359 131.622 C 144.314 131.580,143.472 131.545,141.488 131.546 C 139.504 131.546,138.722 131.580,139.751 131.622 M54.349 132.007 C 54.200 132.187,54.125 132.517,54.183 132.740 C 54.267 133.065,54.293 133.047,54.314 132.649 C 54.329 132.376,54.518 132.050,54.735 131.923 C 54.952 131.797,55.015 131.690,54.875 131.687 C 54.736 131.683,54.499 131.827,54.349 132.007 M97.012 131.923 C 97.327 132.107,97.416 132.505,97.452 133.889 L 97.497 135.626 97.575 133.970 C 97.652 132.342,97.445 131.671,96.872 131.687 C 96.732 131.690,96.795 131.797,97.012 131.923 M150.765 133.680 C 156.320 136.743,159.414 144.019,157.940 150.550 C 156.983 154.788,154.169 158.853,151.192 160.300 C 148.501 161.607,148.490 161.440,151.487 164.825 C 152.560 166.037,154.352 168.130,155.468 169.475 C 156.584 170.821,157.751 172.186,158.061 172.509 C 159.472 173.980,162.610 177.640,164.793 180.364 C 166.073 181.960,166.257 182.785,165.502 183.540 C 164.973 184.068,162.357 184.174,161.525 183.701 C 161.059 183.436,160.810 183.152,158.399 180.131 C 157.779 179.354,157.120 178.555,156.933 178.354 C 156.031 177.383,154.693 175.856,153.777 174.752 C 153.219 174.079,152.356 173.064,151.860 172.497 C 151.364 171.929,150.096 170.412,149.042 169.125 C 147.988 167.838,146.770 166.365,146.336 165.851 C 145.902 165.338,145.308 164.568,145.016 164.139 C 143.842 162.416,144.043 162.458,136.866 162.458 L 130.440 162.458 130.440 173.019 L 130.440 183.580 129.880 184.033 C 129.412 184.412,129.068 184.473,127.795 184.401 C 125.236 184.256,125.493 187.084,125.522 159.358 C 125.546 136.508,125.473 134.453,125.003 144.645 C 124.876 147.392,124.777 148.303,124.696 147.463 C 124.530 145.733,123.892 145.676,123.984 147.399 L 124.046 148.575 119.065 148.572 C 113.450 148.569,113.641 148.528,113.641 149.731 L 113.641 150.620 106.567 150.620 C 100.553 150.620,99.449 150.671,99.211 150.958 C 98.972 151.246,97.844 151.297,91.630 151.297 C 85.424 151.297,84.329 151.345,84.329 151.621 C 84.329 152.645,79.924 152.277,79.180 151.191 C 78.718 150.517,78.062 136.944,78.487 136.844 C 78.538 136.832,82.537 136.782,87.373 136.733 C 96.797 136.637,97.055 136.619,97.279 136.035 C 97.418 135.674,97.401 135.674,97.004 136.033 C 96.623 136.378,95.737 136.415,87.793 136.415 C 80.772 136.415,78.920 136.476,78.588 136.719 C 78.186 137.013,78.176 137.852,78.297 160.209 L 78.421 183.395 77.802 184.014 C 76.568 185.248,74.710 185.132,73.769 183.763 L 73.228 182.976 73.368 174.070 C 73.569 161.163,73.590 136.959,73.400 136.651 C 73.278 136.453,71.095 136.427,64.624 136.547 C 53.751 136.748,54.336 136.892,54.041 133.935 C 53.996 133.485,53.946 133.734,53.926 134.512 C 53.896 135.628,53.978 135.974,54.371 136.396 L 54.853 136.913 63.935 136.833 C 68.931 136.789,73.087 136.822,73.171 136.906 C 73.303 137.038,73.301 138.902,73.162 144.983 C 73.147 145.665,73.112 147.542,73.085 149.154 C 73.039 151.839,73.009 152.029,72.725 151.409 L 72.415 150.733 72.397 151.358 C 72.384 151.793,72.221 152.044,71.862 152.181 C 71.578 152.289,71.211 152.540,71.045 152.739 C 70.714 153.138,69.035 153.239,68.373 152.900 C 67.299 152.348,65.906 151.764,65.520 151.703 C 64.769 151.584,64.830 151.071,65.596 151.071 C 66.354 151.071,66.439 150.961,66.009 150.532 C 65.416 149.940,64.713 149.940,64.713 150.532 L 64.713 151.077 57.554 151.018 L 50.395 150.958 50.323 150.338 L 50.252 149.718 47.914 149.718 L 45.577 149.718 45.505 150.338 C 45.439 150.915,45.347 150.966,44.194 151.071 C 42.976 151.182,42.952 151.198,42.837 151.973 C 42.743 152.611,42.678 152.692,42.499 152.394 C 42.230 151.948,40.475 151.606,40.258 151.957 C 40.170 152.100,39.280 152.198,38.086 152.198 C 36.362 152.198,36.042 152.257,35.923 152.593 C 35.847 152.810,35.584 153.210,35.339 153.482 C 35.046 153.809,34.939 154.155,35.025 154.499 C 35.168 155.069,35.060 155.295,34.399 155.806 C 34.112 156.028,34.021 156.044,34.136 155.853 C 34.236 155.687,34.157 155.325,33.954 155.015 C 33.757 154.715,33.596 154.009,33.596 153.446 C 33.596 152.884,33.495 152.424,33.371 152.424 C 33.247 152.424,33.143 152.196,33.140 151.917 C 33.138 151.638,32.937 151.156,32.694 150.846 C 32.452 150.536,32.251 150.167,32.249 150.028 C 32.240 149.615,31.567 149.134,31.567 149.540 C 31.567 149.721,31.633 149.934,31.713 150.014 C 31.942 150.243,32.607 152.245,33.686 155.948 C 34.232 157.825,34.797 159.580,34.941 159.850 C 35.161 160.261,36.295 163.841,36.981 166.291 C 37.085 166.663,37.589 168.185,38.101 169.673 C 38.613 171.161,39.173 172.886,39.347 173.506 C 39.520 174.126,40.161 176.105,40.772 177.903 C 41.383 179.701,42.266 182.390,42.735 183.878 C 43.204 185.366,43.775 187.014,44.003 187.540 C 44.232 188.066,44.419 188.601,44.419 188.730 C 44.419 191.065,49.020 196.130,52.741 197.892 C 55.656 199.272,55.620 199.257,57.159 199.670 C 59.538 200.309,60.295 200.417,61.218 200.249 C 61.714 200.159,64.453 200.174,67.306 200.284 C 70.158 200.394,82.790 200.419,95.378 200.339 C 107.965 200.259,118.365 200.206,118.489 200.220 C 119.762 200.362,346.710 200.504,362.232 200.372 L 367.644 200.326 369.109 199.612 C 369.915 199.220,370.727 198.845,370.913 198.778 C 371.234 198.663,372.016 198.188,373.540 197.182 C 374.185 196.756,375.877 194.824,376.901 193.342 C 378.355 191.241,378.194 187.459,376.389 181.298 C 376.083 180.251,375.697 178.779,375.532 178.028 C 375.368 177.277,374.526 174.684,373.662 172.266 C 372.798 169.848,371.785 166.855,371.409 165.614 C 369.867 160.517,369.243 158.529,368.613 156.708 C 368.001 154.939,367.616 153.714,366.737 150.733 C 365.695 147.202,363.950 142.362,363.936 142.965 C 363.929 143.281,364.038 143.654,364.177 143.794 C 364.334 143.951,364.393 144.575,364.331 145.426 C 364.255 146.485,364.299 146.778,364.521 146.692 C 364.871 146.558,364.950 146.677,365.161 147.661 C 365.270 148.167,365.246 148.373,365.090 148.277 C 364.962 148.198,364.783 148.251,364.693 148.396 C 364.591 148.561,364.628 148.600,364.790 148.500 C 364.934 148.411,365.051 148.465,365.051 148.619 C 365.051 148.774,365.269 149.132,365.535 149.416 C 365.969 149.877,365.980 149.947,365.645 150.076 C 365.217 150.240,364.600 149.814,364.600 149.352 C 364.600 148.964,364.583 148.964,363.233 149.406 C 362.621 149.606,362.120 149.859,362.120 149.968 C 362.120 150.189,361.316 150.117,361.073 149.874 C 360.987 149.788,358.103 149.718,354.665 149.718 L 348.413 149.718 347.882 149.158 C 347.385 148.635,347.202 148.598,345.085 148.595 C 343.586 148.592,342.717 148.495,342.520 148.309 C 342.281 148.083,342.200 148.083,342.118 148.309 C 342.046 148.506,341.407 148.591,340.004 148.591 C 338.668 148.591,337.993 148.676,337.993 148.844 C 337.993 149.019,337.889 149.010,337.655 148.816 C 337.469 148.662,337.317 148.421,337.317 148.281 C 337.316 148.141,337.063 147.732,336.753 147.372 C 336.443 147.012,336.189 146.620,336.189 146.503 C 336.189 146.385,335.961 146.008,335.682 145.666 C 335.403 145.324,335.052 144.852,334.902 144.619 C 334.206 143.537,335.537 146.797,337.230 150.320 C 337.776 151.458,338.286 152.726,338.363 153.139 C 338.440 153.552,338.683 154.194,338.902 154.566 C 339.121 154.938,339.454 155.699,339.642 156.257 C 340.066 157.517,341.878 161.648,342.624 163.055 C 342.929 163.631,343.179 164.241,343.179 164.411 C 343.179 164.580,343.367 165.073,343.596 165.505 C 343.825 165.937,344.397 167.204,344.867 168.320 C 345.336 169.436,346.020 171.060,346.386 171.928 C 346.752 172.796,347.284 173.963,347.567 174.521 C 347.850 175.079,348.158 175.891,348.252 176.325 C 348.345 176.759,348.637 177.418,348.901 177.790 C 349.281 178.327,349.396 178.875,349.459 180.444 L 349.538 182.421 348.640 183.318 C 347.686 184.272,347.473 184.327,345.096 184.231 C 343.366 184.161,341.150 182.289,341.150 180.898 C 341.150 180.772,340.956 180.423,340.719 180.122 C 340.482 179.820,339.922 178.614,339.476 177.442 C 339.029 176.269,338.425 174.803,338.133 174.183 C 337.841 173.563,337.527 172.709,337.434 172.285 C 337.341 171.862,337.023 171.060,336.727 170.504 C 336.431 169.948,336.189 169.309,336.189 169.084 C 336.189 168.237,335.575 168.188,325.435 168.222 L 315.588 168.255 314.973 168.871 C 314.634 169.209,314.208 169.988,314.026 170.602 C 313.844 171.215,313.480 172.118,313.217 172.608 C 312.955 173.098,312.740 173.633,312.740 173.795 C 312.740 173.958,312.486 174.567,312.176 175.149 C 311.866 175.732,311.612 176.341,311.612 176.504 C 311.612 176.666,311.416 177.174,311.176 177.633 C 310.936 178.092,310.338 179.330,309.848 180.385 C 308.108 184.125,306.255 185.098,302.520 184.231 C 300.039 183.655,300.193 180.181,302.944 174.634 C 303.375 173.766,303.726 172.923,303.724 172.762 C 303.722 172.600,303.919 172.093,304.161 171.634 C 304.403 171.176,304.813 170.293,305.073 169.673 C 305.333 169.053,305.740 168.191,305.978 167.756 C 306.216 167.322,306.631 166.516,306.900 165.965 C 307.168 165.414,307.882 164.127,308.485 163.105 C 309.089 162.083,309.583 161.166,309.583 161.068 C 309.583 160.796,311.436 156.957,314.262 151.376 C 317.000 145.966,317.082 145.765,316.234 146.561 C 315.924 146.853,315.671 147.207,315.671 147.348 C 315.671 147.489,315.374 147.889,315.011 148.236 C 314.649 148.584,314.406 149.009,314.472 149.180 C 314.538 149.352,314.473 149.493,314.329 149.493 C 314.184 149.493,314.129 149.391,314.205 149.267 C 314.366 149.006,313.877 148.970,313.495 149.214 C 313.353 149.305,313.200 149.634,313.157 149.944 C 313.079 150.496,313.033 150.509,310.879 150.572 L 308.681 150.636 308.681 149.952 L 308.681 149.267 306.201 149.267 L 303.720 149.267 303.720 150.169 L 303.720 151.071 301.347 151.071 C 299.023 151.071,298.970 151.083,298.760 151.635 L 298.546 152.198 294.495 152.198 C 292.037 152.198,290.389 152.110,290.304 151.973 C 290.002 151.484,289.321 151.739,289.248 152.368 C 289.193 152.845,289.073 152.970,288.726 152.913 C 288.478 152.872,287.939 152.784,287.528 152.717 C 286.977 152.628,286.816 152.507,286.913 152.253 C 287.200 151.507,286.819 151.071,285.879 151.071 C 285.336 151.071,285.034 150.981,285.118 150.846 C 285.202 150.710,284.907 150.620,284.377 150.620 C 283.780 150.620,283.364 150.473,283.084 150.164 C 282.803 149.853,282.598 149.781,282.441 149.938 C 282.076 150.303,280.722 150.227,280.722 149.842 C 280.722 149.662,280.856 149.434,281.020 149.335 C 281.425 149.091,281.654 148.411,281.388 148.246 C 281.270 148.173,281.172 147.851,281.172 147.531 C 281.172 147.058,281.046 147.185,280.496 148.217 C 280.124 148.914,279.820 149.625,279.820 149.796 C 279.820 149.968,279.631 150.350,279.400 150.646 C 279.169 150.942,278.905 151.437,278.813 151.747 C 278.721 152.057,278.213 153.224,277.684 154.340 C 277.154 155.457,276.296 157.283,275.777 158.399 C 275.257 159.515,274.718 160.631,274.578 160.879 C 274.253 161.454,273.676 162.657,273.171 163.811 C 272.954 164.307,272.390 165.524,271.917 166.516 C 271.445 167.508,270.858 168.777,270.615 169.335 C 269.913 170.941,268.840 173.210,268.373 174.070 C 267.492 175.696,265.444 179.849,265.148 180.609 C 263.519 184.797,260.667 185.183,258.890 181.457 C 257.680 178.920,257.086 177.575,256.922 177.001 C 256.833 176.691,256.621 176.237,256.452 175.993 C 256.283 175.748,256.143 175.393,256.141 175.203 C 256.140 175.014,255.845 174.279,255.485 173.571 C 255.126 172.862,254.708 171.899,254.557 171.429 C 254.329 170.719,253.361 168.673,251.753 165.502 C 251.596 165.192,251.340 164.532,251.184 164.036 C 251.028 163.540,250.769 162.880,250.609 162.570 C 250.449 162.260,249.945 161.144,249.490 160.090 C 249.035 159.036,248.367 157.555,248.007 156.798 C 247.646 156.041,247.351 155.294,247.351 155.138 C 247.351 154.981,247.161 154.484,246.928 154.033 C 246.696 153.582,246.127 152.401,245.663 151.409 C 245.200 150.417,244.578 149.134,244.282 148.558 C 243.985 147.981,243.743 147.359,243.743 147.176 C 243.743 146.992,243.596 146.720,243.417 146.572 C 243.238 146.423,242.925 145.801,242.722 145.189 C 242.519 144.578,242.258 144.136,242.142 144.208 C 242.026 144.279,241.988 144.430,242.058 144.542 C 242.127 144.654,242.229 145.102,242.285 145.538 C 242.341 145.975,242.590 146.711,242.839 147.176 C 243.432 148.282,243.470 150.024,242.897 149.864 C 241.665 149.520,241.488 149.444,241.488 149.254 C 241.488 148.829,240.700 147.243,240.440 147.143 C 240.205 147.053,239.871 148.152,239.813 149.208 C 239.804 149.362,239.721 149.489,239.628 149.490 C 235.993 149.544,235.452 149.488,235.335 149.042 C 235.224 148.616,235.027 148.591,231.819 148.591 L 228.421 148.591 228.040 148.010 C 227.666 147.438,227.629 147.431,225.724 147.581 C 223.179 147.781,222.422 148.411,224.509 148.591 C 225.629 148.687,225.817 148.768,225.817 149.154 C 225.817 149.836,216.262 149.984,216.084 149.306 C 215.985 148.924,215.637 148.872,212.366 148.750 C 210.136 148.667,208.636 148.515,208.440 148.352 C 208.245 148.191,207.340 148.096,206.104 148.108 L 204.086 148.127 204.016 147.401 L 203.946 146.674 192.954 146.616 L 181.962 146.557 181.962 147.344 L 181.962 148.130 177.222 148.130 C 174.418 148.129,172.306 148.223,172.051 148.360 C 171.488 148.661,167.531 148.666,167.531 148.365 C 167.531 148.038,162.955 148.071,162.625 148.401 C 162.442 148.584,162.278 148.592,162.073 148.426 C 161.712 148.134,160.541 148.119,160.541 148.407 C 160.541 148.523,160.643 148.555,160.767 148.478 C 160.891 148.401,160.992 148.446,160.992 148.577 C 160.992 148.709,160.870 148.816,160.722 148.816 C 160.522 148.816,160.517 148.882,160.704 149.069 C 161.028 149.393,160.822 149.944,160.377 149.944 C 160.099 149.944,160.087 149.881,160.316 149.605 C 160.542 149.333,160.536 149.266,160.287 149.260 C 159.696 149.247,159.263 148.242,158.987 146.244 C 158.835 145.140,158.514 143.850,158.273 143.378 C 158.032 142.907,157.835 142.359,157.835 142.161 C 157.835 140.162,153.575 134.876,150.839 133.480 C 149.505 132.800,149.448 132.954,150.765 133.680 M27.205 135.964 C 27.462 136.980,27.989 138.220,27.838 137.454 C 27.767 137.096,27.564 136.487,27.386 136.102 C 27.142 135.574,27.097 135.540,27.205 135.964 M130.607 136.602 C 130.383 136.744,130.335 139.026,130.381 147.253 L 130.440 157.723 136.979 157.790 C 145.767 157.881,147.865 157.390,150.843 154.550 C 156.657 149.004,154.038 138.569,146.372 136.736 C 144.944 136.395,131.118 136.277,130.607 136.602 M361.894 136.728 C 361.894 137.249,363.448 141.883,363.713 142.153 C 364.062 142.509,363.964 142.121,362.985 139.265 C 361.977 136.326,361.894 136.132,361.894 136.728 M146.232 136.986 C 148.177 137.485,149.375 138.101,150.218 139.033 C 150.625 139.484,151.288 140.215,151.691 140.658 C 152.094 141.101,152.424 141.546,152.424 141.647 C 152.424 141.749,152.650 142.312,152.927 142.900 C 153.223 143.531,153.414 144.338,153.392 144.870 C 153.372 145.366,153.344 146.606,153.330 147.625 C 153.305 149.523,153.042 150.109,152.529 149.408 C 152.276 149.062,151.525 149.034,144.119 149.091 C 137.845 149.140,135.922 149.090,135.705 148.873 C 135.014 148.182,133.350 148.598,133.225 149.493 C 133.122 150.221,131.680 150.426,131.680 149.712 C 131.680 149.482,131.593 149.240,131.487 149.175 C 130.909 148.817,130.291 138.002,130.795 137.060 C 131.105 136.480,144.022 136.418,146.232 136.986 M29.151 141.851 C 29.219 142.024,29.647 143.331,30.103 144.758 C 31.604 149.451,31.529 149.259,31.549 148.467 C 31.559 148.089,31.482 147.683,31.377 147.565 C 31.273 147.447,31.009 146.640,30.791 145.772 C 30.573 144.904,30.202 143.764,29.967 143.238 C 29.731 142.712,29.538 142.186,29.538 142.068 C 29.538 141.950,29.423 141.782,29.283 141.696 C 29.126 141.598,29.075 141.658,29.151 141.851 M317.587 143.631 C 317.500 143.771,317.300 143.837,317.143 143.777 C 316.935 143.697,316.852 143.987,316.842 144.832 L 316.827 145.998 317.379 144.779 C 317.870 143.695,318.004 142.956,317.587 143.631 M272.747 144.325 C 272.671 144.707,272.404 145.279,272.155 145.595 C 271.906 145.912,271.702 146.302,271.702 146.463 C 271.702 146.864,270.610 147.689,270.080 147.689 C 269.842 147.689,269.709 147.790,269.786 147.914 C 269.871 148.052,269.501 148.149,268.841 148.162 C 267.961 148.181,267.863 148.219,268.320 148.365 C 268.630 148.465,268.729 148.556,268.540 148.568 C 268.274 148.586,268.216 148.806,268.285 149.532 C 268.402 150.754,267.982 151.071,266.248 151.071 C 265.190 151.071,264.938 151.001,264.938 150.705 C 264.938 150.439,264.861 150.403,264.656 150.571 C 264.501 150.699,263.332 150.877,262.057 150.967 C 259.974 151.113,259.753 151.171,259.868 151.532 C 259.938 151.754,259.873 152.011,259.723 152.104 C 259.545 152.214,259.493 152.162,259.573 151.954 C 259.673 151.693,259.397 151.648,258.055 151.708 C 256.598 151.773,256.397 151.837,256.264 152.272 C 256.126 152.727,256.096 152.711,255.848 152.047 C 255.701 151.654,255.302 151.114,254.961 150.847 C 254.472 150.465,254.340 150.174,254.340 149.476 C 254.340 148.741,254.264 148.591,253.890 148.591 C 253.305 148.591,253.294 148.539,254.313 150.569 C 254.793 151.527,255.469 153.021,255.814 153.890 C 256.159 154.758,256.658 155.823,256.923 156.257 C 257.188 156.691,257.691 157.733,258.041 158.571 C 258.392 159.410,258.767 160.152,258.877 160.219 C 258.986 160.287,259.076 160.506,259.076 160.707 C 259.076 160.907,259.439 161.840,259.882 162.779 C 261.004 165.155,261.258 165.717,261.646 166.685 C 262.067 167.739,262.825 167.862,263.042 166.911 C 263.181 166.301,264.115 164.004,264.945 162.232 C 265.177 161.736,265.612 160.772,265.910 160.090 C 266.208 159.408,266.911 157.886,267.472 156.708 C 269.865 151.679,270.424 150.464,270.691 149.718 C 270.936 149.029,272.733 145.130,273.315 144.025 C 273.466 143.737,273.436 143.630,273.204 143.630 C 273.029 143.630,272.824 143.943,272.747 144.325 M187.148 145.448 C 187.148 146.450,188.794 146.385,188.910 145.378 C 188.978 144.791,188.932 144.758,188.065 144.758 C 187.192 144.758,187.148 144.791,187.148 145.448 M325.391 146.086 C 325.129 146.348,324.915 146.673,324.915 146.809 C 324.915 147.074,324.669 147.647,323.305 150.559 C 322.827 151.580,322.435 152.485,322.435 152.571 C 322.435 152.656,322.145 153.343,321.791 154.097 C 319.657 158.635,319.181 159.890,319.513 160.101 C 320.042 160.435,331.066 160.374,331.517 160.034 C 331.905 159.742,329.884 154.156,328.482 151.644 C 328.346 151.401,328.005 150.539,327.724 149.728 C 326.291 145.593,326.132 145.345,325.391 146.086 M160.316 147.112 C 160.316 147.575,160.782 147.803,161.002 147.447 C 161.104 147.282,161.138 147.066,161.077 146.967 C 160.887 146.660,160.316 146.769,160.316 147.112 M239.459 148.356 C 239.459 148.476,238.571 148.607,237.486 148.648 L 235.513 148.724 237.599 148.770 C 239.323 148.808,239.684 148.758,239.684 148.478 C 239.684 148.292,239.634 148.140,239.572 148.140 C 239.510 148.140,239.459 148.237,239.459 148.356 M265.172 149.144 C 265.023 149.324,264.944 149.653,264.997 149.876 C 265.075 150.209,265.138 150.173,265.342 149.678 C 265.509 149.273,265.800 149.043,266.223 148.979 C 266.848 148.885,266.847 148.883,266.149 148.850 C 265.762 148.831,265.322 148.964,265.172 149.144 M209.182 155.044 C 211.453 156.544,211.294 160.167,208.906 161.312 C 207.321 162.072,168.473 162.023,165.614 161.257 C 162.815 160.507,162.815 156.232,165.614 154.603 C 166.301 154.203,175.127 154.062,192.559 154.170 L 208.005 154.266 209.182 155.044 M105.354 170.104 C 109.934 172.321,110.704 179.353,106.667 182.097 C 106.229 182.394,105.990 182.638,106.135 182.638 C 106.281 182.638,106.462 182.537,106.539 182.413 C 106.616 182.289,106.786 182.187,106.918 182.187 C 107.288 182.187,106.661 182.847,105.935 183.222 C 105.371 183.514,105.299 183.512,105.299 183.208 C 105.299 183.018,105.417 182.864,105.562 182.864 C 105.707 182.864,105.773 182.812,105.709 182.748 C 105.646 182.684,105.226 182.786,104.777 182.973 C 101.432 184.371,96.855 181.767,96.190 178.089 C 95.212 172.684,100.738 167.869,105.354 170.104 M290.559 169.925 C 298.600 173.281,294.805 186.021,286.514 183.503 C 280.697 181.736,280.086 172.299,285.656 170.278 C 287.710 169.532,289.338 169.415,290.559 169.925 M227.283 171.200 C 232.774 173.926,232.599 180.721,226.965 183.548 C 223.478 185.298,219.052 183.427,217.933 179.730 C 216.141 173.811,221.920 168.539,227.283 171.200 M361.743 172.378 C 363.564 173.138,365.728 177.367,364.848 178.443 C 364.736 178.580,364.609 178.946,364.565 179.256 C 364.522 179.566,364.386 179.894,364.262 179.985 C 364.124 180.086,364.151 180.152,364.331 180.154 C 364.494 180.156,364.563 180.261,364.485 180.387 C 364.407 180.513,364.233 180.548,364.098 180.465 C 363.958 180.378,363.918 180.418,364.004 180.557 C 364.470 181.310,362.612 183.010,361.546 182.807 C 361.241 182.748,360.992 182.763,360.992 182.838 C 360.992 183.073,358.210 182.933,357.535 182.664 C 357.183 182.524,356.803 182.467,356.690 182.537 C 356.056 182.928,354.091 180.746,354.306 179.889 C 354.346 179.727,354.337 179.670,354.285 179.763 C 353.635 180.925,353.394 177.904,353.994 176.122 C 355.165 172.648,358.515 171.029,361.743 172.378 M240.197 175.178 C 242.734 176.142,243.278 180.278,241.133 182.301 C 238.235 185.034,233.001 181.798,234.472 178.182 C 234.711 177.595,234.962 176.940,235.030 176.728 C 235.454 175.406,238.440 174.510,240.197 175.178 M253.244 175.826 C 255.209 177.658,254.427 181.930,251.956 182.870 C 247.756 184.467,244.558 179.290,247.653 175.905 C 248.859 174.587,251.870 174.544,253.244 175.826 M275.117 175.899 C 277.112 177.479,277.505 179.600,276.175 181.608 C 274.543 184.072,270.526 183.662,269.308 180.907 C 267.637 177.129,271.961 173.400,275.117 175.899 M89.177 176.388 C 92.092 178.027,91.040 182.187,87.711 182.187 C 84.041 182.187,83.210 177.698,86.607 176.224 C 87.658 175.768,88.127 175.798,89.177 176.388 M118.193 176.075 C 119.996 176.772,120.736 178.905,119.741 180.538 C 119.492 180.945,119.398 181.304,119.522 181.366 C 119.642 181.427,119.611 181.447,119.453 181.410 C 119.295 181.374,118.995 181.492,118.787 181.673 C 117.662 182.652,115.173 182.349,114.535 181.156 C 114.343 180.799,114.181 180.692,114.078 180.857 C 113.991 180.998,113.928 180.224,113.939 179.137 C 113.949 178.050,113.990 177.259,114.030 177.379 C 114.071 177.499,114.511 177.210,115.009 176.736 C 115.962 175.829,116.998 175.614,118.193 176.075 M213.526 177.639 C 215.918 178.785,216.007 181.955,213.687 183.379 L 212.605 184.043 193.394 184.154 L 174.183 184.266 173.115 183.546 C 170.988 182.111,171.281 178.656,173.619 177.601 C 175.119 176.924,212.106 176.959,213.526 177.639 M102.368 183.766 C 102.619 183.928,102.484 183.985,101.847 183.988 C 101.331 183.990,101.044 183.901,101.127 183.766 C 101.304 183.481,101.927 183.481,102.368 183.766 " stroke="none" fill="#185992" fill-rule="evenodd"></path><path id="path3" d="M0.000 112.740 L 0.000 225.479 200.000 225.479 L 400.000 225.479 400.000 112.740 L 400.000 0.000 200.000 0.000 L 0.000 0.000 0.000 112.740 M188.501 15.465 C 191.572 16.416,193.781 17.841,193.643 18.783 C 193.582 19.196,179.993 19.455,172.999 19.177 C 171.471 19.116,174.022 16.864,176.980 15.662 C 179.906 14.473,185.012 14.386,188.501 15.465 M196.157 20.883 C 197.601 22.098,198.541 23.887,197.933 24.263 C 197.499 24.531,168.821 24.355,168.493 24.082 C 168.015 23.686,168.166 23.130,169.110 21.812 C 170.261 20.205,168.902 20.349,183.128 20.319 L 195.456 20.293 196.157 20.883 M199.272 26.228 C 200.105 27.059,200.229 28.927,199.484 29.415 C 198.655 29.957,166.969 29.859,166.624 29.312 C 166.335 28.855,166.370 27.568,166.698 26.607 C 167.063 25.537,166.257 25.582,183.653 25.654 L 198.760 25.716 199.272 26.228 M199.679 31.132 C 200.145 31.570,200.225 31.855,200.225 33.059 C 200.225 35.357,201.691 35.175,183.182 35.175 C 164.541 35.175,165.953 35.359,165.953 32.931 C 165.953 30.875,165.089 31.019,178.219 30.891 C 184.556 30.829,191.854 30.742,194.436 30.698 C 199.066 30.619,199.140 30.626,199.679 31.132 M199.910 36.567 C 200.169 36.825,200.293 37.347,200.306 38.227 C 200.339 40.541,201.796 40.361,183.025 40.361 C 164.439 40.361,165.953 40.541,165.953 38.331 C 165.953 36.008,164.379 36.179,185.618 36.185 C 198.322 36.189,199.566 36.222,199.910 36.567 M199.780 42.334 C 200.167 42.824,200.246 43.160,200.160 43.935 C 199.952 45.798,201.332 45.660,182.950 45.660 C 164.331 45.660,165.953 45.850,165.953 43.661 C 165.953 41.541,164.444 41.714,182.995 41.714 L 199.291 41.714 199.780 42.334 M154.060 42.931 C 154.326 43.197,154.379 47.158,154.397 68.305 C 154.424 98.830,154.266 97.148,157.731 103.935 C 161.924 112.147,166.861 116.114,176.099 118.694 C 180.886 120.031,190.683 119.362,193.965 117.474 C 194.181 117.350,194.463 117.249,194.593 117.249 C 194.722 117.249,195.527 116.910,196.380 116.496 C 201.863 113.836,208.013 106.978,210.161 101.127 C 212.131 95.760,212.245 93.696,212.081 66.404 C 211.972 48.336,212.002 43.974,212.239 43.517 C 213.035 41.986,218.813 42.923,219.701 44.727 C 220.352 46.050,220.282 93.953,219.624 96.971 C 218.650 101.444,216.735 105.959,213.815 110.663 C 213.254 111.567,212.867 112.378,212.955 112.466 C 213.043 112.555,241.898 112.642,277.076 112.661 C 343.184 112.697,342.520 112.689,345.392 113.450 C 346.345 113.702,347.449 113.989,347.844 114.086 C 353.072 115.379,357.979 121.483,360.537 129.876 C 360.933 131.178,361.714 133.664,362.272 135.400 C 362.830 137.136,363.395 138.912,363.527 139.346 C 363.659 139.780,363.893 140.440,364.047 140.812 C 364.444 141.772,370.873 161.668,371.405 163.585 C 371.779 164.930,373.234 169.285,374.418 172.604 C 376.421 178.217,378.362 185.397,378.691 188.409 C 379.304 194.030,374.551 199.460,367.418 201.287 C 365.908 201.674,359.237 201.691,213.191 201.686 L 60.541 201.680 57.928 200.973 C 53.490 199.772,49.284 197.369,47.017 194.739 C 44.870 192.249,44.062 190.460,41.606 182.751 C 40.895 180.519,39.772 177.018,39.111 174.972 C 38.450 172.926,37.333 169.425,36.630 167.193 C 35.926 164.961,35.222 162.728,35.065 162.232 C 34.908 161.736,34.250 159.656,33.603 157.610 C 32.956 155.564,31.821 152.020,31.082 149.736 C 30.342 147.451,29.596 145.066,29.424 144.437 C 29.252 143.807,28.513 141.567,27.782 139.459 C 27.052 137.351,26.397 135.372,26.326 135.062 C 26.256 134.752,25.783 133.129,25.275 131.454 C 24.768 129.780,24.240 128.005,24.103 127.508 C 23.966 127.012,23.763 126.373,23.652 126.089 C 21.977 121.795,26.654 115.581,33.391 113.149 L 34.837 112.627 94.133 112.585 C 134.595 112.556,153.454 112.469,153.506 112.311 C 153.549 112.183,152.916 111.120,152.100 109.950 C 151.284 108.779,150.177 106.873,149.640 105.714 C 148.101 102.394,147.997 102.040,146.803 96.093 C 146.407 94.125,146.478 45.466,146.878 44.317 C 147.415 42.777,147.802 42.616,150.967 42.616 C 153.046 42.616,153.824 42.695,154.060 42.931 M199.874 47.852 C 200.313 48.478,200.331 50.052,199.906 50.633 C 199.519 51.163,194.225 51.341,177.636 51.383 C 165.641 51.414,165.963 51.472,165.956 49.285 C 165.950 47.180,164.437 47.351,183.111 47.351 L 199.523 47.351 199.874 47.852 M234.689 51.118 C 236.067 51.978,236.023 51.298,236.177 74.183 C 236.340 98.345,236.237 102.153,235.396 103.215 C 234.053 104.909,231.439 104.516,230.674 102.504 C 229.881 100.417,229.648 53.863,230.423 52.343 C 231.305 50.614,233.070 50.107,234.689 51.118 M134.611 51.024 C 134.921 51.181,135.395 51.712,135.664 52.204 L 136.153 53.100 136.171 77.745 C 136.187 99.193,136.146 102.474,135.852 103.041 C 134.880 104.922,132.012 104.881,130.883 102.971 C 130.304 101.990,130.136 95.252,130.117 72.238 L 130.101 53.495 130.698 52.427 C 131.552 50.900,133.197 50.310,134.611 51.024 M199.801 53.239 C 200.190 53.628,200.257 53.904,200.164 54.728 C 199.952 56.607,201.298 56.454,183.167 56.655 C 164.608 56.860,165.953 56.999,165.953 54.884 C 165.953 52.530,164.100 52.762,182.872 52.762 L 199.324 52.762 199.801 53.239 M199.774 58.737 C 200.364 59.271,200.309 60.893,199.679 61.523 C 199.095 62.107,166.659 62.211,166.235 61.630 C 165.812 61.052,165.876 59.083,166.334 58.577 C 166.948 57.898,199.017 58.051,199.774 58.737 M199.526 64.127 C 200.184 64.723,200.183 66.281,199.525 66.876 C 198.858 67.479,167.413 67.463,166.491 66.859 C 165.725 66.357,165.705 64.462,166.460 63.929 C 167.315 63.327,198.850 63.515,199.526 64.127 M199.420 69.576 C 199.959 70.115,199.887 71.757,199.300 72.287 C 198.624 72.899,167.416 73.102,166.498 72.500 C 165.830 72.063,165.707 70.176,166.307 69.576 C 166.847 69.037,198.880 69.037,199.420 69.576 M198.931 75.366 C 199.291 75.641,199.430 76.262,199.359 77.274 C 199.303 78.068,198.290 78.192,189.515 78.480 C 177.688 78.868,169.328 78.714,167.939 78.083 C 166.660 77.501,165.985 75.948,166.764 75.378 C 167.341 74.957,198.378 74.945,198.931 75.366 M164.724 77.572 C 165.557 78.087,168.524 79.143,169.136 79.143 C 170.100 79.143,170.236 79.864,170.245 84.999 C 170.256 91.678,170.649 93.218,173.090 96.130 C 177.808 101.758,186.541 101.923,191.553 96.478 C 194.542 93.230,195.020 91.621,195.031 84.759 C 195.041 79.230,195.026 79.276,196.843 79.081 C 198.303 78.925,200.452 78.271,201.155 77.770 C 202.425 76.866,202.565 77.078,202.402 79.651 C 202.321 80.922,202.200 83.687,202.132 85.795 C 201.973 90.755,201.584 92.945,200.267 96.280 C 194.338 111.295,172.951 111.780,165.513 97.069 C 163.638 93.362,163.262 90.902,163.252 82.289 C 163.246 76.878,163.304 76.694,164.724 77.572 M192.108 81.172 C 193.115 81.711,193.160 83.521,192.176 83.896 C 191.129 84.294,172.578 84.158,172.169 83.749 C 171.641 83.221,171.711 81.727,172.293 81.146 C 172.818 80.620,191.123 80.645,192.108 81.172 M59.934 132.304 L 55.043 132.365 54.889 133.391 C 54.805 133.956,54.828 134.740,54.941 135.134 L 55.146 135.851 64.363 135.910 C 70.709 135.951,73.673 136.047,73.881 136.220 C 74.129 136.426,74.183 140.580,74.183 159.763 C 74.183 186.004,74.016 183.766,75.975 183.766 C 77.740 183.766,77.611 185.682,77.578 159.849 C 77.555 142.499,77.614 136.514,77.809 136.279 C 78.026 136.019,79.652 135.964,87.163 135.964 L 96.254 135.964 96.605 135.463 C 96.979 134.929,97.077 133.121,96.758 132.619 C 96.570 132.323,73.999 132.130,59.934 132.304 M126.637 132.607 C 126.157 133.292,126.061 182.792,126.539 183.269 C 126.890 183.621,129.029 183.621,129.380 183.269 C 129.582 183.067,129.651 180.411,129.651 172.707 C 129.651 163.023,129.675 162.393,130.063 162.042 C 130.586 161.568,142.318 161.500,143.565 161.963 C 144.054 162.145,144.970 163.064,146.384 164.790 C 147.536 166.197,149.087 168.092,149.831 169.001 C 150.575 169.910,152.051 171.651,153.110 172.869 C 154.169 174.088,156.286 176.556,157.813 178.354 C 162.017 183.302,161.699 183.013,163.068 183.145 C 166.403 183.466,166.235 183.075,159.870 175.680 C 154.384 169.305,153.049 167.735,152.533 167.047 C 152.287 166.719,151.139 165.368,149.981 164.045 C 147.524 161.236,147.521 161.346,150.093 160.074 C 160.041 155.155,160.223 139.508,150.395 134.101 C 147.131 132.306,147.124 132.305,136.502 132.187 L 127.005 132.081 126.637 132.607 M146.021 136.044 C 156.460 138.035,157.754 152.485,147.928 157.343 L 146.248 158.174 138.267 158.241 C 132.416 158.290,130.202 158.238,129.969 158.044 C 129.382 157.558,129.509 136.782,130.101 136.189 C 130.677 135.614,143.166 135.500,146.021 136.044 " stroke="none" fill="#040404" fill-rule="evenodd"></path><path id="path4" d="M179.673 14.882 C 176.944 15.317,172.717 17.594,172.717 18.629 C 172.717 18.924,172.844 19.171,172.999 19.177 C 179.993 19.455,193.582 19.196,193.643 18.783 C 193.981 16.473,185.153 14.008,179.673 14.882 M188.501 15.961 C 190.814 16.727,192.875 17.881,192.726 18.326 C 192.584 18.754,173.619 18.842,173.619 18.414 C 173.619 17.880,174.992 16.955,177.001 16.134 C 180.118 14.860,184.961 14.787,188.501 15.961 M170.407 20.448 C 169.388 20.715,167.882 23.575,168.493 24.082 C 168.821 24.355,197.499 24.531,197.933 24.263 C 198.541 23.887,197.601 22.098,196.157 20.883 L 195.456 20.293 183.128 20.319 C 176.348 20.334,170.623 20.392,170.407 20.448 M196.448 21.885 C 198.415 23.926,199.379 23.788,183.161 23.788 C 175.329 23.788,168.845 23.712,168.752 23.619 C 168.526 23.393,169.014 22.515,169.908 21.539 L 170.636 20.744 182.992 20.744 L 195.348 20.744 196.448 21.885 M167.756 25.705 C 166.666 25.860,165.928 28.210,166.624 29.312 C 166.969 29.859,198.655 29.957,199.484 29.415 C 200.229 28.927,200.105 27.059,199.272 26.228 L 198.760 25.716 183.653 25.654 C 175.344 25.620,168.191 25.643,167.756 25.705 M199.009 26.565 C 199.332 27.006,199.616 28.571,199.428 28.875 C 199.204 29.236,167.190 29.153,166.889 28.790 C 166.585 28.424,166.948 26.918,167.487 26.313 C 168.020 25.713,198.565 25.957,199.009 26.565 M178.219 30.891 C 165.089 31.019,165.953 30.875,165.953 32.931 C 165.953 35.359,164.541 35.175,183.182 35.175 C 201.691 35.175,200.225 35.357,200.225 33.059 C 200.225 30.639,200.133 30.601,194.436 30.698 C 191.854 30.742,184.556 30.829,178.219 30.891 M199.504 31.612 C 199.787 31.895,199.873 33.528,199.638 34.142 C 199.498 34.506,167.692 34.719,166.760 34.361 C 166.308 34.188,166.242 31.670,166.685 31.491 C 167.350 31.223,199.232 31.341,199.504 31.612 M169.231 36.250 C 166.185 36.334,165.953 36.482,165.953 38.331 C 165.953 40.541,164.439 40.361,183.025 40.361 C 201.796 40.361,200.339 40.541,200.306 38.227 C 200.274 36.016,201.527 36.190,185.618 36.185 C 177.964 36.183,170.590 36.212,169.231 36.250 M199.504 36.798 C 199.855 37.149,199.855 39.288,199.504 39.639 C 199.146 39.997,167.506 40.033,166.840 39.676 C 166.311 39.393,166.211 37.419,166.706 37.009 C 166.915 36.835,170.060 36.739,176.909 36.697 C 182.354 36.663,189.605 36.611,193.021 36.582 C 197.614 36.542,199.304 36.598,199.504 36.798 M166.326 42.126 C 165.857 42.644,165.824 44.608,166.273 45.222 C 166.733 45.851,199.052 45.915,199.679 45.288 C 200.301 44.666,200.356 43.063,199.780 42.334 L 199.291 41.714 182.995 41.714 C 167.494 41.714,166.681 41.734,166.326 42.126 M199.182 42.454 C 199.487 42.677,199.562 43.000,199.507 43.863 L 199.436 44.983 197.069 45.125 C 192.884 45.375,167.318 45.344,166.840 45.088 C 166.240 44.767,166.209 42.751,166.798 42.408 C 167.433 42.039,198.674 42.083,199.182 42.454 M147.689 43.021 C 146.546 43.946,146.568 43.409,146.565 70.050 C 146.563 86.804,146.640 95.283,146.803 96.093 C 147.997 102.040,148.101 102.394,149.640 105.714 C 150.177 106.873,151.284 108.779,152.100 109.950 C 152.916 111.120,153.549 112.183,153.506 112.311 C 153.454 112.469,134.595 112.556,94.133 112.585 L 34.837 112.627 33.391 113.149 C 26.654 115.581,21.977 121.795,23.652 126.089 C 23.763 126.373,23.966 127.012,24.103 127.508 C 24.240 128.005,24.768 129.780,25.275 131.454 C 25.783 133.129,26.256 134.752,26.326 135.062 C 26.397 135.372,27.052 137.351,27.782 139.459 C 28.513 141.567,29.252 143.807,29.424 144.437 C 29.596 145.066,30.342 147.451,31.082 149.736 C 31.821 152.020,32.956 155.564,33.603 157.610 C 34.250 159.656,34.908 161.736,35.065 162.232 C 35.222 162.728,35.926 164.961,36.630 167.193 C 37.333 169.425,38.450 172.926,39.111 174.972 C 39.772 177.018,40.895 180.519,41.606 182.751 C 44.062 190.460,44.870 192.249,47.017 194.739 C 49.284 197.369,53.490 199.772,57.928 200.973 L 60.541 201.680 213.191 201.686 C 359.237 201.691,365.908 201.674,367.418 201.287 C 374.551 199.460,379.304 194.030,378.691 188.409 C 378.362 185.397,376.421 178.217,374.418 172.604 C 373.234 169.285,371.779 164.930,371.405 163.585 C 370.873 161.668,364.444 141.772,364.047 140.812 C 363.893 140.440,363.659 139.780,363.527 139.346 C 363.395 138.912,362.830 137.136,362.272 135.400 C 361.714 133.664,360.933 131.178,360.537 129.876 C 357.979 121.483,353.072 115.379,347.844 114.086 C 347.449 113.989,346.345 113.702,345.392 113.450 C 342.520 112.689,343.184 112.697,277.076 112.661 C 241.898 112.642,213.043 112.555,212.955 112.466 C 212.867 112.378,213.254 111.567,213.815 110.663 C 216.735 105.959,218.650 101.444,219.624 96.971 C 220.282 93.953,220.352 46.050,219.701 44.727 C 218.813 42.923,213.035 41.986,212.239 43.517 C 212.002 43.974,211.972 48.336,212.081 66.404 C 212.245 93.696,212.131 95.760,210.161 101.127 C 208.013 106.978,201.863 113.836,196.380 116.496 C 195.527 116.910,194.722 117.249,194.593 117.249 C 194.463 117.249,194.181 117.350,193.965 117.474 C 190.683 119.362,180.886 120.031,176.099 118.694 C 166.861 116.114,161.924 112.147,157.731 103.935 C 154.266 97.148,154.424 98.830,154.397 68.305 C 154.379 47.158,154.326 43.197,154.060 42.931 C 153.543 42.414,148.348 42.487,147.689 43.021 M153.817 44.081 C 153.904 44.577,153.982 55.905,153.989 69.254 C 154.005 98.167,153.887 96.967,157.398 103.974 C 161.914 112.986,168.778 118.011,178.467 119.398 C 195.002 121.765,209.165 111.558,211.950 95.266 C 212.382 92.740,212.401 91.593,212.405 68.354 C 212.407 55.004,212.496 43.943,212.602 43.775 C 213.014 43.125,218.204 43.515,218.830 44.243 C 219.786 45.354,219.812 46.137,219.743 71.364 L 219.677 95.490 219.077 97.858 C 217.973 102.214,215.898 106.913,213.414 110.680 C 212.609 111.901,211.950 112.964,211.950 113.042 C 211.950 113.120,241.502 113.213,277.621 113.247 L 343.292 113.310 345.547 113.939 C 353.748 116.226,357.815 121.387,361.218 133.822 C 361.455 134.690,362.120 136.770,362.694 138.444 C 363.269 140.118,364.073 142.554,364.481 143.856 C 364.890 145.158,365.474 146.933,365.779 147.802 C 366.084 148.670,366.499 149.938,366.702 150.620 C 367.669 153.881,367.999 154.932,368.613 156.708 C 369.243 158.529,369.867 160.517,371.409 165.614 C 371.785 166.855,372.798 169.848,373.662 172.266 C 374.526 174.684,375.368 177.277,375.532 178.028 C 375.697 178.779,376.083 180.251,376.389 181.298 C 378.194 187.459,378.355 191.241,376.901 193.342 C 375.877 194.824,374.185 196.756,373.540 197.182 C 372.016 198.188,371.234 198.663,370.913 198.778 C 370.727 198.845,369.915 199.220,369.109 199.612 L 367.644 200.326 362.232 200.372 C 346.710 200.504,119.762 200.362,118.489 200.220 C 118.365 200.206,107.965 200.259,95.378 200.339 C 82.790 200.419,70.158 200.394,67.306 200.284 C 64.453 200.174,61.714 200.159,61.218 200.249 C 60.295 200.417,59.538 200.309,57.159 199.670 C 55.620 199.257,55.656 199.272,52.741 197.892 C 50.039 196.612,48.487 195.345,46.749 192.996 C 45.823 191.744,44.419 189.174,44.419 188.730 C 44.419 188.601,44.232 188.066,44.003 187.540 C 43.775 187.014,43.204 185.366,42.735 183.878 C 42.266 182.390,41.383 179.701,40.772 177.903 C 40.161 176.105,39.520 174.126,39.347 173.506 C 39.173 172.886,38.613 171.161,38.101 169.673 C 37.589 168.185,37.085 166.663,36.981 166.291 C 36.296 163.844,35.162 160.261,34.942 159.851 C 34.798 159.583,34.333 158.132,33.908 156.626 C 33.166 154.003,32.198 151.010,31.783 150.056 C 31.675 149.808,31.319 148.692,30.992 147.576 C 30.666 146.460,29.406 142.554,28.192 138.895 C 23.409 124.472,23.244 123.338,25.390 119.654 C 25.973 118.653,28.674 116.212,30.327 115.191 C 33.929 112.968,26.777 113.191,94.599 113.191 C 128.459 113.191,154.254 113.105,154.323 112.993 C 154.390 112.884,154.136 112.352,153.757 111.809 C 150.062 106.513,148.695 103.555,147.420 98.083 C 146.834 95.570,146.475 48.710,147.017 45.547 C 147.421 43.191,147.665 43.040,150.944 43.116 L 153.657 43.179 153.817 44.081 M166.326 47.763 C 165.501 48.675,165.872 50.767,166.930 51.170 C 168.586 51.799,199.420 51.298,199.906 50.633 C 200.331 50.052,200.313 48.478,199.874 47.852 L 199.523 47.351 183.111 47.351 C 167.498 47.351,166.681 47.371,166.326 47.763 M199.541 48.238 C 199.876 48.863,199.829 49.653,199.424 50.232 L 199.073 50.733 183.009 50.733 C 170.815 50.733,166.880 50.668,166.674 50.462 C 166.311 50.100,166.320 48.098,166.685 47.951 C 167.700 47.542,199.316 47.818,199.541 48.238 M232.173 50.746 C 231.315 50.991,230.937 51.336,230.423 52.343 C 229.648 53.863,229.881 100.417,230.674 102.504 C 231.439 104.516,234.053 104.909,235.396 103.215 C 236.237 102.153,236.340 98.345,236.177 74.183 C 236.046 54.696,236.010 53.264,235.627 52.387 C 235.015 50.985,233.633 50.328,232.173 50.746 M131.995 51.055 C 131.558 51.245,131.071 51.761,130.698 52.427 L 130.101 53.495 130.117 72.238 C 130.136 95.252,130.304 101.990,130.883 102.971 C 132.012 104.881,134.880 104.922,135.852 103.041 C 136.146 102.474,136.187 99.193,136.171 77.745 L 136.153 53.100 135.664 52.204 C 134.895 50.796,133.554 50.376,131.995 51.055 M234.575 51.647 C 235.733 52.557,235.720 52.261,235.729 77.903 C 235.739 104.452,235.838 102.777,234.218 103.569 C 233.518 103.911,233.243 103.939,232.610 103.730 C 230.483 103.028,230.437 102.417,230.408 73.934 C 230.385 51.626,230.341 52.429,231.647 51.514 C 232.344 51.026,233.873 51.095,234.575 51.647 M134.963 52.100 L 135.626 52.791 135.738 58.470 C 135.800 61.593,135.800 72.808,135.738 83.391 L 135.626 102.632 134.993 103.176 C 133.800 104.202,131.841 103.769,131.088 102.313 C 130.459 101.097,130.117 58.248,130.701 53.933 C 131.014 51.628,133.490 50.563,134.963 52.100 M166.186 53.198 C 165.712 54.084,165.896 56.097,166.487 56.484 C 167.310 57.023,199.127 56.663,199.682 56.108 C 200.299 55.491,200.369 53.807,199.801 53.239 L 199.324 52.762 182.872 52.762 C 166.837 52.762,166.414 52.773,166.186 53.198 M199.571 53.735 C 200.164 55.036,199.575 55.791,197.844 55.951 C 195.099 56.204,167.581 56.378,166.970 56.145 C 166.336 55.904,166.128 54.030,166.674 53.484 C 166.880 53.278,170.844 53.213,183.139 53.213 L 199.333 53.213 199.571 53.735 M166.334 58.577 C 165.876 59.083,165.812 61.052,166.235 61.630 C 166.659 62.211,199.095 62.107,199.679 61.523 C 200.309 60.893,200.364 59.271,199.774 58.737 C 199.017 58.051,166.948 57.898,166.334 58.577 M197.069 58.821 L 199.436 58.963 199.436 60.086 L 199.436 61.210 198.534 61.370 C 196.805 61.677,166.935 61.587,166.679 61.274 C 166.132 60.607,166.275 59.113,166.911 58.857 C 167.478 58.629,193.338 58.598,197.069 58.821 M166.460 63.929 C 165.705 64.462,165.725 66.357,166.491 66.859 C 167.413 67.463,198.858 67.479,199.525 66.876 C 200.183 66.281,200.184 64.723,199.526 64.127 C 198.850 63.515,167.315 63.327,166.460 63.929 M198.929 64.378 C 199.395 64.564,199.483 66.042,199.053 66.471 C 198.662 66.863,167.066 66.863,166.674 66.471 C 166.275 66.072,166.345 64.803,166.792 64.357 C 167.195 63.953,197.914 63.973,198.929 64.378 M166.307 69.576 C 165.707 70.176,165.830 72.063,166.498 72.500 C 167.416 73.102,198.624 72.899,199.300 72.287 C 199.887 71.757,199.959 70.115,199.420 69.576 C 198.880 69.037,166.847 69.037,166.307 69.576 M198.478 69.832 C 199.178 69.971,199.396 71.400,198.793 71.900 C 198.487 72.155,167.033 72.404,166.782 72.153 C 166.415 71.787,166.393 70.393,166.748 70.038 C 167.126 69.659,196.637 69.468,198.478 69.832 M166.764 75.378 C 165.985 75.948,166.660 77.501,167.939 78.083 C 169.328 78.714,177.688 78.868,189.515 78.480 C 198.290 78.192,199.303 78.068,199.359 77.274 C 199.430 76.262,199.291 75.641,198.931 75.366 C 198.378 74.945,167.341 74.957,166.764 75.378 M198.018 75.870 C 198.550 76.088,198.763 76.872,198.388 77.229 C 197.529 78.047,169.161 78.320,167.944 77.522 C 167.302 77.101,167.009 76.155,167.395 75.748 C 167.671 75.457,197.299 75.575,198.018 75.870 M163.517 77.384 C 163.185 77.717,163.152 85.615,163.467 89.515 C 165.237 111.467,195.397 114.712,201.185 93.574 C 201.809 91.297,202.008 89.657,202.132 85.795 C 202.200 83.687,202.321 80.922,202.402 79.651 C 202.565 77.078,202.425 76.866,201.155 77.770 C 200.452 78.271,198.303 78.925,196.843 79.081 C 195.026 79.276,195.041 79.230,195.031 84.759 C 195.020 91.621,194.542 93.230,191.553 96.478 C 186.541 101.923,177.808 101.758,173.090 96.130 C 170.649 93.218,170.256 91.678,170.245 84.999 C 170.236 79.864,170.100 79.143,169.136 79.143 C 168.524 79.143,165.557 78.087,164.724 77.572 C 163.853 77.034,163.866 77.036,163.517 77.384 M165.156 78.231 C 165.284 78.335,166.299 78.740,167.412 79.131 C 169.951 80.024,169.778 79.620,169.784 84.667 C 169.792 91.486,170.524 93.995,173.324 96.805 C 179.844 103.347,189.768 101.622,194.301 93.158 C 195.160 91.554,195.341 90.308,195.472 85.119 L 195.603 79.933 197.372 79.560 C 198.344 79.355,199.740 78.890,200.472 78.527 C 202.185 77.678,202.071 77.279,201.909 83.531 C 201.708 91.317,201.290 93.466,199.088 98.014 C 193.642 109.264,176.547 110.850,168.337 100.868 C 164.484 96.183,163.706 93.382,163.701 84.166 L 163.698 77.576 164.311 77.809 C 164.648 77.937,165.028 78.127,165.156 78.231 M172.293 81.146 C 171.711 81.727,171.641 83.221,172.169 83.749 C 172.578 84.158,191.129 84.294,192.176 83.896 C 193.160 83.521,193.115 81.711,192.108 81.172 C 191.123 80.645,172.818 80.620,172.293 81.146 M191.601 81.800 C 192.153 82.116,192.277 82.943,191.838 83.382 C 191.449 83.771,172.926 83.771,172.537 83.382 C 172.183 83.029,172.190 82.016,172.548 81.656 C 172.957 81.245,190.866 81.381,191.601 81.800 M126.464 131.873 C 125.594 132.568,125.613 132.015,125.553 158.908 C 125.490 187.149,125.236 184.256,127.795 184.401 C 129.068 184.473,129.412 184.412,129.880 184.033 L 130.440 183.580 130.440 173.019 L 130.440 162.458 136.866 162.458 C 144.043 162.458,143.842 162.416,145.016 164.139 C 145.308 164.568,145.902 165.338,146.336 165.851 C 146.770 166.365,147.988 167.838,149.042 169.125 C 150.096 170.412,151.364 171.929,151.860 172.497 C 152.356 173.064,153.219 174.079,153.777 174.752 C 154.693 175.856,156.031 177.383,156.933 178.354 C 157.120 178.555,157.779 179.354,158.399 180.131 C 160.810 183.152,161.059 183.436,161.525 183.701 C 162.357 184.174,164.973 184.068,165.502 183.540 C 166.257 182.785,166.073 181.960,164.793 180.364 C 162.610 177.640,159.472 173.980,158.061 172.509 C 157.751 172.186,156.584 170.821,155.468 169.475 C 154.352 168.130,152.560 166.037,151.487 164.825 C 148.490 161.440,148.501 161.607,151.192 160.300 C 155.160 158.372,158.286 152.568,158.286 147.129 C 158.286 140.086,154.172 134.467,147.325 132.160 C 145.141 131.424,127.331 131.179,126.464 131.873 M54.718 131.962 C 54.267 132.291,53.983 134.177,54.206 135.365 C 54.455 136.689,54.800 136.728,64.624 136.547 C 71.095 136.427,73.278 136.453,73.400 136.651 C 73.590 136.959,73.569 161.163,73.368 174.070 L 73.228 182.976 73.769 183.763 C 74.710 185.132,76.568 185.248,77.802 184.014 L 78.421 183.395 78.297 160.209 C 78.176 137.852,78.186 137.013,78.588 136.719 C 78.920 136.476,80.778 136.415,87.832 136.415 C 98.185 136.415,97.407 136.622,97.407 133.868 C 97.407 132.397,97.344 132.113,96.971 131.913 C 96.285 131.546,55.222 131.593,54.718 131.962 M178.188 131.842 C 178.531 131.893,179.038 131.892,179.315 131.839 C 179.593 131.785,179.312 131.743,178.692 131.744 C 178.072 131.746,177.845 131.790,178.188 131.842 M184.837 131.843 C 185.240 131.893,185.899 131.893,186.302 131.843 C 186.705 131.793,186.375 131.752,185.569 131.752 C 184.763 131.752,184.433 131.793,184.837 131.843 M96.758 132.619 C 97.077 133.121,96.979 134.929,96.605 135.463 L 96.254 135.964 87.163 135.964 C 79.652 135.964,78.026 136.019,77.809 136.279 C 77.614 136.514,77.555 142.499,77.578 159.849 C 77.611 185.682,77.740 183.766,75.975 183.766 C 74.016 183.766,74.183 186.004,74.183 159.763 C 74.183 140.580,74.129 136.426,73.881 136.220 C 73.673 136.047,70.709 135.951,64.363 135.910 L 55.146 135.851 54.941 135.134 C 54.828 134.740,54.805 133.956,54.889 133.391 L 55.043 132.365 59.934 132.304 C 73.999 132.130,96.570 132.323,96.758 132.619 M147.463 132.794 C 159.766 137.002,161.449 154.458,150.093 160.074 C 147.521 161.346,147.524 161.236,149.981 164.045 C 151.139 165.368,152.287 166.719,152.533 167.047 C 153.049 167.735,154.384 169.305,159.870 175.680 C 166.235 183.075,166.403 183.466,163.068 183.145 C 161.699 183.013,162.017 183.302,157.813 178.354 C 156.286 176.556,154.169 174.088,153.110 172.869 C 152.051 171.651,150.575 169.910,149.831 169.001 C 143.094 160.769,144.765 161.698,136.658 161.681 C 131.210 161.670,130.426 161.713,130.063 162.042 C 129.675 162.393,129.651 163.023,129.651 172.707 C 129.651 180.411,129.582 183.067,129.380 183.269 C 129.029 183.621,126.890 183.621,126.539 183.269 C 126.061 182.792,126.157 133.292,126.637 132.607 L 127.005 132.081 136.502 132.187 C 145.577 132.288,146.063 132.315,147.463 132.794 M321.735 135.897 C 321.320 136.616,320.857 137.481,320.706 137.818 C 320.556 138.156,320.282 138.765,320.099 139.171 C 319.066 141.458,319.724 140.572,321.059 137.881 C 322.711 134.547,322.993 133.719,321.735 135.897 M130.101 136.189 C 129.509 136.782,129.382 157.558,129.969 158.044 C 130.202 158.238,132.416 158.290,138.267 158.241 L 146.248 158.174 147.928 157.343 C 157.754 152.485,156.460 138.035,146.021 136.044 C 143.166 135.500,130.677 135.614,130.101 136.189 M146.372 136.736 C 154.038 138.569,156.657 149.004,150.843 154.550 C 147.865 157.390,145.767 157.881,136.979 157.790 L 130.440 157.723 130.381 147.253 C 130.335 139.026,130.383 136.744,130.607 136.602 C 131.118 136.277,144.944 136.395,146.372 136.736 M332.121 139.616 C 332.485 140.646,333.332 142.807,334.004 144.419 C 336.359 150.076,339.384 157.298,340.520 159.977 C 341.151 161.466,341.961 163.393,342.320 164.262 C 342.679 165.130,343.222 166.423,343.527 167.136 C 343.832 167.849,344.323 169.016,344.618 169.729 C 344.913 170.443,345.333 171.432,345.550 171.928 C 348.612 178.904,349.232 181.650,347.972 182.641 C 347.236 183.220,344.239 183.287,343.462 182.743 C 342.756 182.249,340.485 177.475,338.199 171.682 C 337.460 169.811,336.731 168.113,336.579 167.907 C 336.288 167.516,315.879 167.292,314.896 167.670 C 314.469 167.833,314.205 168.371,309.863 177.903 C 307.379 183.356,307.322 183.413,304.393 183.273 C 300.873 183.104,300.655 182.247,302.839 177.158 C 305.489 170.982,306.711 168.310,308.715 164.307 C 309.826 162.086,311.380 158.834,312.166 157.079 C 312.953 155.325,314.305 152.418,315.172 150.620 C 317.183 146.446,318.368 143.893,318.625 143.179 C 319.044 142.017,317.730 143.910,317.217 145.208 C 316.947 145.890,315.601 148.685,314.226 151.418 C 311.371 157.089,309.583 160.807,309.583 161.068 C 309.583 161.166,309.089 162.083,308.485 163.105 C 307.882 164.127,307.168 165.414,306.900 165.965 C 306.631 166.516,306.216 167.322,305.978 167.756 C 305.740 168.191,305.333 169.053,305.073 169.673 C 304.813 170.293,304.403 171.176,304.161 171.634 C 303.919 172.093,303.722 172.600,303.724 172.762 C 303.726 172.923,303.375 173.766,302.944 174.634 C 300.193 180.181,300.039 183.655,302.520 184.231 C 306.255 185.098,308.108 184.125,309.848 180.385 C 310.338 179.330,310.936 178.092,311.176 177.633 C 311.416 177.174,311.612 176.666,311.612 176.504 C 311.612 176.341,311.866 175.732,312.176 175.149 C 312.486 174.567,312.740 173.958,312.740 173.795 C 312.740 173.633,312.955 173.098,313.217 172.608 C 313.480 172.118,313.844 171.215,314.026 170.602 C 314.208 169.988,314.634 169.209,314.973 168.871 L 315.588 168.255 325.435 168.222 C 335.575 168.188,336.189 168.237,336.189 169.084 C 336.189 169.309,336.431 169.948,336.727 170.504 C 337.023 171.060,337.341 171.862,337.434 172.285 C 337.527 172.709,337.841 173.563,338.133 174.183 C 338.425 174.803,339.029 176.269,339.476 177.442 C 339.922 178.614,340.482 179.820,340.719 180.122 C 340.956 180.423,341.150 180.772,341.150 180.898 C 341.150 182.289,343.366 184.161,345.096 184.231 C 347.473 184.327,347.686 184.272,348.640 183.318 L 349.538 182.421 349.459 180.444 C 349.396 178.875,349.281 178.327,348.901 177.790 C 348.637 177.418,348.345 176.759,348.252 176.325 C 348.158 175.891,347.850 175.079,347.567 174.521 C 347.284 173.963,346.752 172.796,346.386 171.928 C 346.020 171.060,345.336 169.436,344.867 168.320 C 344.397 167.204,343.825 165.937,343.596 165.505 C 343.367 165.073,343.179 164.580,343.179 164.411 C 343.179 164.241,342.929 163.631,342.624 163.055 C 341.878 161.648,340.066 157.517,339.642 156.257 C 339.454 155.699,339.121 154.938,338.902 154.566 C 338.683 154.194,338.440 153.552,338.363 153.139 C 338.286 152.726,337.775 151.458,337.228 150.320 C 335.930 147.622,334.910 145.248,334.719 144.485 C 334.635 144.149,334.429 143.760,334.261 143.621 C 334.093 143.481,333.798 142.824,333.605 142.160 C 333.412 141.495,333.098 140.796,332.907 140.606 C 332.717 140.415,332.411 139.754,332.227 139.136 C 332.044 138.518,331.796 137.952,331.676 137.878 C 331.556 137.804,331.757 138.586,332.121 139.616 M276.164 138.494 C 275.980 138.776,275.698 139.414,275.536 139.910 C 275.375 140.406,275.005 141.035,274.713 141.308 C 274.421 141.581,274.183 142.050,274.183 142.349 C 274.183 142.648,273.988 143.140,273.750 143.443 C 273.291 144.026,271.164 148.388,270.690 149.718 C 270.424 150.464,269.865 151.678,267.472 156.708 C 266.911 157.886,266.208 159.408,265.910 160.090 C 265.612 160.772,265.177 161.736,264.945 162.232 C 264.115 164.004,263.181 166.301,263.042 166.911 C 262.825 167.862,262.067 167.739,261.646 166.685 C 261.258 165.717,261.004 165.155,259.882 162.779 C 259.439 161.840,259.076 160.907,259.076 160.707 C 259.076 160.506,258.986 160.287,258.877 160.219 C 258.767 160.152,258.392 159.410,258.041 158.571 C 257.691 157.733,257.188 156.691,256.923 156.257 C 256.658 155.823,256.159 154.758,255.814 153.890 C 255.065 152.007,252.947 147.761,252.440 147.125 C 252.025 146.606,252.515 148.002,253.507 150.169 C 254.486 152.306,255.949 155.629,256.633 157.272 C 256.995 158.140,257.888 160.169,258.619 161.781 C 259.349 163.393,260.275 165.559,260.675 166.593 C 262.108 170.293,262.913 170.053,264.490 165.455 C 264.988 164.004,265.990 161.569,266.716 160.044 C 268.384 156.541,269.997 152.986,270.552 151.589 C 270.983 150.504,271.588 149.165,273.422 145.239 C 273.964 144.078,274.408 143.083,274.408 143.027 C 274.408 142.906,276.132 139.182,276.462 138.591 C 276.805 137.977,276.554 137.894,276.164 138.494 M283.920 139.909 C 283.778 140.219,283.755 140.474,283.868 140.474 C 284.090 140.474,284.433 139.600,284.274 139.441 C 284.220 139.388,284.061 139.598,283.920 139.909 M250.091 142.439 C 250.347 143.032,250.857 144.126,251.224 144.870 C 252.124 146.700,251.814 145.373,250.856 143.299 C 250.013 141.473,249.351 140.730,250.091 142.439 M280.327 147.407 C 272.358 163.675,271.181 166.101,270.264 168.147 C 268.739 171.549,263.707 181.274,263.037 182.114 C 261.458 184.092,260.480 183.062,257.861 176.663 C 256.556 173.474,256.555 173.472,254.602 169.469 C 253.179 166.551,251.265 162.369,248.142 155.355 C 247.728 154.425,246.432 151.685,245.262 149.267 C 244.092 146.849,242.790 144.114,242.369 143.189 C 241.915 142.192,241.572 141.668,241.527 141.903 C 241.485 142.121,241.596 142.523,241.773 142.796 C 241.950 143.069,242.319 143.969,242.593 144.797 C 242.868 145.625,243.238 146.423,243.417 146.572 C 243.596 146.721,243.743 146.992,243.743 147.176 C 243.743 147.359,243.985 147.981,244.282 148.558 C 244.578 149.134,245.200 150.417,245.663 151.409 C 246.127 152.401,246.696 153.582,246.928 154.033 C 247.161 154.484,247.351 154.981,247.351 155.138 C 247.351 155.294,247.646 156.041,248.007 156.798 C 248.367 157.555,249.035 159.036,249.490 160.090 C 249.945 161.144,250.449 162.260,250.609 162.570 C 250.769 162.880,251.028 163.540,251.184 164.036 C 251.340 164.532,251.596 165.192,251.753 165.502 C 253.361 168.673,254.329 170.719,254.557 171.429 C 254.708 171.899,255.126 172.862,255.485 173.571 C 255.845 174.279,256.140 175.014,256.141 175.203 C 256.143 175.393,256.283 175.748,256.452 175.993 C 256.621 176.237,256.833 176.691,256.922 177.001 C 257.086 177.575,257.680 178.920,258.890 181.457 C 260.667 185.183,263.519 184.797,265.148 180.609 C 265.444 179.849,267.492 175.696,268.373 174.070 C 268.840 173.210,269.913 170.941,270.615 169.335 C 270.858 168.777,271.445 167.508,271.917 166.516 C 272.390 165.524,272.954 164.307,273.171 163.811 C 273.676 162.657,274.253 161.454,274.578 160.879 C 274.718 160.631,275.257 159.515,275.777 158.399 C 276.296 157.283,277.154 155.457,277.684 154.340 C 278.213 153.224,278.721 152.057,278.813 151.747 C 278.905 151.437,279.169 150.942,279.400 150.646 C 279.631 150.350,279.820 149.953,279.820 149.764 C 279.820 149.575,280.060 149.005,280.353 148.498 C 280.646 147.991,281.007 147.204,281.154 146.749 C 281.301 146.293,281.568 145.799,281.748 145.650 C 281.927 145.501,282.074 145.095,282.074 144.747 C 282.074 144.400,282.312 143.829,282.603 143.478 C 283.036 142.957,283.596 141.375,283.349 141.375 C 283.311 141.375,281.951 144.090,280.327 147.407 M324.474 146.505 C 323.939 147.714,322.348 151.250,320.939 154.361 C 318.275 160.245,318.144 160.629,318.733 160.855 C 319.530 161.161,332.253 161.004,332.692 160.683 C 333.095 160.389,333.046 160.225,331.636 157.132 C 330.822 155.349,329.319 151.860,328.295 149.380 C 325.761 143.240,325.880 143.330,324.474 146.505 M326.839 147.238 C 327.044 147.796,327.443 148.916,327.724 149.728 C 328.005 150.539,328.346 151.401,328.482 151.644 C 329.884 154.156,331.905 159.742,331.517 160.034 C 331.066 160.374,320.042 160.435,319.513 160.101 C 319.181 159.890,319.657 158.635,321.791 154.097 C 322.145 153.343,322.435 152.656,322.435 152.571 C 322.435 152.485,322.827 151.580,323.305 150.559 C 324.669 147.647,324.915 147.074,324.915 146.809 C 324.915 145.338,326.248 145.635,326.839 147.238 M171.590 154.207 C 168.031 154.293,165.905 154.434,165.614 154.603 C 162.815 156.232,162.815 160.507,165.614 161.257 C 168.473 162.023,207.321 162.072,208.906 161.312 C 211.294 160.167,211.453 156.544,209.182 155.044 L 208.005 154.266 192.559 154.170 C 184.064 154.117,174.628 154.134,171.590 154.207 M209.130 155.539 C 211.335 157.273,210.430 160.535,207.665 160.819 C 205.684 161.023,165.880 160.899,165.450 160.688 C 163.479 159.720,163.976 155.878,166.178 155.062 C 166.364 154.993,175.955 154.954,187.491 154.977 L 208.467 155.017 209.130 155.539 M287.148 169.840 C 284.720 170.441,283.293 171.640,282.382 173.844 C 280.670 177.987,282.509 182.287,286.514 183.503 C 288.562 184.125,288.574 184.125,290.807 183.282 C 298.336 180.440,294.927 167.915,287.148 169.840 M222.123 170.926 C 215.105 173.418,216.740 184.216,224.135 184.216 C 226.712 184.216,229.376 182.576,230.543 180.269 C 233.257 174.905,227.841 168.896,222.123 170.926 M290.759 170.937 C 295.046 173.202,295.354 180.092,291.259 182.137 C 285.205 185.160,280.113 178.404,284.090 172.624 C 285.461 170.632,288.653 169.824,290.759 170.937 M226.171 171.700 C 227.962 171.985,230.302 175.213,230.270 177.355 C 230.223 180.475,227.412 182.995,224.014 182.964 C 217.083 182.900,216.452 172.897,223.298 171.609 C 224.198 171.439,224.618 171.453,226.171 171.700 M236.100 175.657 C 235.579 176.034,235.098 176.516,235.030 176.728 C 234.962 176.940,234.711 177.595,234.472 178.182 C 233.365 180.902,235.637 183.465,238.885 183.162 C 241.374 182.929,242.386 181.549,242.389 178.381 C 242.391 175.406,238.671 173.795,236.100 175.657 M248.591 175.187 C 247.405 175.678,246.106 177.940,246.282 179.210 C 246.899 183.657,252.731 184.546,254.137 180.407 C 255.364 176.795,252.110 173.731,248.591 175.187 M271.802 175.152 C 268.603 176.242,267.951 181.227,270.830 182.586 C 273.831 184.002,276.487 182.760,276.974 179.712 C 277.374 177.214,274.134 174.358,271.802 175.152 M239.766 175.959 C 241.572 176.714,242.106 179.114,240.886 180.996 C 238.641 184.459,233.642 181.121,235.732 177.555 C 236.640 176.006,238.303 175.348,239.766 175.959 M252.204 176.195 C 254.153 177.472,253.975 180.478,251.866 181.905 C 249.276 183.659,246.289 180.371,247.729 177.351 C 248.457 175.824,250.738 175.235,252.204 176.195 M274.337 176.247 C 277.335 177.669,276.391 182.435,273.118 182.402 C 271.592 182.386,270.599 181.823,269.958 180.609 C 268.475 177.802,271.424 174.865,274.337 176.247 M353.701 177.068 C 353.516 177.977,353.715 179.932,353.994 179.932 C 354.085 179.932,354.343 180.340,354.568 180.838 C 355.041 181.888,356.362 182.849,356.770 182.441 C 356.958 182.253,356.934 182.187,356.678 182.187 C 356.487 182.187,356.046 181.857,355.697 181.454 C 355.349 181.051,354.863 180.500,354.619 180.228 C 354.296 179.869,354.135 179.257,354.026 177.974 C 353.890 176.372,353.860 176.290,353.701 177.068 M181.285 177.207 C 172.769 177.374,172.388 177.487,171.824 180.004 C 171.448 181.683,171.805 182.662,173.115 183.546 L 174.183 184.266 193.394 184.154 L 212.605 184.043 213.687 183.379 C 216.007 181.955,215.918 178.785,213.526 177.639 C 212.606 177.199,194.228 176.953,181.285 177.207 M212.833 178.412 C 214.537 179.033,214.878 181.720,213.351 182.494 C 212.201 183.078,174.620 183.228,173.688 182.653 C 172.400 181.859,172.470 179.724,173.812 178.844 C 174.709 178.256,211.293 177.850,212.833 178.412 M363.705 180.867 C 363.398 181.254,362.688 181.860,362.126 182.213 C 361.229 182.777,361.173 182.855,361.669 182.858 C 362.485 182.862,363.443 182.148,364.047 181.084 C 364.670 179.988,364.490 179.873,363.705 180.867 M106.032 182.595 C 105.629 182.788,105.299 183.081,105.299 183.248 C 105.299 183.614,106.379 183.126,106.865 182.540 C 107.217 182.116,107.008 182.130,106.032 182.595 M101.127 183.766 C 101.044 183.901,101.331 183.990,101.847 183.988 C 102.484 183.985,102.619 183.928,102.368 183.766 C 101.927 183.481,101.304 183.481,101.127 183.766 " stroke="none" fill="#275661" fill-rule="evenodd"></path></g></svg>