<svg width="50" height="50" viewBox="0 0 50 50" fill="none" xmlns="http://www.w3.org/2000/svg">
<g clip-path="url(#clip0_23_23)">
<path d="M29.1667 43.75H8.33333C7.7808 43.75 7.25089 43.5305 6.86019 43.1398C6.46949 42.7491 6.25 42.2192 6.25 41.6667V20.8333H29.1667V43.75ZM43.75 16.6667H6.25V8.33333C6.25 7.7808 6.46949 7.25089 6.86019 6.86019C7.25089 6.46949 7.7808 6.25 8.33333 6.25H41.6667C42.2192 6.25 42.7491 6.46949 43.1398 6.86019C43.5305 7.25089 43.75 7.7808 43.75 8.33333V16.6667Z" fill="#4E6BFF"/>
<path opacity="0.5" d="M33.333 43.75V20.8333H43.7497V41.6667C43.7497 42.2192 43.5302 42.7491 43.1395 43.1398C42.7488 43.5305 42.2189 43.75 41.6663 43.75H33.333Z" fill="#4E6BFF"/>
</g>
<defs>
<clipPath id="clip0_23_23">
<rect width="50" height="50" fill="white"/>
</clipPath>
</defs>
</svg>
