<svg id="svg" version="1.1" xmlns="http://www.w3.org/2000/svg" xmlns:xlink="http://www.w3.org/1999/xlink" width="400" height="248.5639686684073" viewBox="0, 0, 400,248.5639686684073"><g id="svgg"><path id="path0" d="M0.000 124.301 L 0.000 248.602 200.000 248.602 L 400.000 248.602 400.000 124.301 L 400.000 0.000 200.000 0.000 L 0.000 0.000 0.000 124.301 M196.768 17.526 C 204.050 18.890,207.334 20.604,212.639 25.810 C 214.547 27.683,218.272 32.665,218.272 33.344 C 218.272 33.456,218.563 34.194,218.919 34.984 C 219.804 36.948,219.938 37.283,220.238 38.285 C 220.893 40.469,221.286 42.969,221.625 47.093 C 222.060 52.390,221.644 51.873,225.606 52.033 C 230.553 52.232,233.755 53.683,237.016 57.206 L 238.611 58.929 239.138 58.075 C 240.309 56.181,243.867 56.190,245.769 58.091 C 247.974 60.296,247.961 60.088,248.062 95.650 C 248.135 121.579,248.060 122.600,245.917 124.647 C 243.332 127.115,239.211 126.153,238.131 122.830 C 237.550 121.043,237.275 120.899,236.759 122.107 C 236.507 122.698,235.619 124.580,234.785 126.290 C 232.837 130.286,232.564 130.986,232.847 131.269 C 232.983 131.405,252.028 131.530,280.055 131.580 C 332.001 131.672,328.866 131.572,332.753 133.269 C 333.027 133.389,333.898 133.722,334.688 134.011 C 336.455 134.656,338.835 136.439,341.125 138.837 C 342.613 140.393,345.805 146.302,345.805 147.499 C 345.805 147.675,345.904 147.925,346.025 148.055 C 346.146 148.185,346.656 149.633,347.159 151.274 C 347.662 152.915,348.297 154.984,348.570 155.873 C 348.843 156.762,349.381 158.384,349.764 159.478 C 350.147 160.572,350.608 161.970,350.788 162.585 C 350.968 163.201,351.191 163.816,351.285 163.953 C 351.571 164.372,352.928 168.537,353.634 171.162 C 354.001 172.530,354.627 174.510,355.025 175.562 C 355.423 176.615,355.749 177.614,355.749 177.783 C 355.749 177.952,355.961 178.713,356.221 179.474 C 356.480 180.235,357.105 182.200,357.610 183.841 C 358.114 185.482,358.728 187.439,358.973 188.191 C 359.219 188.943,359.562 190.174,359.735 190.926 C 359.909 191.678,360.134 192.461,360.235 192.666 C 360.766 193.744,363.075 200.898,363.927 204.102 C 364.199 205.127,364.588 206.582,364.791 207.334 C 367.427 217.107,362.909 226.157,354.280 228.391 C 353.515 228.589,352.219 228.930,351.398 229.149 C 349.471 229.663,313.394 229.789,172.405 229.772 C 68.693 229.760,65.677 229.733,64.979 228.821 C 64.825 228.620,64.154 228.273,63.487 228.049 C 62.820 227.825,61.958 227.379,61.572 227.059 C 61.185 226.738,60.777 226.476,60.663 226.476 C 60.550 226.476,60.000 226.112,59.441 225.668 C 58.882 225.224,58.117 224.620,57.740 224.327 C 57.363 224.034,56.832 223.363,56.560 222.836 C 56.289 222.308,55.826 221.653,55.531 221.380 C 54.886 220.780,52.329 215.963,52.100 214.916 C 51.942 214.195,50.197 208.478,49.671 206.961 C 49.389 206.148,48.763 204.192,48.158 202.237 C 47.947 201.554,47.436 200.099,47.023 199.006 C 46.610 197.912,45.919 195.842,45.487 194.406 C 45.055 192.971,44.556 191.349,44.377 190.802 C 43.882 189.284,42.611 185.057,42.022 182.971 C 41.733 181.945,41.396 180.883,41.273 180.609 C 40.853 179.673,39.818 176.384,39.396 174.643 C 39.164 173.686,38.875 172.796,38.754 172.666 C 38.633 172.536,38.533 172.176,38.533 171.865 C 38.533 171.555,38.272 170.710,37.953 169.988 C 37.634 169.267,37.016 167.557,36.580 166.190 C 36.144 164.823,35.667 163.369,35.520 162.958 C 35.373 162.548,34.991 161.429,34.672 160.472 C 34.353 159.515,33.521 157.110,32.823 155.127 C 32.125 153.145,31.397 151.075,31.206 150.528 C 30.148 147.504,29.862 144.853,30.367 142.763 C 30.525 142.112,30.750 141.169,30.868 140.669 C 31.121 139.594,32.109 138.260,34.266 136.076 C 36.022 134.299,36.673 133.914,39.901 132.743 L 42.138 131.931 61.280 131.765 C 71.809 131.674,96.751 131.575,116.707 131.545 C 136.663 131.516,153.050 131.434,153.121 131.363 C 153.192 131.292,153.085 130.966,152.883 130.639 C 152.682 130.311,151.790 128.791,150.901 127.259 C 150.012 125.727,149.034 124.040,148.726 123.511 C 148.418 122.981,148.167 122.382,148.167 122.181 C 148.167 121.980,147.999 121.815,147.794 121.815 C 147.515 121.815,147.421 122.112,147.420 122.996 C 147.416 128.422,139.466 127.859,137.764 122.312 C 136.845 119.317,136.879 64.054,137.802 61.254 C 139.205 56.996,143.979 55.478,146.319 58.546 C 146.800 59.176,147.066 59.362,147.160 59.131 C 148.095 56.827,150.611 54.439,153.803 52.826 L 155.749 51.842 159.540 51.753 L 163.331 51.665 163.345 50.506 C 163.387 47.125,163.834 40.518,164.080 39.652 C 166.288 31.898,170.563 25.799,176.547 21.865 C 182.212 18.142,190.525 16.358,196.768 17.526 M240.768 62.051 C 239.445 63.786,239.166 69.356,239.167 93.971 C 239.169 117.904,239.378 119.856,241.889 119.426 C 242.094 119.391,242.678 119.294,243.185 119.211 C 243.989 119.081,244.144 118.941,244.380 118.138 C 244.663 117.173,245.113 106.348,245.074 101.429 L 245.052 98.571 244.840 100.684 C 244.723 101.846,244.514 103.969,244.376 105.402 C 244.067 108.593,243.899 108.810,241.641 108.928 L 240.025 109.012 239.845 107.520 C 239.746 106.700,239.594 100.435,239.507 93.599 C 239.292 76.655,239.702 68.924,240.820 68.849 C 240.930 68.842,241.661 68.776,242.446 68.702 C 244.382 68.521,244.428 68.656,244.633 75.202 C 244.781 79.894,244.795 79.580,244.773 72.094 C 244.746 62.839,244.715 62.653,243.058 61.643 C 241.938 60.960,241.547 61.030,240.768 62.051 M142.752 64.997 C 140.499 65.542,140.587 64.530,140.585 89.869 C 140.584 115.649,140.526 115.084,143.202 115.430 C 144.940 115.654,145.491 115.255,145.890 113.480 C 146.602 110.307,146.465 67.894,145.736 66.104 C 145.140 64.641,144.777 64.506,142.752 64.997 M145.528 71.659 C 145.612 72.104,145.800 78.423,145.945 85.702 C 146.315 104.159,145.954 107.000,143.411 105.638 C 143.137 105.492,142.686 105.328,142.407 105.275 C 141.449 105.090,141.281 104.684,140.994 101.850 C 140.564 97.608,140.761 71.674,141.226 71.256 C 141.283 71.204,141.922 71.241,142.647 71.337 C 143.574 71.460,144.088 71.416,144.387 71.189 C 145.066 70.673,145.365 70.796,145.528 71.659 M244.958 95.587 C 244.959 96.681,245.002 97.098,245.055 96.513 C 245.107 95.928,245.107 95.033,245.053 94.524 C 245.000 94.015,244.957 94.493,244.958 95.587 M220.454 153.072 C 221.039 153.125,221.934 153.124,222.443 153.071 C 222.952 153.017,222.474 152.974,221.380 152.975 C 220.286 152.976,219.869 153.020,220.454 153.072 M218.410 153.621 C 218.169 153.887,218.031 154.251,218.103 154.429 C 218.203 154.680,218.237 154.673,218.253 154.401 C 218.263 154.207,218.457 153.843,218.684 153.593 C 218.910 153.343,219.039 153.139,218.971 153.139 C 218.902 153.139,218.650 153.356,218.410 153.621 M223.514 153.214 C 223.571 153.255,223.953 153.486,224.363 153.726 L 225.109 154.163 224.522 153.651 C 224.199 153.369,223.817 153.139,223.672 153.139 C 223.528 153.139,223.457 153.172,223.514 153.214 M261.342 153.320 C 261.855 153.373,262.694 153.373,263.207 153.320 C 263.720 153.266,263.300 153.222,262.275 153.222 C 261.249 153.222,260.830 153.266,261.342 153.320 M226.245 157.173 C 226.217 157.468,227.026 159.383,227.134 159.276 C 227.188 159.222,227.014 158.686,226.747 158.085 C 226.481 157.484,226.255 157.074,226.245 157.173 M198.322 158.791 C 199.040 158.841,200.214 158.841,200.932 158.791 C 201.650 158.741,201.063 158.700,199.627 158.700 C 198.191 158.700,197.604 158.741,198.322 158.791 M220.033 159.727 C 220.033 159.863,220.248 160.367,220.510 160.845 C 220.772 161.324,220.986 161.603,220.986 161.467 C 220.986 161.330,220.772 160.827,220.510 160.348 C 220.248 159.869,220.033 159.590,220.033 159.727 M254.608 162.223 C 254.192 163.137,254.271 163.332,254.722 162.501 C 254.932 162.113,255.058 161.749,255.001 161.692 C 254.944 161.635,254.767 161.874,254.608 162.223 M260.952 163.964 C 260.368 165.189,260.450 165.397,261.061 164.240 C 261.338 163.714,261.521 163.240,261.467 163.187 C 261.413 163.133,261.182 163.483,260.952 163.964 M228.731 163.456 C 228.731 163.592,228.891 163.984,229.086 164.326 C 229.282 164.667,229.442 164.835,229.442 164.699 C 229.442 164.562,229.282 164.170,229.086 163.828 C 228.891 163.487,228.731 163.319,228.731 163.456 M222.516 165.942 C 222.516 166.078,222.676 166.470,222.871 166.812 C 223.067 167.154,223.227 167.321,223.227 167.185 C 223.227 167.048,223.067 166.656,222.871 166.314 C 222.676 165.973,222.516 165.805,222.516 165.942 M249.139 174.902 C 248.723 175.816,248.802 176.011,249.253 175.180 C 249.463 174.792,249.588 174.428,249.532 174.371 C 249.475 174.314,249.298 174.553,249.139 174.902 M174.709 177.930 C 175.156 177.986,175.827 177.985,176.201 177.928 C 176.574 177.871,176.209 177.826,175.388 177.827 C 174.568 177.829,174.262 177.875,174.709 177.930 M179.556 177.929 C 179.934 177.986,180.493 177.984,180.799 177.925 C 181.105 177.866,180.796 177.819,180.112 177.821 C 179.428 177.823,179.178 177.871,179.556 177.929 M191.375 177.936 C 193.058 177.979,195.743 177.979,197.342 177.936 C 198.941 177.892,197.564 177.857,194.282 177.857 C 191.001 177.858,189.693 177.893,191.375 177.936 M228.731 180.858 C 228.731 180.994,228.891 181.386,229.086 181.728 C 229.282 182.070,229.442 182.237,229.442 182.101 C 229.442 181.964,229.282 181.572,229.086 181.231 C 228.891 180.889,228.731 180.721,228.731 180.858 M246.405 181.366 C 245.988 182.280,246.068 182.475,246.518 181.644 C 246.728 181.256,246.854 180.892,246.797 180.835 C 246.740 180.778,246.564 181.017,246.405 181.366 M172.595 183.646 C 172.973 183.704,173.532 183.702,173.838 183.643 C 174.144 183.584,173.835 183.537,173.151 183.539 C 172.467 183.541,172.217 183.589,172.595 183.646 M184.293 183.654 C 187.276 183.694,192.086 183.694,194.983 183.654 C 197.879 183.614,195.438 183.582,189.559 183.582 C 183.679 183.582,181.310 183.615,184.293 183.654 M216.018 197.282 C 216.487 197.486,217.018 197.775,217.199 197.924 C 217.379 198.074,217.526 198.125,217.526 198.038 C 217.526 197.791,215.954 196.893,215.538 196.903 C 215.333 196.908,215.549 197.078,216.018 197.282 M180.067 201.305 C 183.871 201.344,190.024 201.344,193.740 201.305 C 197.457 201.266,194.344 201.235,186.824 201.235 C 179.304 201.235,176.263 201.266,180.067 201.305 M209.142 202.113 C 209.142 202.728,209.190 202.980,209.249 202.672 C 209.309 202.365,209.309 201.861,209.249 201.554 C 209.190 201.246,209.142 201.498,209.142 202.113 M219.334 202.113 C 219.334 202.728,219.383 202.980,219.442 202.672 C 219.501 202.365,219.501 201.861,219.442 201.554 C 219.383 201.246,219.334 201.498,219.334 202.113 M225.539 202.859 C 225.539 203.337,225.591 203.533,225.653 203.294 C 225.716 203.055,225.716 202.663,225.653 202.424 C 225.591 202.185,225.539 202.380,225.539 202.859 M232.500 202.859 C 232.500 203.337,232.551 203.533,232.614 203.294 C 232.676 203.055,232.676 202.663,232.614 202.424 C 232.551 202.185,232.500 202.380,232.500 202.859 M173.774 203.253 C 173.774 203.378,174.063 203.816,174.416 204.226 L 175.057 204.972 174.495 204.102 C 173.775 202.986,173.772 202.983,173.774 203.253 M210.068 205.423 C 210.068 205.466,210.432 205.829,210.876 206.231 L 211.684 206.961 210.954 206.153 C 210.273 205.400,210.068 205.231,210.068 205.423 M182.146 206.526 C 185.452 206.565,190.933 206.565,194.327 206.526 C 197.721 206.487,195.016 206.455,188.316 206.454 C 181.616 206.454,178.839 206.486,182.146 206.526 M215.413 207.334 C 214.725 207.509,214.716 207.526,215.289 207.549 C 215.631 207.563,216.078 207.466,216.283 207.334 C 216.707 207.060,216.488 207.060,215.413 207.334 " stroke="none" fill="#287eae" fill-rule="evenodd"></path><path id="path1" d="M189.062 29.190 C 186.919 29.553,186.660 29.629,184.960 30.381 C 183.721 30.930,182.225 31.980,182.225 32.302 C 182.225 32.559,200.506 32.939,201.741 32.707 C 203.001 32.471,202.802 31.891,201.115 30.881 C 198.150 29.106,193.449 28.446,189.062 29.190 M178.567 36.159 C 176.449 38.277,175.617 38.152,192.297 38.220 C 200.563 38.253,207.113 38.183,207.309 38.058 C 207.794 37.749,206.970 36.365,205.854 35.613 L 205.023 35.053 192.348 35.053 L 179.674 35.053 178.567 36.159 M176.763 40.550 C 175.759 40.951,175.330 42.726,176.060 43.456 C 176.502 43.898,207.199 43.877,208.080 43.434 C 208.974 42.983,209.104 41.242,208.286 40.670 C 207.615 40.199,177.924 40.087,176.763 40.550 M176.065 45.881 C 175.316 46.406,175.267 48.329,175.994 48.717 C 176.557 49.019,208.028 49.079,208.499 48.779 C 209.084 48.408,209.350 47.236,209.011 46.528 L 208.695 45.867 200.619 45.715 C 184.124 45.404,176.675 45.454,176.065 45.881 M175.699 51.383 C 175.231 51.910,175.124 53.340,175.507 53.947 C 175.938 54.628,208.134 54.638,208.815 53.957 C 209.410 53.362,209.498 51.916,208.967 51.475 C 208.246 50.876,176.228 50.788,175.699 51.383 M158.049 54.864 C 157.809 54.926,157.537 55.277,157.443 55.643 C 157.100 56.979,157.218 109.841,157.569 111.995 C 159.510 123.900,167.537 133.270,180.153 138.356 C 191.859 143.076,207.285 140.571,216.093 132.521 C 222.306 126.843,226.062 120.529,227.785 112.865 C 228.356 110.325,228.747 67.585,228.281 58.670 L 228.092 55.065 225.112 54.995 C 222.525 54.933,222.090 54.981,221.818 55.353 C 221.570 55.692,221.504 61.287,221.504 81.972 C 221.504 110.930,221.561 109.802,219.894 114.125 C 210.809 137.686,179.513 139.635,166.809 117.432 C 163.802 112.175,163.828 112.498,163.828 81.558 C 163.828 61.458,163.758 55.219,163.530 54.991 C 163.240 54.701,159.044 54.603,158.049 54.864 M178.247 56.681 L 175.637 56.805 175.561 58.146 C 175.519 58.883,175.594 59.596,175.728 59.730 C 176.021 60.024,208.593 59.997,208.886 59.703 C 209.259 59.330,209.206 57.165,208.818 56.920 C 208.323 56.607,183.825 56.416,178.247 56.681 M175.820 62.461 C 175.388 62.998,175.216 64.331,175.509 64.879 L 175.788 65.399 192.316 65.328 C 210.580 65.251,209.392 65.368,209.263 63.648 C 209.215 63.012,209.034 62.701,208.577 62.471 C 207.674 62.016,176.186 62.007,175.820 62.461 M163.267 75.388 C 163.217 77.636,163.114 78.727,162.983 78.372 C 162.503 77.073,161.751 77.942,161.464 80.127 C 161.208 82.081,160.447 81.701,159.564 79.180 C 158.856 77.157,158.528 69.763,159.016 66.812 C 159.206 65.665,160.380 65.162,161.894 65.580 C 162.699 65.802,162.810 65.773,162.989 65.294 C 163.227 64.660,163.380 70.238,163.267 75.388 M177.005 67.555 C 175.795 67.701,175.513 68.018,175.513 69.227 L 175.513 70.277 178.908 70.440 C 183.198 70.646,207.760 70.648,208.526 70.443 C 209.042 70.305,209.090 70.165,209.024 69.017 L 208.950 67.744 207.582 67.582 C 206.103 67.407,178.436 67.383,177.005 67.555 M176.056 73.055 C 175.437 73.448,175.783 75.402,176.507 75.602 C 177.266 75.812,196.518 75.812,203.729 75.602 L 208.950 75.451 209.030 74.466 C 209.089 73.747,208.992 73.395,208.672 73.161 C 208.163 72.789,176.637 72.687,176.056 73.055 M177.626 78.296 L 175.886 78.434 175.808 79.509 C 175.671 81.417,174.645 81.296,190.770 81.260 C 198.718 81.242,206.060 81.158,207.085 81.074 L 208.950 80.920 208.950 79.677 L 208.950 78.434 207.085 78.266 C 204.899 78.070,180.174 78.095,177.626 78.296 M181.125 84.216 C 178.173 84.261,176.297 84.389,176.091 84.561 C 175.645 84.931,175.673 86.131,176.137 86.516 C 176.547 86.856,207.150 86.727,208.269 86.380 C 208.912 86.180,209.270 85.139,208.897 84.548 C 208.644 84.148,195.835 83.995,181.125 84.216 M210.974 88.177 C 210.874 88.277,209.623 88.423,208.195 88.503 C 204.744 88.694,205.028 88.027,204.840 96.394 C 204.659 104.435,204.566 104.905,202.576 107.885 C 198.260 114.349,189.113 115.002,183.330 109.259 C 180.354 106.303,179.469 103.202,179.521 95.908 C 179.545 92.501,179.115 91.760,176.272 90.315 C 175.117 89.728,174.019 89.248,173.832 89.248 C 173.092 89.248,173.522 105.424,174.320 107.584 C 179.914 122.725,202.090 124.656,209.201 110.622 C 211.084 106.907,211.250 105.483,211.647 89.643 C 211.682 88.273,211.429 87.722,210.974 88.177 M187.011 89.928 C 182.191 89.968,178.247 90.098,178.247 90.217 C 178.247 90.336,178.675 90.819,179.197 91.291 L 180.147 92.149 185.226 92.314 C 188.019 92.404,193.060 92.479,196.427 92.479 C 203.252 92.480,203.199 92.493,203.061 90.819 L 202.983 89.869 199.378 89.863 C 197.396 89.860,191.830 89.889,187.011 89.928 M182.571 96.064 C 181.889 97.842,182.131 97.884,193.319 97.920 C 203.394 97.952,203.229 97.975,203.063 96.535 L 202.983 95.836 192.846 95.771 C 184.215 95.716,182.688 95.759,182.571 96.064 M310.439 152.748 C 308.774 153.342,308.190 154.168,306.649 158.111 C 306.141 159.410,305.190 161.703,304.536 163.207 C 303.881 164.711,302.708 167.452,301.929 169.298 C 301.150 171.144,300.243 173.244,299.914 173.966 C 299.585 174.688,299.316 175.350,299.316 175.436 C 299.316 175.586,298.601 177.237,295.514 184.214 C 294.758 185.923,293.067 189.533,291.756 192.235 C 290.445 194.938,289.372 197.204,289.372 197.272 C 289.372 197.340,289.158 197.869,288.896 198.449 C 286.115 204.608,285.695 206.396,286.886 207.008 C 287.653 207.401,291.446 207.439,292.153 207.061 C 292.671 206.784,295.299 201.553,297.321 196.777 C 298.829 193.213,300.022 190.927,300.376 190.918 C 303.070 190.850,321.279 190.975,321.509 191.063 C 321.821 191.182,323.943 195.882,325.881 200.746 C 328.696 207.810,328.050 207.115,331.728 207.030 C 335.676 206.939,335.677 206.937,333.931 202.597 C 333.246 200.895,331.067 195.475,329.088 190.553 C 327.109 185.631,325.309 181.212,325.087 180.733 C 324.456 179.370,318.620 165.259,316.298 159.478 C 313.891 153.488,313.744 153.221,312.605 152.745 C 311.601 152.326,311.623 152.325,310.439 152.748 M169.610 153.381 C 166.707 154.069,167.260 158.040,170.376 158.879 C 171.278 159.122,196.838 158.951,197.120 158.700 C 197.177 158.649,192.591 158.605,186.928 158.601 C 177.223 158.594,175.152 158.542,171.329 158.205 C 169.734 158.065,169.439 157.751,170.875 157.722 C 175.652 157.626,175.892 157.602,175.451 157.267 C 174.799 156.773,174.922 156.430,175.823 156.233 C 176.268 156.135,177.007 155.855,177.465 155.609 C 177.923 155.364,178.455 155.223,178.646 155.296 C 178.889 155.389,178.993 155.233,178.993 154.773 C 178.993 153.838,178.716 153.866,189.848 153.658 L 200.000 153.468 185.539 153.428 C 177.586 153.405,170.930 153.343,170.747 153.289 C 170.565 153.235,170.054 153.276,169.610 153.381 M62.790 153.778 C 62.246 154.321,62.248 156.930,62.793 157.382 C 63.106 157.642,65.138 157.695,72.738 157.643 C 80.483 157.590,82.308 157.640,82.392 157.906 C 82.448 158.087,82.559 168.962,82.638 182.074 C 82.796 208.337,82.663 206.588,84.505 206.588 C 86.404 206.588,86.264 208.520,86.269 182.113 C 86.271 167.488,86.364 158.090,86.508 157.862 C 86.713 157.539,87.993 157.501,96.161 157.581 C 102.955 157.647,105.728 157.592,106.114 157.385 C 106.875 156.979,106.918 154.045,106.169 153.645 C 105.283 153.171,63.268 153.300,62.790 153.778 M135.133 153.778 C 134.663 154.247,134.525 204.741,134.989 205.963 C 135.222 206.574,135.323 206.608,136.667 206.538 L 138.098 206.464 138.251 203.480 C 138.335 201.840,138.419 197.135,138.437 193.027 C 138.462 187.587,138.552 185.475,138.769 185.258 C 138.979 185.048,140.399 184.960,143.567 184.960 L 148.066 184.960 148.944 185.892 C 149.428 186.405,151.210 188.502,152.905 190.553 C 154.600 192.604,157.332 195.864,158.975 197.798 C 162.671 202.145,163.225 202.840,164.534 204.780 C 165.784 206.630,166.120 206.837,167.894 206.837 C 170.433 206.837,170.566 206.525,168.863 204.551 C 168.213 203.799,166.563 201.750,165.196 199.999 C 163.828 198.248,161.098 194.791,159.129 192.317 C 152.747 184.299,152.929 184.668,155.003 183.962 C 169.029 179.190,168.617 160.181,154.366 154.567 C 151.311 153.363,136.168 152.742,135.133 153.778 M204.043 153.563 C 204.352 153.622,204.799 153.620,205.037 153.558 C 205.275 153.496,205.022 153.447,204.475 153.450 C 203.928 153.453,203.733 153.504,204.043 153.563 M169.157 155.314 C 169.076 155.827,169.126 156.548,169.267 156.918 C 169.481 157.476,169.462 157.566,169.156 157.448 C 168.582 157.228,168.186 156.348,168.558 156.118 C 168.726 156.014,168.787 155.803,168.692 155.650 C 168.478 155.303,168.751 154.382,169.069 154.382 C 169.200 154.382,169.239 154.791,169.157 155.314 M151.025 157.621 C 162.335 159.222,165.254 174.501,155.265 179.818 C 152.854 181.102,140.359 181.926,138.782 180.905 C 138.541 180.749,138.471 178.148,138.471 169.288 L 138.471 157.871 139.030 157.742 C 139.589 157.613,142.095 157.510,146.799 157.421 C 148.167 157.396,150.068 157.486,151.025 157.621 M311.431 166.128 C 311.565 166.299,312.214 167.949,312.873 169.795 C 313.533 171.641,314.844 175.053,315.787 177.377 C 318.020 182.882,318.288 183.653,318.118 184.094 C 317.845 184.808,303.893 184.520,303.615 183.795 C 303.543 183.607,304.105 182.030,304.864 180.291 C 305.623 178.552,306.981 175.283,307.881 173.027 C 310.984 165.252,310.889 165.435,311.431 166.128 M270.106 195.423 C 263.646 198.864,265.245 207.851,272.311 207.825 C 280.137 207.797,280.459 195.500,272.647 194.994 C 271.413 194.914,270.899 195.001,270.106 195.423 M110.059 195.385 C 106.463 196.108,104.485 200.909,106.289 204.530 C 107.728 207.417,111.223 208.670,114.036 207.309 C 120.668 204.098,117.278 193.932,110.059 195.385 M341.497 198.034 C 337.576 200.910,339.344 207.640,344.022 207.640 C 349.166 207.640,350.701 199.770,345.975 197.624 C 344.306 196.866,342.915 196.994,341.497 198.034 M267.992 198.943 C 267.992 199.307,270.698 199.234,271.088 198.859 C 271.617 198.351,273.931 198.747,276.259 199.743 C 276.592 199.885,276.694 199.810,276.694 199.420 C 276.694 199.140,276.805 198.841,276.942 198.757 C 277.083 198.670,277.191 198.874,277.191 199.225 C 277.191 199.567,277.303 199.915,277.439 200.000 C 277.742 200.187,277.772 203.440,277.477 204.043 C 276.699 205.635,276.364 206.047,275.307 206.712 C 272.979 208.178,269.176 207.532,267.545 205.393 C 266.784 204.395,266.501 199.917,267.185 199.689 C 267.356 199.632,267.495 199.371,267.495 199.109 C 267.495 198.847,267.607 198.633,267.744 198.633 C 267.881 198.633,267.992 198.773,267.992 198.943 M249.294 199.565 C 248.786 200.147,248.351 201.011,248.363 201.413 C 248.368 201.593,248.541 201.352,248.747 200.878 C 248.952 200.403,249.301 199.816,249.521 199.572 C 249.741 199.329,249.866 199.130,249.797 199.130 C 249.729 199.130,249.502 199.326,249.294 199.565 M94.504 200.008 C 91.827 202.261,94.153 207.060,97.287 205.751 C 99.454 204.845,99.832 201.123,97.895 199.766 C 97.017 199.151,95.384 199.268,94.504 200.008 M125.376 199.543 C 124.564 199.714,123.587 200.819,123.409 201.768 C 122.720 205.443,126.474 207.568,128.456 204.625 C 130.098 202.184,128.145 198.960,125.376 199.543 M254.471 199.864 C 254.623 200.075,254.871 200.472,255.023 200.746 C 255.175 201.019,255.302 201.109,255.306 200.946 C 255.310 200.783,255.062 200.386,254.755 200.064 C 254.447 199.742,254.319 199.652,254.471 199.864 M255.382 202.362 C 255.382 202.977,255.430 203.229,255.489 202.921 C 255.549 202.613,255.549 202.110,255.489 201.802 C 255.430 201.495,255.382 201.746,255.382 202.362 M254.319 205.158 C 253.953 205.658,253.893 205.832,254.161 205.614 C 254.569 205.283,255.185 204.351,254.996 204.351 C 254.949 204.351,254.644 204.714,254.319 205.158 M252.082 206.091 L 250.963 206.265 251.958 206.298 C 252.505 206.317,253.120 206.223,253.325 206.091 C 253.530 205.958,253.586 205.865,253.449 205.883 C 253.313 205.902,252.697 205.995,252.082 206.091 " stroke="none" fill="#db9c4d" fill-rule="evenodd"></path><path id="path2" d="M187.943 18.196 C 178.101 19.864,170.202 26.009,166.364 34.983 C 164.571 39.177,164.324 40.477,164.120 46.809 C 163.921 52.976,164.345 52.445,159.602 52.454 C 156.353 52.459,155.875 52.517,154.755 53.040 C 151.235 54.684,148.612 57.144,147.657 59.697 C 147.355 60.505,147.003 61.231,146.875 61.310 C 146.731 61.399,146.704 72.230,146.804 89.708 L 146.966 117.961 149.025 122.063 C 150.157 124.319,151.770 127.280,152.608 128.642 C 154.153 131.151,154.383 131.821,153.822 132.173 C 153.651 132.280,128.620 132.437,98.198 132.521 L 42.884 132.674 40.941 133.205 C 32.922 135.396,28.926 142.766,31.844 149.982 C 33.036 152.930,33.715 154.866,36.005 161.840 C 37.913 167.653,38.615 169.748,39.292 171.659 C 39.534 172.343,40.094 174.077,40.537 175.513 C 40.980 176.948,42.037 180.249,42.887 182.846 C 43.738 185.444,44.682 188.409,44.987 189.434 C 45.292 190.460,45.747 191.914,46.000 192.666 C 46.252 193.418,48.043 198.844,49.979 204.723 C 53.934 216.737,55.128 219.542,57.307 221.944 C 60.965 225.977,64.815 227.822,70.851 228.436 C 74.223 228.778,346.166 228.553,349.161 228.206 C 359.384 227.018,365.665 219.966,364.474 211.014 C 364.149 208.572,362.954 203.515,362.107 200.994 C 361.785 200.037,361.218 198.247,360.846 197.017 C 360.475 195.786,359.907 194.052,359.585 193.163 C 359.263 192.275,358.648 190.373,358.219 188.937 C 357.790 187.502,356.956 184.761,356.366 182.846 C 355.775 180.932,354.602 177.073,353.757 174.270 C 352.190 169.070,351.242 166.129,349.711 161.715 C 349.237 160.348,348.211 157.216,347.432 154.755 C 345.897 149.906,345.614 149.049,345.300 148.291 C 345.187 148.017,344.793 147.011,344.423 146.055 C 342.045 139.897,338.369 136.230,332.132 133.794 C 328.746 132.471,330.104 132.505,279.379 132.505 C 247.477 132.505,232.256 132.422,231.929 132.247 C 231.197 131.856,231.269 131.643,233.902 126.363 C 235.252 123.656,236.554 120.883,236.795 120.199 C 237.036 119.515,237.523 118.688,237.877 118.361 L 238.520 117.765 238.685 107.574 C 238.776 101.969,238.891 89.079,238.941 78.930 L 239.030 60.477 238.222 59.722 C 237.778 59.307,237.415 58.860,237.415 58.728 C 237.415 58.109,234.042 55.200,232.362 54.370 C 229.228 52.820,228.732 52.704,225.267 52.704 C 221.428 52.704,221.258 52.603,221.251 50.322 C 221.183 29.668,206.100 15.120,187.943 18.196 M198.094 29.238 C 201.432 30.375,204.524 32.505,203.440 32.921 C 202.897 33.129,182.267 33.055,181.684 32.843 C 180.773 32.511,183.560 30.472,186.327 29.447 C 189.165 28.396,195.301 28.287,198.094 29.238 M206.001 35.514 C 207.054 36.276,207.831 37.290,207.831 37.899 C 207.831 38.248,178.482 38.653,177.315 38.320 C 176.700 38.144,177.028 37.439,178.334 36.134 L 179.663 34.804 192.343 34.804 L 205.022 34.804 206.001 35.514 M208.867 40.888 C 209.056 41.302,209.074 41.850,208.923 42.566 L 208.699 43.630 192.308 43.694 C 174.347 43.764,175.523 43.868,175.517 42.200 C 175.508 40.149,174.409 40.273,192.547 40.273 L 208.587 40.273 208.867 40.888 M208.912 45.960 C 209.402 46.366,209.463 47.953,209.012 48.533 C 208.450 49.255,176.349 49.278,175.628 48.557 C 175.153 48.082,175.245 46.490,175.784 45.840 C 176.232 45.300,208.256 45.415,208.912 45.960 M197.993 50.880 C 210.191 51.065,209.588 50.959,209.389 52.879 C 209.183 54.857,210.571 54.726,192.030 54.512 L 175.388 54.319 175.312 52.835 C 175.188 50.423,174.093 50.517,197.993 50.880 M163.938 54.668 C 164.014 54.791,164.079 66.810,164.082 81.377 C 164.088 112.940,164.012 111.916,166.732 117.091 C 173.898 130.729,190.937 136.733,204.599 130.434 C 212.533 126.776,217.761 120.768,220.431 112.242 L 221.131 110.006 221.260 82.287 C 221.330 67.042,221.414 54.540,221.446 54.506 C 221.804 54.122,228.232 54.506,228.456 54.925 C 228.780 55.529,228.792 101.254,228.470 107.023 C 227.889 117.444,224.892 123.913,217.110 131.550 C 197.427 150.867,160.662 138.083,157.299 110.754 C 156.855 107.146,156.887 55.393,157.333 54.855 C 157.714 54.396,163.665 54.227,163.938 54.668 M207.334 56.650 L 209.198 56.805 209.275 58.146 C 209.317 58.883,209.234 59.604,209.091 59.747 C 208.705 60.133,176.502 60.309,175.792 59.930 C 175.180 59.602,175.020 57.274,175.572 56.722 C 175.900 56.393,203.498 56.331,207.334 56.650 M240.722 57.664 C 240.421 57.793,240.007 58.225,239.800 58.623 L 239.426 59.348 241.165 59.223 C 243.509 59.056,244.482 59.918,245.109 62.720 C 245.552 64.694,245.469 119.403,245.022 121.032 C 244.016 124.688,240.047 124.630,239.010 120.945 L 238.800 120.199 238.714 121.124 C 238.346 125.090,243.783 126.936,245.993 123.597 C 247.353 121.543,247.350 121.594,247.346 91.361 C 247.341 61.271,247.347 61.420,246.022 59.418 C 244.995 57.866,242.314 56.979,240.722 57.664 M141.365 57.931 C 139.964 58.351,138.730 60.079,138.262 62.275 C 137.671 65.050,137.756 119.792,138.355 122.132 C 139.101 125.049,143.814 126.917,145.776 125.074 C 147.070 123.858,146.736 122.451,145.314 123.129 C 143.835 123.834,141.952 123.000,141.952 121.640 C 141.952 121.416,141.618 120.643,141.211 119.922 C 140.060 117.882,139.886 112.854,140.038 86.007 C 140.168 63.174,140.237 61.603,141.164 60.571 C 141.985 59.657,144.469 58.864,144.806 59.408 C 145.081 59.853,145.681 59.686,145.681 59.164 C 145.681 58.038,143.289 57.355,141.365 57.931 M209.026 62.364 C 209.245 62.503,209.326 63.007,209.275 63.914 L 209.198 65.258 192.293 65.258 L 175.388 65.258 175.311 64.047 C 175.269 63.380,175.294 62.681,175.366 62.493 C 175.516 62.101,208.413 61.976,209.026 62.364 M209.198 68.987 L 209.198 70.479 196.644 70.556 C 189.739 70.598,182.160 70.558,179.801 70.467 L 175.513 70.301 175.513 68.981 C 175.513 67.255,173.860 67.402,192.666 67.452 L 209.198 67.495 209.198 68.987 M209.066 72.960 C 209.268 73.084,209.162 75.256,208.941 75.527 C 208.800 75.701,178.508 75.882,177.191 75.718 L 175.761 75.539 175.761 74.203 L 175.761 72.866 177.067 72.768 C 179.119 72.614,208.794 72.792,209.066 72.960 M208.997 79.611 L 208.950 81.168 192.473 81.232 C 179.414 81.283,175.975 81.231,175.898 80.984 C 175.844 80.812,175.750 80.144,175.688 79.500 L 175.576 78.329 177.471 78.250 C 178.513 78.206,186.044 78.144,194.206 78.112 L 209.045 78.054 208.997 79.611 M209.015 85.022 C 209.139 86.692,210.233 86.580,192.500 86.711 C 174.621 86.843,175.642 86.934,175.807 85.224 L 175.886 84.400 180.858 84.271 C 183.592 84.199,191.032 84.144,197.390 84.146 L 208.950 84.152 209.015 85.022 M211.955 88.813 C 211.870 89.394,211.696 93.170,211.568 97.203 C 211.327 104.794,211.253 105.449,210.334 108.124 C 204.715 124.471,180.446 124.108,174.317 107.584 L 173.648 105.780 173.574 97.514 C 173.512 90.696,173.558 89.248,173.835 89.248 C 174.020 89.248,175.117 89.728,176.272 90.315 C 179.346 91.877,179.493 92.206,179.647 97.886 C 179.822 104.359,180.495 106.458,183.291 109.254 C 189.962 115.924,200.500 113.782,204.046 105.034 C 204.620 103.619,204.660 103.171,204.835 96.310 C 205.053 87.749,204.767 88.502,207.798 88.502 C 209.544 88.502,210.357 88.400,210.705 88.137 C 211.682 87.398,212.127 87.639,211.955 88.813 M203.144 90.988 C 203.095 91.603,203.005 92.191,202.943 92.293 C 202.803 92.524,191.731 92.537,185.079 92.315 L 180.147 92.149 179.197 91.291 C 178.675 90.819,178.247 90.336,178.247 90.217 C 178.247 90.025,189.039 89.845,199.503 89.863 L 203.232 89.869 203.144 90.988 M203.120 96.460 C 203.372 98.059,204.003 97.969,192.761 97.938 L 182.474 97.909 182.474 96.813 L 182.474 95.717 192.356 95.647 C 197.791 95.609,202.405 95.581,202.610 95.585 C 202.842 95.590,203.035 95.921,203.120 96.460 M224.241 152.952 C 225.511 153.816,225.858 154.436,227.688 159.105 C 228.626 161.498,229.736 164.295,230.155 165.320 C 230.574 166.346,231.365 168.359,231.914 169.795 C 232.462 171.231,233.520 173.971,234.264 175.886 C 235.008 177.800,235.759 179.814,235.933 180.360 C 237.601 185.597,240.427 192.077,241.020 192.022 C 241.381 191.988,243.832 186.704,245.911 181.479 C 246.319 180.454,246.808 179.279,246.997 178.869 C 247.186 178.459,248.028 176.501,248.868 174.518 C 251.707 167.819,252.514 165.947,253.262 164.326 C 253.672 163.437,254.403 161.759,254.885 160.597 C 256.007 157.893,257.992 153.888,258.488 153.325 C 259.028 152.712,264.759 152.675,265.364 153.281 C 266.063 153.979,265.299 156.648,263.274 160.576 C 262.739 161.613,261.860 163.468,261.318 164.699 C 260.777 165.929,259.820 168.021,259.191 169.348 C 258.563 170.674,258.048 171.811,258.048 171.874 C 258.048 171.937,257.657 172.824,257.178 173.846 C 256.700 174.868,256.308 175.774,256.308 175.861 C 256.308 176.163,252.752 183.895,250.294 188.937 C 248.928 191.740,247.591 194.584,247.323 195.257 C 247.055 195.929,246.606 196.992,246.325 197.618 C 246.044 198.245,245.664 199.093,245.480 199.503 C 245.296 199.913,244.804 201.120,244.386 202.185 C 241.521 209.494,240.519 209.120,236.073 199.085 C 235.430 197.634,234.183 194.617,233.804 193.596 C 233.472 192.702,231.585 188.355,230.271 185.457 C 229.930 184.705,229.206 183.083,228.663 181.852 C 228.119 180.622,227.471 179.167,227.222 178.620 C 226.973 178.073,226.415 176.731,225.983 175.637 C 225.551 174.543,224.690 172.418,224.070 170.914 C 223.065 168.476,222.628 167.369,222.006 165.693 C 221.905 165.420,221.635 164.766,221.408 164.241 C 221.180 163.716,220.601 162.262,220.121 161.009 C 219.640 159.757,218.928 158.005,218.538 157.116 C 217.273 154.233,217.331 153.416,218.851 152.755 C 220.184 152.175,223.265 152.288,224.241 152.952 M313.238 153.111 C 313.628 153.392,314.242 154.476,314.887 156.021 C 315.452 157.376,317.117 161.336,318.587 164.823 C 320.056 168.310,321.844 172.617,322.560 174.394 C 323.275 176.172,324.388 178.912,325.034 180.485 C 328.136 188.045,327.723 187.019,330.742 194.655 C 331.635 196.911,332.982 200.267,333.737 202.113 C 335.771 207.085,335.770 207.085,331.615 207.085 C 328.061 207.085,328.666 207.755,325.885 200.746 C 324.855 198.152,324.070 196.301,322.931 193.785 C 322.560 192.965,322.180 192.052,322.088 191.757 C 321.996 191.462,321.756 191.158,321.556 191.081 C 321.293 190.980,303.375 190.842,300.376 190.918 C 300.022 190.927,298.842 193.193,297.331 196.768 C 295.335 201.492,292.673 206.782,292.153 207.061 C 291.446 207.439,287.653 207.401,286.886 207.008 C 285.695 206.396,286.115 204.608,288.896 198.449 C 289.158 197.869,289.372 197.341,289.372 197.276 C 289.372 197.210,290.388 195.056,291.630 192.488 C 292.872 189.920,294.064 187.371,294.280 186.824 C 294.495 186.277,294.753 185.718,294.853 185.581 C 295.055 185.304,296.193 182.685,297.485 179.522 C 297.953 178.377,298.612 176.835,298.950 176.096 C 299.288 175.357,299.566 174.672,299.566 174.573 C 299.567 174.475,299.723 174.096,299.913 173.732 C 300.103 173.368,300.483 172.473,300.756 171.743 C 301.030 171.013,301.585 169.689,301.991 168.800 C 302.723 167.194,304.284 163.572,305.471 160.721 C 308.824 152.674,310.437 151.094,313.238 153.111 M207.814 153.254 C 210.339 154.560,210.312 157.397,207.762 158.792 C 206.571 159.442,171.527 159.605,169.853 158.967 C 167.183 157.951,166.630 154.278,168.989 153.232 C 170.095 152.742,206.863 152.762,207.814 153.254 M106.600 153.686 C 107.044 154.129,106.988 156.981,106.529 157.362 C 106.245 157.598,103.905 157.648,96.481 157.579 C 91.158 157.530,86.733 157.560,86.647 157.646 C 86.560 157.732,86.434 168.640,86.366 181.885 C 86.297 195.130,86.194 206.106,86.137 206.277 C 86.014 206.642,83.142 206.718,82.923 206.362 C 82.846 206.238,82.718 195.359,82.639 182.186 C 82.559 169.013,82.445 158.079,82.385 157.888 C 82.292 157.595,80.747 157.567,72.474 157.709 C 61.284 157.900,62.169 158.081,62.189 155.605 C 62.208 153.141,59.730 153.387,84.484 153.387 C 101.122 153.387,106.373 153.458,106.600 153.686 M152.766 153.970 C 163.071 156.863,168.222 168.022,163.541 177.317 C 162.237 179.907,158.616 182.735,155.057 183.945 C 152.917 184.671,152.701 184.209,158.725 191.796 C 160.788 194.394,163.086 197.303,163.833 198.260 C 164.579 199.217,165.303 200.127,165.441 200.283 C 165.580 200.439,166.140 201.160,166.687 201.886 C 167.234 202.612,168.283 203.851,169.017 204.640 C 170.790 206.544,170.668 206.837,168.106 206.837 C 165.916 206.837,165.877 206.812,164.316 204.475 C 163.240 202.864,162.576 202.035,158.981 197.819 C 157.340 195.894,154.683 192.745,153.076 190.820 C 151.469 188.896,149.698 186.790,149.140 186.140 L 148.126 184.960 143.597 184.960 C 140.406 184.960,138.980 185.048,138.769 185.258 C 138.553 185.474,138.471 187.304,138.471 191.930 C 138.471 195.436,138.398 200.168,138.308 202.446 L 138.144 206.588 136.584 206.588 C 135.263 206.588,135.001 206.515,134.872 206.110 C 134.502 204.941,134.627 153.861,135.001 153.612 C 135.665 153.171,151.020 153.481,152.766 153.970 M142.200 157.524 C 140.764 157.572,139.337 157.671,139.028 157.742 L 138.466 157.873 138.531 169.365 L 138.595 180.858 145.805 180.858 L 153.014 180.858 154.706 180.059 C 162.236 176.505,163.629 166.416,157.366 160.790 C 154.088 157.846,151.178 157.219,142.200 157.524 M310.620 166.363 C 310.298 167.425,306.210 177.610,305.401 179.366 C 303.830 182.778,303.470 183.743,303.693 183.947 C 304.055 184.278,317.896 184.520,318.095 184.199 C 318.253 183.943,317.829 182.535,317.088 180.858 C 315.497 177.257,314.978 176.024,314.979 175.845 C 314.980 175.635,313.907 172.894,313.407 171.830 C 313.258 171.513,312.740 170.068,312.255 168.618 C 311.356 165.930,310.930 165.342,310.620 166.363 M200.866 177.688 C 203.302 178.911,203.401 182.290,201.043 183.728 C 200.127 184.286,173.420 184.493,171.489 183.957 C 169.509 183.407,168.613 181.294,169.544 179.370 C 170.405 177.592,170.126 177.641,180.360 177.494 C 200.024 177.213,199.916 177.212,200.866 177.688 M274.308 194.927 C 277.443 195.798,279.397 200.115,278.311 203.772 C 276.314 210.497,265.788 209.061,265.761 202.060 C 265.742 197.232,269.953 193.718,274.308 194.927 M114.413 195.888 C 119.886 199.135,117.883 207.831,111.662 207.831 C 107.298 207.831,104.652 203.831,105.902 199.121 C 106.751 195.923,111.458 194.135,114.413 195.888 M216.656 196.868 C 222.160 199.424,220.358 208.087,214.326 208.078 C 209.723 208.071,207.016 202.605,209.671 198.681 C 211.125 196.532,214.209 195.731,216.656 196.868 M345.975 197.624 C 349.901 199.407,349.767 205.286,345.753 207.355 C 344.364 208.071,343.163 207.972,341.778 207.027 C 336.614 203.503,340.373 195.081,345.975 197.624 M252.920 198.371 C 255.998 199.085,257.013 203.088,254.722 205.479 C 253.118 207.153,251.374 207.261,249.700 205.791 C 246.013 202.553,248.293 197.297,252.920 198.371 M231.412 199.353 C 233.001 200.484,233.611 203.582,232.529 205.030 C 229.603 208.949,223.531 205.765,225.448 201.317 C 226.525 198.816,229.351 197.886,231.412 199.353 M97.586 199.524 C 100.232 200.780,99.825 204.984,96.956 206.042 C 95.584 206.548,93.696 205.244,93.252 203.484 C 92.542 200.662,95.086 198.338,97.586 199.524 M127.805 199.805 C 128.708 200.338,129.394 202.015,129.177 203.159 C 128.486 206.819,124.227 207.283,123.349 203.795 C 122.565 200.680,125.237 198.288,127.805 199.805 M202.240 201.367 C 203.632 202.669,203.816 204.322,202.728 205.748 C 201.707 207.087,201.391 207.114,188.082 207.034 L 175.915 206.961 174.906 205.666 C 172.018 201.962,171.569 201.026,172.514 200.676 C 172.779 200.578,179.426 200.553,187.286 200.622 L 201.576 200.746 202.240 201.367 " stroke="none" fill="#080706" fill-rule="evenodd"></path><path id="path3" d="M162.989 65.294 C 162.810 65.773,162.699 65.802,161.894 65.580 C 160.380 65.162,159.206 65.665,159.016 66.812 C 158.528 69.763,158.856 77.157,159.564 79.180 C 160.447 81.701,161.208 82.081,161.464 80.127 C 161.666 78.588,161.989 77.812,162.427 77.812 C 162.619 77.812,162.869 78.064,162.983 78.372 C 163.114 78.727,163.217 77.636,163.267 75.388 C 163.380 70.238,163.227 64.660,162.989 65.294 M240.944 68.893 C 240.135 69.192,239.888 70.501,239.613 75.948 C 239.339 81.382,239.510 104.743,239.845 107.520 L 240.025 109.012 241.641 108.928 C 243.821 108.814,244.030 108.568,244.427 105.656 C 244.884 102.297,244.799 71.785,244.327 69.981 L 244.002 68.738 242.715 68.726 C 242.007 68.720,241.210 68.795,240.944 68.893 M144.387 71.189 C 144.088 71.416,143.574 71.460,142.647 71.337 C 141.922 71.241,141.283 71.204,141.226 71.256 C 140.761 71.674,140.564 97.608,140.994 101.850 C 141.281 104.684,141.449 105.090,142.407 105.275 C 142.686 105.328,143.137 105.492,143.411 105.638 C 145.954 107.000,146.315 104.159,145.945 85.702 C 145.633 70.108,145.646 70.232,144.387 71.189 M218.684 153.593 C 218.034 154.311,218.164 154.844,220.077 159.354 C 220.571 160.516,221.940 163.928,223.120 166.936 C 224.300 169.944,225.417 172.741,225.602 173.151 C 225.787 173.561,226.293 174.792,226.725 175.886 C 227.157 176.979,227.849 178.602,228.263 179.490 C 228.676 180.379,229.518 182.279,230.133 183.713 C 230.748 185.147,231.567 186.944,231.952 187.707 C 232.603 188.997,233.996 192.302,235.690 196.574 C 236.828 199.442,239.887 205.561,240.442 206.078 C 241.359 206.933,241.825 206.437,243.249 203.094 C 245.905 196.860,247.106 194.116,247.465 193.461 C 247.843 192.772,250.388 187.466,252.138 183.717 C 252.681 182.554,253.684 180.317,254.367 178.745 C 255.050 177.172,255.870 175.326,256.190 174.643 C 256.510 173.959,257.105 172.617,257.512 171.659 C 258.305 169.797,260.785 164.382,262.521 160.721 C 263.829 157.964,265.258 154.467,265.258 154.024 C 265.258 153.345,259.816 153.063,258.975 153.698 C 258.509 154.050,257.035 157.128,254.113 163.850 C 253.008 166.391,251.763 169.206,251.347 170.105 C 250.931 171.004,250.590 171.803,250.590 171.879 C 250.590 171.956,249.751 173.979,248.726 176.375 C 247.700 178.771,246.861 180.784,246.861 180.850 C 246.861 180.982,245.706 183.594,245.345 184.278 C 245.218 184.518,244.793 185.525,244.399 186.515 C 242.562 191.141,241.384 193.240,240.761 193.001 C 240.309 192.827,238.009 188.050,237.041 185.274 C 235.461 180.742,233.481 175.397,232.503 173.027 C 231.967 171.728,231.215 169.770,230.832 168.676 C 230.449 167.582,229.862 166.072,229.527 165.320 C 228.957 164.043,227.904 161.460,226.207 157.176 C 224.707 153.389,224.395 153.139,221.182 153.139 C 219.476 153.139,219.020 153.222,218.684 153.593 M182.101 153.872 L 179.117 154.009 179.037 154.712 C 178.984 155.173,178.843 155.372,178.627 155.289 C 178.447 155.219,177.923 155.364,177.465 155.609 C 177.007 155.855,176.268 156.135,175.823 156.233 C 174.922 156.430,174.799 156.773,175.451 157.267 C 175.825 157.551,175.589 157.605,173.773 157.652 C 169.583 157.760,169.242 157.815,170.665 158.161 C 172.221 158.538,206.196 158.728,207.075 158.363 C 208.911 157.603,209.562 155.746,208.455 154.430 L 207.787 153.636 196.435 153.686 C 190.192 153.713,183.741 153.797,182.101 153.872 M168.677 154.877 C 168.590 155.149,168.597 155.497,168.692 155.650 C 168.787 155.803,168.726 156.014,168.558 156.118 C 168.186 156.348,168.582 157.228,169.156 157.448 C 169.462 157.566,169.481 157.476,169.267 156.918 C 169.126 156.548,169.076 155.827,169.157 155.314 C 169.310 154.339,168.951 154.011,168.677 154.877 M171.588 178.279 C 169.468 178.891,169.208 182.246,171.206 183.215 C 172.275 183.733,199.908 183.593,200.931 183.063 C 202.596 182.203,202.560 179.246,200.875 178.374 C 200.022 177.933,173.091 177.846,171.588 178.279 M212.181 197.241 C 207.277 199.402,208.963 207.410,214.324 207.415 C 219.625 207.420,221.277 199.925,216.500 197.545 C 215.042 196.818,213.402 196.703,212.181 197.241 M267.495 199.109 C 267.495 199.371,267.356 199.632,267.185 199.689 C 266.501 199.917,266.784 204.395,267.545 205.393 C 269.176 207.532,272.979 208.178,275.307 206.712 C 276.364 206.047,276.699 205.635,277.477 204.043 C 277.772 203.440,277.742 200.187,277.439 200.000 C 277.303 199.915,277.191 199.567,277.191 199.225 C 277.191 198.874,277.083 198.670,276.942 198.757 C 276.805 198.841,276.694 199.140,276.694 199.420 C 276.694 199.810,276.592 199.885,276.259 199.743 C 273.931 198.747,271.617 198.351,271.088 198.859 C 270.698 199.234,267.992 199.307,267.992 198.943 C 267.992 198.773,267.881 198.633,267.744 198.633 C 267.607 198.633,267.495 198.847,267.495 199.109 M250.409 199.042 C 248.984 199.353,248.056 201.760,248.705 203.461 C 250.201 207.377,254.920 206.856,255.262 202.736 C 255.492 199.961,253.420 198.384,250.409 199.042 M227.530 199.626 C 225.561 200.826,225.068 203.613,226.548 205.182 C 228.730 207.496,232.443 206.047,232.443 202.880 C 232.443 200.013,229.784 198.252,227.530 199.626 M172.924 201.525 C 172.827 201.778,173.371 202.787,173.777 203.108 C 173.863 203.176,174.405 203.931,174.981 204.786 L 176.028 206.339 188.350 206.339 C 202.316 206.339,202.136 206.362,202.615 204.581 C 202.892 203.553,202.506 202.146,201.828 201.708 C 201.291 201.362,173.055 201.183,172.924 201.525 " stroke="none" fill="#68edc2" fill-rule="evenodd"></path><path id="path4" d="M187.570 17.658 C 175.355 20.112,167.567 27.404,164.080 39.652 C 163.834 40.518,163.387 47.125,163.345 50.506 L 163.331 51.665 159.540 51.753 L 155.749 51.842 153.803 52.826 C 150.611 54.439,148.095 56.827,147.160 59.131 C 147.066 59.362,146.800 59.176,146.319 58.546 C 143.979 55.478,139.205 56.996,137.802 61.254 C 136.879 64.054,136.845 119.317,137.764 122.312 C 139.466 127.859,147.416 128.422,147.420 122.996 C 147.421 122.112,147.515 121.815,147.794 121.815 C 147.999 121.815,148.167 121.980,148.167 122.181 C 148.167 122.382,148.418 122.981,148.726 123.511 C 149.034 124.040,150.012 125.727,150.901 127.259 C 151.790 128.791,152.682 130.311,152.883 130.639 C 153.085 130.966,153.192 131.292,153.121 131.363 C 153.050 131.434,136.663 131.516,116.707 131.545 C 96.751 131.575,71.809 131.674,61.280 131.765 L 42.138 131.931 39.901 132.743 C 36.673 133.914,36.022 134.299,34.266 136.076 C 32.109 138.260,31.121 139.594,30.868 140.669 C 30.750 141.169,30.525 142.112,30.367 142.763 C 29.862 144.853,30.148 147.504,31.206 150.528 C 31.397 151.075,32.125 153.145,32.823 155.127 C 33.521 157.110,34.353 159.515,34.672 160.472 C 34.991 161.429,35.373 162.548,35.520 162.958 C 35.667 163.369,36.144 164.823,36.580 166.190 C 37.016 167.557,37.634 169.267,37.953 169.988 C 38.272 170.710,38.533 171.555,38.533 171.865 C 38.533 172.176,38.633 172.536,38.754 172.666 C 38.875 172.796,39.164 173.686,39.396 174.643 C 39.818 176.384,40.853 179.673,41.273 180.609 C 41.396 180.883,41.733 181.945,42.022 182.971 C 42.611 185.057,43.882 189.284,44.377 190.802 C 44.556 191.349,45.055 192.971,45.487 194.406 C 45.919 195.842,46.610 197.912,47.023 199.006 C 47.436 200.099,47.947 201.554,48.158 202.237 C 48.763 204.192,49.389 206.148,49.671 206.961 C 50.197 208.478,51.942 214.195,52.100 214.916 C 52.329 215.963,54.886 220.780,55.531 221.380 C 55.826 221.653,56.289 222.308,56.560 222.836 C 56.832 223.363,57.363 224.034,57.740 224.327 C 58.117 224.620,58.882 225.224,59.441 225.668 C 60.000 226.112,60.550 226.476,60.663 226.476 C 60.777 226.476,61.185 226.738,61.572 227.059 C 61.958 227.379,62.820 227.825,63.487 228.049 C 64.154 228.273,64.825 228.620,64.979 228.821 C 65.677 229.733,68.693 229.760,172.405 229.772 C 313.394 229.789,349.471 229.663,351.398 229.149 C 352.219 228.930,353.515 228.589,354.280 228.391 C 362.909 226.157,367.427 217.107,364.791 207.334 C 364.588 206.582,364.199 205.127,363.927 204.102 C 363.075 200.898,360.766 193.744,360.235 192.666 C 360.134 192.461,359.909 191.678,359.735 190.926 C 359.562 190.174,359.219 188.943,358.973 188.191 C 358.728 187.439,358.114 185.482,357.610 183.841 C 357.105 182.200,356.480 180.235,356.221 179.474 C 355.961 178.713,355.749 177.952,355.749 177.783 C 355.749 177.614,355.423 176.615,355.025 175.562 C 354.627 174.510,354.001 172.530,353.634 171.162 C 352.928 168.537,351.571 164.372,351.285 163.953 C 351.191 163.816,350.968 163.201,350.788 162.585 C 350.608 161.970,350.147 160.572,349.764 159.478 C 349.381 158.384,348.843 156.762,348.570 155.873 C 348.297 154.984,347.662 152.915,347.159 151.274 C 346.656 149.633,346.146 148.185,346.025 148.055 C 345.904 147.925,345.805 147.675,345.805 147.499 C 345.805 146.302,342.613 140.393,341.125 138.837 C 338.835 136.439,336.455 134.656,334.688 134.011 C 333.898 133.722,333.027 133.389,332.753 133.269 C 328.866 131.572,332.001 131.672,280.055 131.580 C 252.028 131.530,232.983 131.405,232.847 131.269 C 232.564 130.986,232.837 130.286,234.785 126.290 C 235.619 124.580,236.507 122.698,236.759 122.107 C 237.275 120.899,237.550 121.043,238.131 122.830 C 239.211 126.153,243.332 127.115,245.917 124.647 C 248.060 122.600,248.135 121.579,248.062 95.650 C 247.961 60.088,247.974 60.296,245.769 58.091 C 243.867 56.190,240.309 56.181,239.138 58.075 L 238.611 58.929 237.016 57.206 C 233.755 53.683,230.553 52.232,225.606 52.033 C 221.644 51.873,222.060 52.390,221.625 47.093 C 221.286 42.969,220.893 40.469,220.238 38.285 C 219.938 37.283,219.804 36.948,218.919 34.984 C 218.563 34.194,218.272 33.456,218.272 33.344 C 218.272 32.175,212.712 25.499,209.695 23.046 C 203.859 18.301,195.048 16.155,187.570 17.658 M197.390 18.247 C 211.344 20.429,221.196 33.672,221.251 50.322 C 221.258 52.603,221.428 52.704,225.267 52.704 C 228.732 52.704,229.228 52.820,232.362 54.370 C 234.042 55.200,237.415 58.109,237.415 58.728 C 237.415 58.860,237.778 59.307,238.222 59.722 L 239.030 60.477 238.941 78.930 C 238.891 89.079,238.776 101.969,238.685 107.574 L 238.520 117.765 237.877 118.361 C 237.523 118.688,237.036 119.515,236.795 120.199 C 236.554 120.883,235.252 123.656,233.902 126.363 C 231.269 131.643,231.197 131.856,231.929 132.247 C 232.256 132.422,247.477 132.505,279.379 132.505 C 330.104 132.505,328.746 132.471,332.132 133.794 C 338.369 136.230,342.045 139.897,344.423 146.055 C 344.793 147.011,345.187 148.017,345.300 148.291 C 345.614 149.049,345.897 149.906,347.432 154.755 C 348.211 157.216,349.237 160.348,349.711 161.715 C 351.242 166.129,352.190 169.070,353.757 174.270 C 354.602 177.073,355.775 180.932,356.366 182.846 C 356.956 184.761,357.790 187.502,358.219 188.937 C 358.648 190.373,359.263 192.275,359.585 193.163 C 359.907 194.052,360.475 195.786,360.846 197.017 C 361.218 198.247,361.785 200.037,362.107 200.994 C 362.954 203.515,364.149 208.572,364.474 211.014 C 365.665 219.966,359.384 227.018,349.161 228.206 C 346.166 228.553,74.223 228.778,70.851 228.436 C 64.815 227.822,60.965 225.977,57.307 221.944 C 55.128 219.542,53.934 216.737,49.979 204.723 C 48.043 198.844,46.252 193.418,46.000 192.666 C 45.747 191.914,45.292 190.460,44.987 189.434 C 44.682 188.409,43.738 185.444,42.887 182.846 C 42.037 180.249,40.980 176.948,40.537 175.513 C 40.094 174.077,39.534 172.343,39.292 171.659 C 38.615 169.748,37.913 167.653,36.005 161.840 C 33.715 154.866,33.036 152.930,31.844 149.982 C 28.926 142.766,32.922 135.396,40.941 133.205 L 42.884 132.674 98.198 132.521 C 128.620 132.437,153.651 132.280,153.822 132.173 C 154.383 131.821,154.153 131.151,152.608 128.642 C 151.770 127.280,150.157 124.319,149.025 122.063 L 146.966 117.961 146.804 89.708 C 146.704 72.230,146.731 61.399,146.875 61.310 C 147.003 61.231,147.355 60.505,147.657 59.697 C 148.612 57.144,151.235 54.684,154.755 53.040 C 155.875 52.517,156.353 52.459,159.602 52.454 C 164.345 52.445,163.921 52.976,164.120 46.809 C 164.324 40.477,164.571 39.177,166.364 34.983 C 171.518 22.932,184.065 16.164,197.390 18.247 M188.316 28.951 C 184.875 29.672,180.320 32.346,181.684 32.843 C 182.267 33.055,202.897 33.129,203.440 32.921 C 204.524 32.505,201.432 30.375,198.094 29.238 C 195.912 28.495,191.155 28.355,188.316 28.951 M198.135 29.558 C 201.583 30.639,203.560 32.366,201.741 32.707 C 200.506 32.939,182.225 32.559,182.225 32.302 C 182.225 31.820,184.532 30.444,186.576 29.707 C 189.178 28.767,195.361 28.688,198.135 29.558 M178.494 35.949 C 177.152 37.205,176.758 37.976,177.288 38.312 C 177.820 38.649,178.089 38.569,177.760 38.172 C 177.326 37.649,177.636 36.954,178.756 35.942 L 179.740 35.053 192.310 35.053 C 200.620 35.053,205.064 35.142,205.423 35.315 C 205.948 35.569,205.950 35.564,205.484 35.191 C 205.062 34.852,203.423 34.804,192.359 34.804 L 179.718 34.804 178.494 35.949 M206.619 36.157 C 207.435 37.191,207.663 37.832,207.297 38.064 C 207.036 38.229,207.058 38.278,207.396 38.281 C 208.086 38.287,207.912 37.459,207.023 36.509 C 206.579 36.034,206.397 35.876,206.619 36.157 M176.010 40.771 C 175.301 41.480,175.359 43.754,176.086 43.754 C 176.268 43.754,176.259 43.655,176.060 43.456 C 175.330 42.726,175.759 40.951,176.763 40.550 C 177.197 40.377,177.249 40.300,176.942 40.289 C 176.703 40.281,176.283 40.497,176.010 40.771 M208.273 40.660 C 208.627 40.909,208.839 41.332,208.863 41.841 C 208.897 42.575,208.908 42.585,209.002 41.964 C 209.130 41.127,208.695 40.273,208.140 40.273 C 207.803 40.273,207.829 40.350,208.273 40.660 M208.080 43.419 C 207.483 43.733,207.480 43.747,208.003 43.750 C 208.302 43.752,208.621 43.635,208.711 43.489 C 208.963 43.082,208.762 43.059,208.080 43.419 M197.342 45.680 C 199.025 45.723,201.709 45.723,203.308 45.680 C 204.907 45.636,203.530 45.601,200.249 45.601 C 196.967 45.601,195.659 45.637,197.342 45.680 M175.322 47.483 C 175.322 47.961,175.373 48.157,175.436 47.918 C 175.498 47.679,175.498 47.287,175.436 47.048 C 175.373 46.809,175.322 47.004,175.322 47.483 M209.094 47.776 C 209.083 48.005,208.898 48.369,208.683 48.584 C 208.468 48.799,208.409 48.975,208.550 48.975 C 208.895 48.975,209.386 48.028,209.234 47.656 C 209.166 47.488,209.105 47.540,209.094 47.776 M197.328 49.150 C 197.635 49.209,198.139 49.209,198.446 49.150 C 198.754 49.091,198.502 49.042,197.887 49.042 C 197.272 49.042,197.020 49.091,197.328 49.150 M175.699 50.983 C 175.460 51.123,175.264 51.360,175.264 51.511 C 175.264 51.663,175.466 51.603,175.715 51.378 C 176.114 51.017,177.243 50.962,185.349 50.901 L 194.531 50.833 185.333 50.781 C 179.440 50.748,175.978 50.821,175.699 50.983 M204.102 51.144 C 208.432 51.209,208.726 51.244,209.136 51.737 C 209.375 52.026,209.571 52.145,209.571 52.003 C 209.571 51.085,208.891 50.962,204.146 51.020 L 199.503 51.076 204.102 51.144 M208.922 53.883 C 208.677 54.273,208.014 54.334,202.708 54.453 L 196.768 54.586 202.766 54.639 C 208.900 54.694,209.581 54.596,209.283 53.705 C 209.236 53.563,209.074 53.643,208.922 53.883 M175.327 53.947 C 175.388 54.176,175.754 54.333,176.278 54.354 C 177.057 54.387,177.066 54.379,176.384 54.270 C 175.974 54.204,175.546 54.021,175.432 53.862 C 175.293 53.667,175.259 53.695,175.327 53.947 M157.339 54.848 C 157.048 55.198,156.988 58.868,156.967 77.540 L 156.941 99.814 157.118 83.157 C 157.215 73.996,157.312 64.040,157.334 61.032 C 157.355 58.024,157.478 55.395,157.608 55.190 C 157.920 54.694,162.911 54.489,163.465 54.949 C 163.779 55.210,163.836 58.856,163.884 81.883 C 163.914 96.558,163.998 104.831,164.070 100.311 C 164.142 95.799,164.145 83.661,164.077 73.337 L 163.953 54.568 160.819 54.499 C 158.132 54.439,157.637 54.489,157.339 54.848 M221.406 54.837 C 221.323 55.053,221.282 67.275,221.315 81.997 L 221.375 108.763 221.502 82.163 C 221.571 67.533,221.719 55.423,221.829 55.252 C 221.972 55.032,222.894 54.941,224.984 54.941 C 227.075 54.941,227.997 55.032,228.139 55.252 C 228.250 55.423,228.402 66.582,228.476 80.050 L 228.612 104.537 228.663 79.971 C 228.697 63.418,228.630 55.249,228.456 54.925 C 228.100 54.260,221.659 54.180,221.406 54.837 M175.562 56.731 C 175.239 57.054,175.146 59.562,175.451 59.751 C 175.553 59.815,175.637 59.178,175.637 58.336 L 175.637 56.805 178.247 56.668 L 180.858 56.530 178.359 56.481 C 176.688 56.449,175.762 56.531,175.562 56.731 M182.912 56.608 C 183.221 56.668,183.668 56.666,183.906 56.603 C 184.144 56.541,183.891 56.493,183.344 56.495 C 182.797 56.498,182.602 56.549,182.912 56.608 M194.359 56.618 C 196.041 56.661,198.726 56.661,200.325 56.618 C 201.924 56.575,200.547 56.540,197.265 56.540 C 193.984 56.540,192.676 56.575,194.359 56.618 M204.788 56.608 C 205.098 56.668,205.545 56.666,205.783 56.603 C 206.021 56.541,205.768 56.493,205.221 56.495 C 204.674 56.498,204.479 56.549,204.788 56.608 M244.597 58.035 C 247.385 59.476,247.340 58.935,247.346 91.361 C 247.350 121.594,247.353 121.543,245.993 123.597 C 243.783 126.936,238.346 125.090,238.714 121.124 L 238.800 120.199 239.010 120.945 C 240.047 124.630,244.016 124.688,245.022 121.032 C 245.469 119.403,245.552 64.694,245.109 62.720 C 244.482 59.918,243.509 59.056,241.165 59.223 L 239.426 59.348 239.800 58.623 C 240.448 57.372,242.766 57.087,244.597 58.035 M144.873 58.170 C 145.354 58.463,145.681 58.865,145.681 59.164 C 145.681 59.686,145.081 59.853,144.806 59.408 C 144.469 58.864,141.985 59.657,141.164 60.571 C 140.237 61.603,140.168 63.174,140.038 86.007 C 139.886 112.854,140.060 117.882,141.211 119.922 C 141.618 120.643,141.952 121.416,141.952 121.640 C 141.952 123.000,143.835 123.834,145.314 123.129 C 146.736 122.451,147.070 123.858,145.776 125.074 C 143.814 126.917,139.101 125.049,138.355 122.132 C 137.756 119.792,137.671 65.050,138.262 62.275 C 139.062 58.517,142.223 56.554,144.873 58.170 M209.054 58.981 C 208.980 59.515,209.018 59.820,209.143 59.694 C 209.263 59.574,209.321 59.155,209.272 58.762 C 209.190 58.105,209.173 58.123,209.054 58.981 M177.067 60.096 C 177.716 60.147,178.779 60.147,179.428 60.096 C 180.078 60.045,179.546 60.003,178.247 60.003 C 176.948 60.003,176.417 60.045,177.067 60.096 M182.909 60.088 C 183.216 60.148,183.720 60.148,184.027 60.088 C 184.335 60.029,184.083 59.981,183.468 59.981 C 182.853 59.981,182.601 60.029,182.909 60.088 M185.643 60.095 C 186.224 60.147,187.175 60.147,187.756 60.095 C 188.337 60.043,187.862 60.000,186.700 60.000 C 185.538 60.000,185.062 60.043,185.643 60.095 M191.472 60.098 C 192.934 60.142,195.395 60.142,196.941 60.099 C 198.487 60.055,197.290 60.019,194.282 60.019 C 191.274 60.019,190.009 60.054,191.472 60.098 M204.661 60.084 C 204.901 60.147,205.292 60.147,205.531 60.084 C 205.771 60.022,205.575 59.971,205.096 59.971 C 204.618 59.971,204.422 60.022,204.661 60.084 M243.058 61.643 C 244.907 62.771,244.834 61.830,244.969 86.265 C 245.125 114.790,244.901 118.932,243.185 119.211 C 242.678 119.294,242.094 119.391,241.889 119.426 C 239.378 119.856,239.169 117.904,239.167 93.971 C 239.165 63.178,239.603 59.537,243.058 61.643 M175.430 62.316 C 175.339 62.407,175.277 62.771,175.293 63.124 C 175.316 63.641,175.346 63.669,175.444 63.269 C 175.511 62.996,175.680 62.632,175.819 62.461 C 176.081 62.138,175.736 62.010,175.430 62.316 M208.577 62.485 C 208.919 62.665,209.251 62.770,209.315 62.717 C 209.490 62.573,208.757 62.158,208.328 62.158 C 208.123 62.158,208.234 62.305,208.577 62.485 M145.062 65.048 C 145.288 65.274,145.592 65.750,145.736 66.104 C 146.465 67.894,146.602 110.307,145.890 113.480 C 145.491 115.255,144.940 115.654,143.202 115.430 C 140.526 115.084,140.584 115.649,140.585 89.869 C 140.587 64.530,140.499 65.542,142.752 64.997 C 144.508 64.571,144.587 64.573,145.062 65.048 M209.074 64.844 C 209.074 65.003,208.766 65.149,208.390 65.167 C 207.763 65.199,207.755 65.210,208.295 65.313 C 208.900 65.428,209.546 65.026,209.244 64.723 C 209.150 64.630,209.074 64.684,209.074 64.844 M175.823 67.536 C 175.653 67.605,175.513 67.777,175.513 67.919 C 175.513 68.098,175.609 68.098,175.824 67.919 C 175.996 67.777,176.527 67.613,177.005 67.555 L 177.874 67.451 177.004 67.430 C 176.526 67.419,175.994 67.467,175.823 67.536 M207.707 67.589 L 208.950 67.744 209.024 69.029 C 209.075 69.916,208.999 70.346,208.775 70.420 C 208.568 70.488,208.586 70.517,208.825 70.499 C 209.112 70.478,209.198 70.129,209.198 68.984 L 209.198 67.495 207.831 67.465 L 206.464 67.434 207.707 67.589 M182.054 72.778 C 184.216 72.819,187.684 72.819,189.761 72.778 C 191.837 72.736,190.068 72.702,185.830 72.702 C 181.591 72.702,179.892 72.736,182.054 72.778 M208.204 72.879 C 208.477 73.028,208.841 73.326,209.012 73.540 C 209.279 73.875,209.323 73.878,209.323 73.559 C 209.323 73.033,208.813 72.590,208.216 72.599 C 207.710 72.607,207.710 72.609,208.204 72.879 M206.215 78.209 C 207.396 78.398,209.074 78.422,209.074 78.249 C 209.074 78.146,208.319 78.076,207.396 78.095 C 206.473 78.113,205.942 78.165,206.215 78.209 M207.209 81.044 L 205.469 81.205 207.133 81.249 C 208.047 81.273,208.865 81.181,208.950 81.044 C 209.034 80.907,209.069 80.815,209.026 80.839 C 208.984 80.864,208.167 80.956,207.209 81.044 M210.956 87.977 C 210.881 88.098,211.010 88.182,211.243 88.163 C 211.524 88.141,211.723 88.381,211.833 88.875 C 211.994 89.602,211.999 89.597,212.028 88.689 C 212.056 87.778,211.363 87.318,210.956 87.977 M211.415 98.073 C 211.415 100.671,211.452 101.700,211.497 100.360 C 211.542 99.020,211.541 96.894,211.496 95.637 C 211.451 94.379,211.415 95.475,211.415 98.073 M179.548 96.706 C 179.548 97.185,179.599 97.380,179.662 97.141 C 179.724 96.902,179.724 96.510,179.662 96.271 C 179.599 96.032,179.548 96.227,179.548 96.706 M157.218 105.656 C 157.218 108.048,157.256 109.027,157.301 107.831 C 157.347 106.635,157.347 104.677,157.301 103.480 C 157.256 102.284,157.218 103.263,157.218 105.656 M164.135 109.385 C 164.135 109.863,164.186 110.059,164.248 109.820 C 164.311 109.580,164.311 109.189,164.248 108.950 C 164.186 108.710,164.135 108.906,164.135 109.385 M214.155 123.617 L 213.424 124.425 214.232 123.695 C 214.677 123.293,215.040 122.930,215.040 122.887 C 215.040 122.695,214.835 122.864,214.155 123.617 M219.375 129.086 L 218.645 129.894 219.453 129.164 C 219.897 128.763,220.261 128.399,220.261 128.356 C 220.261 128.164,220.056 128.333,219.375 129.086 M166.936 130.267 C 167.470 130.814,167.963 131.262,168.031 131.262 C 168.100 131.262,167.719 130.814,167.185 130.267 C 166.651 129.720,166.158 129.273,166.089 129.273 C 166.021 129.273,166.402 129.720,166.936 130.267 M218.851 152.755 C 217.331 153.416,217.273 154.233,218.538 157.116 C 218.928 158.005,219.640 159.757,220.121 161.009 C 220.601 162.262,221.180 163.716,221.408 164.241 C 221.635 164.766,221.905 165.420,222.006 165.693 C 222.628 167.369,223.065 168.476,224.070 170.914 C 224.690 172.418,225.551 174.543,225.983 175.637 C 226.415 176.731,226.973 178.073,227.222 178.620 C 227.471 179.167,228.119 180.622,228.663 181.852 C 229.206 183.083,229.930 184.705,230.271 185.457 C 231.585 188.355,233.472 192.702,233.804 193.596 C 235.647 198.563,239.486 206.468,240.321 207.015 C 241.677 207.903,242.552 206.863,244.386 202.185 C 244.804 201.120,245.296 199.913,245.480 199.503 C 245.664 199.093,246.044 198.245,246.325 197.618 C 246.606 196.992,247.055 195.929,247.323 195.257 C 247.591 194.584,248.928 191.740,250.294 188.937 C 252.752 183.895,256.308 176.163,256.308 175.861 C 256.308 175.774,256.700 174.868,257.178 173.846 C 257.657 172.824,258.048 171.937,258.048 171.874 C 258.048 171.811,258.563 170.674,259.191 169.348 C 259.820 168.021,260.777 165.929,261.318 164.699 C 261.860 163.468,262.739 161.613,263.274 160.576 C 265.299 156.648,266.063 153.979,265.364 153.281 C 264.759 152.675,259.028 152.712,258.488 153.325 C 257.992 153.888,256.007 157.893,254.885 160.597 C 254.403 161.759,253.672 163.437,253.262 164.326 C 252.514 165.947,251.707 167.819,248.868 174.518 C 248.028 176.501,247.186 178.459,246.997 178.869 C 246.808 179.279,246.319 180.454,245.911 181.479 C 243.832 186.704,241.381 191.988,241.020 192.022 C 240.427 192.077,237.601 185.597,235.933 180.360 C 235.759 179.814,235.008 177.800,234.264 175.886 C 233.520 173.971,232.462 171.231,231.914 169.795 C 231.365 168.359,230.574 166.346,230.155 165.320 C 229.736 164.295,228.626 161.498,227.688 159.105 C 225.858 154.436,225.511 153.816,224.241 152.952 C 223.265 152.288,220.184 152.175,218.851 152.755 M168.989 153.232 C 168.159 153.600,167.573 154.335,167.575 155.003 C 167.576 155.361,167.673 155.280,167.920 154.712 C 168.522 153.328,168.107 153.360,184.528 153.438 C 211.127 153.564,207.923 153.410,208.710 154.599 C 209.492 155.781,209.363 156.562,208.191 157.734 L 207.374 158.551 202.071 158.699 C 190.013 159.035,171.351 159.141,170.378 158.880 C 169.328 158.597,168.237 157.627,167.836 156.619 C 167.639 156.124,167.586 156.094,167.573 156.471 C 167.547 157.251,168.721 158.536,169.853 158.967 C 171.527 159.605,206.571 159.442,207.762 158.792 C 210.312 157.397,210.339 154.560,207.814 153.254 C 206.863 152.762,170.095 152.742,168.989 153.232 M223.823 153.229 C 225.017 153.728,227.539 159.165,230.932 168.552 C 231.451 169.988,232.332 172.281,232.889 173.648 C 233.868 176.046,234.436 177.577,237.133 185.084 C 238.553 189.035,240.388 192.753,240.975 192.869 C 241.414 192.956,242.723 190.377,244.744 185.439 C 246.498 181.155,250.463 171.780,251.886 168.552 C 253.238 165.484,253.515 164.851,254.927 161.591 C 256.806 157.257,258.625 153.658,259.014 153.509 C 259.770 153.218,263.393 153.082,264.264 153.312 C 265.841 153.727,265.727 154.150,261.650 162.958 C 260.321 165.830,258.855 168.998,258.393 170.000 C 257.930 171.001,257.551 171.860,257.551 171.909 C 257.551 171.958,257.229 172.705,256.834 173.569 C 256.440 174.433,255.530 176.482,254.811 178.123 C 253.074 182.092,252.359 183.621,249.289 189.932 C 247.858 192.871,246.381 196.004,246.006 196.892 C 245.630 197.781,245.012 199.180,244.632 200.000 C 244.251 200.820,243.507 202.585,242.977 203.921 C 241.919 206.590,241.309 207.124,240.393 206.186 C 239.834 205.612,236.712 199.404,235.712 196.875 C 234.189 193.026,232.431 188.932,230.721 185.258 C 228.574 180.644,226.496 175.803,224.242 170.168 C 223.313 167.843,222.080 164.767,221.502 163.331 C 217.838 154.222,217.853 154.266,218.309 153.715 C 219.019 152.860,222.256 152.574,223.823 153.229 M62.392 153.897 C 62.242 154.178,62.167 154.653,62.225 154.954 C 62.316 155.419,62.336 155.401,62.365 154.834 C 62.384 154.468,62.575 153.993,62.790 153.778 C 63.005 153.563,63.064 153.387,62.923 153.387 C 62.781 153.387,62.542 153.617,62.392 153.897 M106.215 153.656 C 106.558 153.855,106.650 154.247,106.650 155.500 C 106.650 156.753,106.558 157.145,106.215 157.345 C 105.976 157.484,105.897 157.602,106.041 157.606 C 106.623 157.623,106.899 156.945,106.899 155.500 C 106.899 154.055,106.623 153.378,106.041 153.395 C 105.897 153.399,105.976 153.516,106.215 153.656 M62.190 156.200 C 62.123 157.379,62.543 157.867,63.589 157.825 C 64.434 157.791,64.449 157.778,63.766 157.678 C 62.762 157.532,62.446 157.227,62.329 156.290 C 62.234 155.534,62.228 155.530,62.190 156.200 M67.309 157.793 C 67.753 157.848,68.480 157.848,68.925 157.793 C 69.369 157.738,69.006 157.693,68.117 157.693 C 67.228 157.693,66.865 157.738,67.309 157.793 M86.364 161.591 C 86.364 163.574,86.402 164.385,86.449 163.393 C 86.497 162.402,86.497 160.780,86.449 159.789 C 86.402 158.797,86.364 159.608,86.364 161.591 M86.346 167.433 C 86.347 168.390,86.392 168.751,86.446 168.236 C 86.500 167.720,86.499 166.937,86.444 166.495 C 86.389 166.054,86.345 166.476,86.346 167.433 M134.602 174.021 C 134.602 177.644,134.637 179.127,134.679 177.315 C 134.722 175.503,134.722 172.539,134.679 170.727 C 134.637 168.915,134.602 170.398,134.602 174.021 M312.262 168.445 C 312.236 168.821,313.025 171.085,313.141 170.969 C 313.193 170.917,313.021 170.267,312.758 169.526 C 312.495 168.785,312.272 168.299,312.262 168.445 M301.346 170.178 C 300.929 171.093,301.008 171.288,301.459 170.457 C 301.669 170.068,301.795 169.704,301.738 169.648 C 301.681 169.591,301.504 169.830,301.346 170.178 M315.121 176.259 C 315.212 176.600,315.391 177.048,315.517 177.253 C 315.678 177.512,315.697 177.436,315.582 177.004 C 315.490 176.663,315.312 176.215,315.185 176.010 C 315.025 175.751,315.005 175.827,315.121 176.259 M86.359 179.988 C 86.359 181.560,86.399 182.203,86.448 181.417 C 86.498 180.631,86.498 179.344,86.448 178.558 C 86.399 177.772,86.359 178.415,86.359 179.988 M180.360 177.494 C 170.126 177.641,170.405 177.592,169.544 179.370 C 168.613 181.294,169.509 183.407,171.489 183.957 C 173.420 184.493,200.127 184.286,201.043 183.728 C 203.401 182.290,203.302 178.911,200.866 177.688 C 199.916 177.212,200.024 177.213,180.360 177.494 M201.347 178.602 C 202.772 179.965,202.527 182.374,200.874 183.255 C 199.645 183.910,172.931 183.973,171.311 183.324 C 169.889 182.756,169.336 181.355,169.925 179.815 C 170.685 177.824,170.233 177.874,187.367 177.874 L 200.588 177.874 201.347 178.602 M142.511 181.168 C 144.117 181.211,146.746 181.211,148.353 181.168 C 149.960 181.124,148.645 181.089,145.432 181.089 C 142.219 181.089,140.904 181.124,142.511 181.168 M308.338 184.398 C 309.267 184.446,310.721 184.446,311.570 184.398 C 312.419 184.349,311.659 184.310,309.882 184.310 C 308.104 184.311,307.410 184.350,308.338 184.398 M270.054 195.141 C 267.539 196.283,265.749 199.166,265.761 202.060 C 265.788 209.061,276.314 210.497,278.311 203.772 C 279.982 198.143,274.974 192.907,270.054 195.141 M275.178 195.682 C 278.040 197.394,279.162 201.223,277.736 204.412 C 275.049 210.424,265.538 208.067,266.063 201.520 C 266.460 196.575,271.391 193.417,275.178 195.682 M211.537 196.969 C 206.426 199.644,208.541 208.069,214.326 208.078 C 220.358 208.087,222.160 199.424,216.656 196.868 C 215.208 196.195,212.929 196.240,211.537 196.969 M217.059 197.627 C 221.602 200.636,219.416 207.844,214.053 207.541 C 208.976 207.254,207.257 200.344,211.544 197.456 C 212.872 196.560,215.575 196.644,217.059 197.627 M250.496 198.393 C 247.417 199.314,246.978 203.401,249.700 205.791 C 251.374 207.261,253.118 207.153,254.722 205.479 C 257.830 202.235,254.775 197.112,250.496 198.393 M227.022 199.367 C 223.477 201.950,225.238 207.186,229.513 206.775 C 234.384 206.307,234.245 199.083,229.358 198.689 C 228.247 198.600,227.961 198.683,227.022 199.367 M254.161 199.451 C 256.800 201.298,255.316 206.335,252.132 206.338 C 248.131 206.343,246.829 199.769,250.654 198.879 C 251.789 198.615,253.324 198.865,254.161 199.451 M230.693 199.498 C 232.449 200.406,233.121 202.559,232.226 204.409 C 231.181 206.567,228.531 207.071,226.738 205.452 C 223.705 202.712,227.081 197.630,230.693 199.498 M93.972 200.248 C 93.652 200.589,93.436 200.910,93.494 200.961 C 93.551 201.012,93.859 200.732,94.177 200.340 C 94.889 199.463,94.763 199.406,93.972 200.248 M128.011 200.216 C 128.684 200.946,128.817 201.018,128.639 200.554 C 128.572 200.380,128.268 200.086,127.963 199.900 C 127.434 199.577,127.436 199.592,128.011 200.216 M172.514 200.676 C 171.569 201.026,172.018 201.962,174.906 205.666 L 175.915 206.961 188.082 207.034 C 201.391 207.114,201.707 207.087,202.728 205.748 C 203.816 204.322,203.632 202.669,202.240 201.367 L 201.576 200.746 187.286 200.622 C 179.426 200.553,172.779 200.578,172.514 200.676 M202.134 202.055 C 203.506 203.592,202.884 205.784,200.921 206.329 C 199.861 206.624,176.542 206.688,176.113 206.398 C 175.299 205.847,172.443 201.537,172.714 201.266 C 172.805 201.175,179.299 201.132,187.144 201.171 L 201.408 201.243 202.134 202.055 M99.250 202.610 C 99.250 203.089,99.301 203.285,99.363 203.045 C 99.426 202.806,99.426 202.415,99.363 202.175 C 99.301 201.936,99.250 202.132,99.250 202.610 M129.082 202.610 C 129.082 203.089,129.133 203.285,129.196 203.045 C 129.258 202.806,129.258 202.415,129.196 202.175 C 129.133 201.936,129.082 202.132,129.082 202.610 M93.474 204.263 C 93.474 204.397,93.838 204.835,94.282 205.236 L 95.090 205.966 94.344 205.098 C 93.934 204.620,93.571 204.182,93.536 204.124 C 93.502 204.066,93.474 204.129,93.474 204.263 M123.555 204.514 C 123.555 204.650,123.863 205.032,124.239 205.364 L 124.922 205.966 124.301 205.221 C 123.959 204.810,123.651 204.428,123.617 204.371 C 123.583 204.314,123.555 204.379,123.555 204.514 M169.829 205.788 C 170.119 206.273,170.114 206.388,169.795 206.592 C 169.535 206.757,169.518 206.830,169.741 206.833 C 170.272 206.839,170.389 206.080,169.925 205.636 C 169.514 205.243,169.509 205.252,169.829 205.788 M125.295 206.079 C 125.500 206.218,125.883 206.333,126.145 206.336 C 126.781 206.341,126.582 206.198,125.668 205.994 C 125.123 205.872,125.023 205.895,125.295 206.079 " stroke="none" fill="#2b5b6b" fill-rule="evenodd"></path></g></svg>