<svg width="27" height="27" viewBox="0 0 27 27" fill="none" xmlns="http://www.w3.org/2000/svg">
<g clip-path="url(#clip0_7_66)">
<path d="M13.0908 19.6363C11.3549 19.6363 9.69 18.9467 8.46249 17.7192C7.23497 16.4916 6.54537 14.8268 6.54537 13.0908C6.54537 11.3549 7.23497 9.69 8.46249 8.46249C9.69 7.23497 11.3549 6.54537 13.0908 6.54537C14.8268 6.54537 16.4916 7.23497 17.7192 8.46249C18.9467 9.69 19.6363 11.3549 19.6363 13.0908C19.6363 14.8268 18.9467 16.4916 17.7192 17.7192C16.4916 18.9467 14.8268 19.6363 13.0908 19.6363ZM13.0908 17.4545C14.2481 17.4545 15.358 16.9947 16.1764 16.1764C16.9947 15.358 17.4545 14.2481 17.4545 13.0908C17.4545 11.9335 16.9947 10.8236 16.1764 10.0053C15.358 9.18692 14.2481 8.72718 13.0908 8.72718C11.9335 8.72718 10.8236 9.18692 10.0053 10.0053C9.18692 10.8236 8.72718 11.9335 8.72718 13.0908C8.72718 14.2481 9.18692 15.358 10.0053 16.1764C10.8236 16.9947 11.9335 17.4545 13.0908 17.4545ZM11.9999 1.09082H14.1817V4.36355H11.9999V1.09082ZM11.9999 21.8181H14.1817V25.0908H11.9999V21.8181ZM3.83446 5.377L5.377 3.83446L7.69082 6.14828L6.14828 7.69082L3.83446 5.37809V5.377ZM18.4908 20.0334L20.0334 18.4908L22.3472 20.8046L20.8046 22.3472L18.4908 20.0334ZM20.8046 3.83337L22.3472 5.377L20.0334 7.69082L18.4908 6.14828L20.8046 3.83446V3.83337ZM6.14828 18.4908L7.69082 20.0334L5.377 22.3472L3.83446 20.8046L6.14828 18.4908ZM25.0908 11.9999V14.1817H21.8181V11.9999H25.0908ZM4.36355 11.9999V14.1817H1.09082V11.9999H4.36355Z" fill="white"/>
</g>
<defs>
<clipPath id="clip0_7_66">
<rect width="26.1818" height="26.1818" fill="white"/>
</clipPath>
</defs>
</svg>
